<svg xmlns="http://www.w3.org/2000/svg">
<defs>
<font id="Font" horiz-adv-x="600" >
  <font-face 
    font-family="Font"
    font-weight="400"
    font-style="italic"
    font-stretch="normal"
    units-per-em="1000"
    panose-1="2 11 5 4 4 0 0 0 0 0"
    ascent="800"
    descent="-200"
    x-height="502"
    cap-height="700"
    bbox="-772 -221 1318 1052"
    underline-thickness="50"
    underline-position="-100"
    slope="-10"
    unicode-range="U+000D-FEFF"
  />
<missing-glyph horiz-adv-x="900" 
d="M136 87q0 42 6.5 67t8.5 32q-88 0 -88 72q0 41 20 75.5t50 67.5l13 16q-86 62 -86 127q0 46 34.5 78t82.5 32q38 0 67 -19t77 -64q28 71 72 107t96 36q76 0 120.5 -56t55.5 -163q17 4 39 4q58 0 97 -34t39 -84q0 -59 -44 -106t-114 -96q-30 -22 -41.5 -32t-11.5 -17
q0 -3 6.5 -17.5t6.5 -31.5q0 -41 -36 -69.5t-88 -28.5q-29 0 -52.5 11t-52.5 30q-16 11 -26 16.5t-19 5.5q-7 0 -13 -5.5t-15 -17.5q-19 -26 -41 -41t-61 -15q-45 0 -73.5 33.5t-28.5 86.5zM303 90q14 24 26 37t31 13q16 0 29.5 -8t34.5 -25q22 -19 39.5 -29t39.5 -10
q13 0 26 8t13 16q0 6 -12 18q-9 10 -14.5 17.5t-5.5 17.5q0 22 25 42t80 52q62 36 95 63.5t33 60.5q0 20 -13.5 33t-33.5 13q-10 0 -21 -3.5t-21 -7.5q-22 -10 -34 -10q-75 0 -75 62q0 9 0.5 21.5t0.5 37.5q0 92 -65 92q-26 0 -35 -13t-14 -40q-6 -29 -16 -43t-41 -14
q-16 0 -26 3.5t-18 13.5q-9 -15 -30 -15q-11 0 -21 8.5t-27 27.5q-21 25 -38 38t-38 13q-17 0 -27.5 -11t-10.5 -29q0 -19 14 -36t44 -37q16 -2 25 -12t9 -24q0 -17 -10 -35t-31 -47q-21 -30 -29.5 -45.5t-8.5 -30.5q0 -4 1 -6l32 1q26 0 42 -15t16 -38q0 -14 -3 -23t-9 -23
q-9 -15 -13.5 -32t-4.5 -45q0 -27 7.5 -39.5t24.5 -12.5q19 0 31 12.5t27 37.5zM422 430q0 21 11.5 34t30.5 13q17 0 31.5 -14t14.5 -38q0 -20 -11.5 -33.5t-31.5 -13.5t-32.5 14.5t-12.5 37.5zM258 392q0 25 11 38.5t31 13.5q24 0 41 -17.5t17 -41.5q0 -21 -13.5 -33.5
t-35.5 -12.5q-25 0 -38 13.5t-13 39.5zM283 247q0 28 42.5 48t101.5 20q56 0 77.5 -10.5t21.5 -38.5q0 -16 -14.5 -31t-30.5 -15q-17 0 -43 7q-6 1 -16 3t-16 2q-13 0 -31 -11q-24 -14 -41 -14q-21 0 -36 12t-15 28z" />
    <glyph glyph-name=".notdef" horiz-adv-x="900" 
d="M136 87q0 42 6.5 67t8.5 32q-88 0 -88 72q0 41 20 75.5t50 67.5l13 16q-86 62 -86 127q0 46 34.5 78t82.5 32q38 0 67 -19t77 -64q28 71 72 107t96 36q76 0 120.5 -56t55.5 -163q17 4 39 4q58 0 97 -34t39 -84q0 -59 -44 -106t-114 -96q-30 -22 -41.5 -32t-11.5 -17
q0 -3 6.5 -17.5t6.5 -31.5q0 -41 -36 -69.5t-88 -28.5q-29 0 -52.5 11t-52.5 30q-16 11 -26 16.5t-19 5.5q-7 0 -13 -5.5t-15 -17.5q-19 -26 -41 -41t-61 -15q-45 0 -73.5 33.5t-28.5 86.5zM303 90q14 24 26 37t31 13q16 0 29.5 -8t34.5 -25q22 -19 39.5 -29t39.5 -10
q13 0 26 8t13 16q0 6 -12 18q-9 10 -14.5 17.5t-5.5 17.5q0 22 25 42t80 52q62 36 95 63.5t33 60.5q0 20 -13.5 33t-33.5 13q-10 0 -21 -3.5t-21 -7.5q-22 -10 -34 -10q-75 0 -75 62q0 9 0.5 21.5t0.5 37.5q0 92 -65 92q-26 0 -35 -13t-14 -40q-6 -29 -16 -43t-41 -14
q-16 0 -26 3.5t-18 13.5q-9 -15 -30 -15q-11 0 -21 8.5t-27 27.5q-21 25 -38 38t-38 13q-17 0 -27.5 -11t-10.5 -29q0 -19 14 -36t44 -37q16 -2 25 -12t9 -24q0 -17 -10 -35t-31 -47q-21 -30 -29.5 -45.5t-8.5 -30.5q0 -4 1 -6l32 1q26 0 42 -15t16 -38q0 -14 -3 -23t-9 -23
q-9 -15 -13.5 -32t-4.5 -45q0 -27 7.5 -39.5t24.5 -12.5q19 0 31 12.5t27 37.5zM422 430q0 21 11.5 34t30.5 13q17 0 31.5 -14t14.5 -38q0 -20 -11.5 -33.5t-31.5 -13.5t-32.5 14.5t-12.5 37.5zM258 392q0 25 11 38.5t31 13.5q24 0 41 -17.5t17 -41.5q0 -21 -13.5 -33.5
t-35.5 -12.5q-25 0 -38 13.5t-13 39.5zM283 247q0 28 42.5 48t101.5 20q56 0 77.5 -10.5t21.5 -38.5q0 -16 -14.5 -31t-30.5 -15q-17 0 -43 7q-6 1 -16 3t-16 2q-13 0 -31 -11q-24 -14 -41 -14q-21 0 -36 12t-15 28z" />
    <glyph glyph-name="glyph1" horiz-adv-x="0" 
 />
    <glyph glyph-name="uni000D" unicode="&#xd;" horiz-adv-x="234" 
 />
    <glyph glyph-name="space" unicode=" " horiz-adv-x="234" 
 />
    <glyph glyph-name="A" unicode="A" horiz-adv-x="674" 
d="M471 173h-302l-89 -173h-103l366 700h96l170 -700h-98zM451 259l-74 318l-164 -318h238z" />
    <glyph glyph-name="Aacute" unicode="&#xc1;" horiz-adv-x="674" 
d="M471 173h-302l-89 -173h-103l366 700h96l170 -700h-98zM451 259l-74 318l-164 -318h238zM450 903h101l-133 -154h-80z" />
    <glyph glyph-name="Abreve" unicode="&#x102;" horiz-adv-x="674" 
d="M471 173h-302l-89 -173h-103l366 700h96l170 -700h-98zM451 259l-74 318l-164 -318h238zM250 903h64q3 -38 29.5 -62t63.5 -24q38 0 66 23.5t37 62.5h67q-12 -66 -59.5 -107.5t-112.5 -41.5q-66 0 -109.5 42t-45.5 107z" />
    <glyph glyph-name="Acircumflex" unicode="&#xc2;" horiz-adv-x="674" 
d="M471 173h-302l-89 -173h-103l366 700h96l170 -700h-98zM451 259l-74 318l-164 -318h238zM477 749l-69 98l-96 -98h-88l141 154h94l97 -154h-79z" />
    <glyph glyph-name="Adieresis" unicode="&#xc4;" horiz-adv-x="674" 
d="M471 173h-302l-89 -173h-103l366 700h96l170 -700h-98zM451 259l-74 318l-164 -318h238zM267 890h87l-23 -127h-86zM496 890h86l-22 -127h-86z" />
    <glyph glyph-name="Agrave" unicode="&#xc0;" horiz-adv-x="674" 
d="M471 173h-302l-89 -173h-103l366 700h96l170 -700h-98zM451 259l-74 318l-164 -318h238zM373 749l-108 154h98l88 -154h-78z" />
    <glyph glyph-name="Amacron" unicode="&#x100;" horiz-adv-x="674" 
d="M471 173h-302l-89 -173h-103l366 700h96l170 -700h-98zM451 259l-74 318l-164 -318h238zM260 854h315l-10 -60h-316z" />
    <glyph glyph-name="Aogonek" unicode="&#x104;" horiz-adv-x="674" 
d="M471 173h-302l-89 -173h-103l366 700h96l170 -700h-98zM451 259l-74 318l-164 -318h238zM399 -120q0 78 156 150l53 -10q-65 -38 -96 -67t-31 -56q0 -15 10 -23.5t29 -8.5q35 0 70 28l18 -57q-22 -15 -51.5 -24t-56.5 -9q-45 0 -73 21t-28 56z" />
    <glyph glyph-name="Aring" unicode="&#xc5;" horiz-adv-x="674" 
d="M471 173h-302l-89 -173h-103l366 700h96l170 -700h-98zM451 259l-74 318l-164 -318h238zM301 833q0 48 36 82.5t86 34.5q46 0 77 -29.5t31 -73.5q0 -49 -36 -83.5t-86 -34.5q-46 0 -77 30t-31 74zM476 845q0 23 -16 39.5t-39 16.5q-26 0 -45.5 -20t-19.5 -47
q0 -24 15.5 -40t39.5 -16q26 0 45.5 20t19.5 47z" />
    <glyph glyph-name="Aringacute" unicode="&#x1fa;" horiz-adv-x="674" 
d="M471 173h-302l-89 -173h-103l366 700h96l170 -700h-98zM451 259l-74 318l-164 -318h238zM284 756q0 48 36 82.5t86 34.5q46 0 77 -29.5t31 -73.5q0 -49 -36 -83.5t-86 -34.5q-46 0 -77 30t-31 74zM459 768q0 23 -16 39.5t-39 16.5q-26 0 -45.5 -20t-19.5 -47
q0 -24 15.5 -40t39.5 -16q26 0 45.5 20t19.5 47zM469 1052h101l-133 -154h-80z" />
    <glyph glyph-name="Atilde" unicode="&#xc3;" horiz-adv-x="674" 
d="M471 173h-302l-89 -173h-103l366 700h96l170 -700h-98zM451 259l-74 318l-164 -318h238zM398 798q-13 12 -23 18t-23 6q-20 0 -34 -14t-19 -37h-65q10 57 41.5 86t76.5 29q28 0 44 -8.5t34 -25.5q13 -13 22 -18.5t22 -5.5q20 0 34 14t20 37h64q-10 -56 -41.5 -85.5
t-76.5 -29.5q-27 0 -43.5 9t-32.5 25z" />
    <glyph glyph-name="AE" unicode="&#xc6;" horiz-adv-x="947" 
d="M627 612l-38 -212h227l-16 -88h-226l-40 -224h346l-16 -88h-439l31 174h-242l-126 -174h-111l516 700h489l-16 -88h-339zM471 261l62 355l-256 -355h194z" />
    <glyph glyph-name="AEacute" unicode="&#x1fc;" horiz-adv-x="947" 
d="M627 612l-38 -212h227l-16 -88h-226l-40 -224h346l-16 -88h-439l31 174h-242l-126 -174h-111l516 700h489l-16 -88h-339zM471 261l62 355l-256 -355h194zM720 903h101l-133 -154h-80z" />
    <glyph glyph-name="B" unicode="B" horiz-adv-x="613" 
d="M573 214q0 -59 -27.5 -108t-75.5 -77.5t-108 -28.5h-322l123 700h93l-8 -45q86 52 165 52q51 0 92 -21.5t64 -59t23 -85.5q0 -55 -28 -103.5t-75 -73.5q39 -18 61.5 -57.5t22.5 -92.5zM232 565l-28 -160h150q41 0 74 16t51.5 44t18.5 62q0 43 -28.5 69t-77.5 26
q-80 0 -160 -57zM480 220q0 49 -30 76t-81 27h-179l-42 -235h203q37 0 66.5 18t46 48.5t16.5 65.5z" />
    <glyph glyph-name="C" unicode="C" horiz-adv-x="672" 
d="M64 315q0 112 46.5 203.5t128.5 143.5t183 52q151 0 239 -133l-75 -52q-60 96 -169 96q-72 0 -131 -40.5t-93 -111t-34 -155.5q0 -71 26.5 -126t74 -86t108.5 -31q55 0 98.5 22.5t79.5 70.5l71 -55q-100 -127 -253 -127q-86 0 -154.5 42.5t-107 117.5t-38.5 169z" />
    <glyph glyph-name="Cacute" unicode="&#x106;" horiz-adv-x="672" 
d="M64 315q0 112 46.5 203.5t128.5 143.5t183 52q151 0 239 -133l-75 -52q-60 96 -169 96q-72 0 -131 -40.5t-93 -111t-34 -155.5q0 -71 26.5 -126t74 -86t108.5 -31q55 0 98.5 22.5t79.5 70.5l71 -55q-100 -127 -253 -127q-86 0 -154.5 42.5t-107 117.5t-38.5 169zM481 903
h101l-133 -154h-80z" />
    <glyph glyph-name="Ccaron" unicode="&#x10c;" horiz-adv-x="672" 
d="M64 315q0 112 46.5 203.5t128.5 143.5t183 52q151 0 239 -133l-75 -52q-60 96 -169 96q-72 0 -131 -40.5t-93 -111t-34 -155.5q0 -71 26.5 -126t74 -86t108.5 -31q55 0 98.5 22.5t79.5 70.5l71 -55q-100 -127 -253 -127q-86 0 -154.5 42.5t-107 117.5t-38.5 169zM610 903
l-141 -154h-94l-97 154h79l69 -98l96 98h88z" />
    <glyph glyph-name="Ccedilla" unicode="&#xc7;" horiz-adv-x="672" 
d="M64 315q0 112 46.5 203.5t128.5 143.5t183 52q151 0 239 -133l-75 -52q-60 96 -169 96q-72 0 -131 -40.5t-93 -111t-34 -155.5q0 -71 26.5 -126t74 -86t108.5 -31q55 0 98.5 22.5t79.5 70.5l71 -55q-100 -127 -253 -127q-86 0 -154.5 42.5t-107 117.5t-38.5 169z
M459 -110q0 -38 -32 -61.5t-84 -23.5q-55 0 -92 31l27 34q11 -10 27.5 -15.5t31.5 -5.5q23 0 38.5 12.5t15.5 31.5q0 13 -8 21t-21 8q-24 0 -43 -21l-1 1l-40 12l53 101h45l-30 -60q18 5 34 5q36 0 57.5 -19t21.5 -51z" />
    <glyph glyph-name="Ccircumflex" unicode="&#x108;" horiz-adv-x="672" 
d="M64 315q0 112 46.5 203.5t128.5 143.5t183 52q151 0 239 -133l-75 -52q-60 96 -169 96q-72 0 -131 -40.5t-93 -111t-34 -155.5q0 -71 26.5 -126t74 -86t108.5 -31q55 0 98.5 22.5t79.5 70.5l71 -55q-100 -127 -253 -127q-86 0 -154.5 42.5t-107 117.5t-38.5 169zM508 749
l-69 98l-96 -98h-88l141 154h94l97 -154h-79z" />
    <glyph glyph-name="Cdotaccent" unicode="&#x10a;" horiz-adv-x="672" 
d="M64 315q0 112 46.5 203.5t128.5 143.5t183 52q151 0 239 -133l-75 -52q-60 96 -169 96q-72 0 -131 -40.5t-93 -111t-34 -155.5q0 -71 26.5 -126t74 -86t108.5 -31q55 0 98.5 22.5t79.5 70.5l71 -55q-100 -127 -253 -127q-86 0 -154.5 42.5t-107 117.5t-38.5 169zM411 890
h89l-22 -127h-89z" />
    <glyph glyph-name="D" unicode="D" horiz-adv-x="685" 
d="M656 388q0 -111 -47.5 -199.5t-131 -138.5t-186.5 -50h-251l123 700h193q86 0 154 -38t107 -109t39 -165zM560 384q0 107 -57.5 167.5t-151.5 60.5h-110l-92 -524h147q73 0 133.5 39t95.5 106.5t35 150.5z" />
    <glyph glyph-name="Eth" unicode="&#xd0;" horiz-adv-x="685" 
d="M656 388q0 -111 -47.5 -199.5t-131 -138.5t-186.5 -50h-251l123 700h193q86 0 154 -38t107 -109t39 -165zM560 384q0 107 -57.5 167.5t-151.5 60.5h-110l-92 -524h147q73 0 133.5 39t95.5 106.5t35 150.5zM34 382h316l-10 -64h-316z" />
    <glyph glyph-name="Dcaron" unicode="&#x10e;" horiz-adv-x="685" 
d="M656 388q0 -111 -47.5 -199.5t-131 -138.5t-186.5 -50h-251l123 700h193q86 0 154 -38t107 -109t39 -165zM560 384q0 107 -57.5 167.5t-151.5 60.5h-110l-92 -524h147q73 0 133.5 39t95.5 106.5t35 150.5zM570 903l-141 -154h-94l-97 154h79l69 -98l96 98h88z" />
    <glyph glyph-name="Dcroat" unicode="&#x110;" horiz-adv-x="685" 
d="M656 388q0 -111 -47.5 -199.5t-131 -138.5t-186.5 -50h-251l123 700h193q86 0 154 -38t107 -109t39 -165zM560 384q0 107 -57.5 167.5t-151.5 60.5h-110l-92 -524h147q73 0 133.5 39t95.5 106.5t35 150.5zM34 382h316l-10 -64h-316z" />
    <glyph glyph-name="E" unicode="E" horiz-adv-x="574" 
d="M241 612l-37 -212h239l-15 -88h-240l-39 -224h358l-15 -88h-452l124 700h445l-15 -88h-353z" />
    <glyph glyph-name="Eacute" unicode="&#xc9;" horiz-adv-x="574" 
d="M241 612l-37 -212h239l-15 -88h-240l-39 -224h358l-15 -88h-452l124 700h445l-15 -88h-353zM439 903h101l-133 -154h-80z" />
    <glyph glyph-name="Ebreve" unicode="&#x114;" horiz-adv-x="574" 
d="M241 612l-37 -212h239l-15 -88h-240l-39 -224h358l-15 -88h-452l124 700h445l-15 -88h-353zM239 903h64q3 -38 29.5 -62t63.5 -24q38 0 66 23.5t37 62.5h67q-12 -66 -59.5 -107.5t-112.5 -41.5q-66 0 -109.5 42t-45.5 107z" />
    <glyph glyph-name="Ecaron" unicode="&#x11a;" horiz-adv-x="574" 
d="M241 612l-37 -212h239l-15 -88h-240l-39 -224h358l-15 -88h-452l124 700h445l-15 -88h-353zM568 903l-141 -154h-94l-97 154h79l69 -98l96 98h88z" />
    <glyph glyph-name="Ecircumflex" unicode="&#xca;" horiz-adv-x="574" 
d="M241 612l-37 -212h239l-15 -88h-240l-39 -224h358l-15 -88h-452l124 700h445l-15 -88h-353zM466 749l-69 98l-96 -98h-88l141 154h94l97 -154h-79z" />
    <glyph glyph-name="Edieresis" unicode="&#xcb;" horiz-adv-x="574" 
d="M241 612l-37 -212h239l-15 -88h-240l-39 -224h358l-15 -88h-452l124 700h445l-15 -88h-353zM256 890h87l-23 -127h-86zM485 890h86l-22 -127h-86z" />
    <glyph glyph-name="Edotaccent" unicode="&#x116;" horiz-adv-x="574" 
d="M241 612l-37 -212h239l-15 -88h-240l-39 -224h358l-15 -88h-452l124 700h445l-15 -88h-353zM369 890h89l-22 -127h-89z" />
    <glyph glyph-name="Egrave" unicode="&#xc8;" horiz-adv-x="574" 
d="M241 612l-37 -212h239l-15 -88h-240l-39 -224h358l-15 -88h-452l124 700h445l-15 -88h-353zM362 749l-108 154h98l88 -154h-78z" />
    <glyph glyph-name="Emacron" unicode="&#x112;" horiz-adv-x="574" 
d="M241 612l-37 -212h239l-15 -88h-240l-39 -224h358l-15 -88h-452l124 700h445l-15 -88h-353zM249 854h315l-10 -60h-316z" />
    <glyph glyph-name="Eogonek" unicode="&#x118;" horiz-adv-x="574" 
d="M241 612l-37 -212h239l-15 -88h-240l-39 -224h358l-15 -88h-452l124 700h445l-15 -88h-353zM280 -120q0 78 156 150l53 -10q-65 -38 -96 -67t-31 -56q0 -15 10 -23.5t29 -8.5q35 0 70 28l18 -57q-22 -15 -51.5 -24t-56.5 -9q-45 0 -73 21t-28 56z" />
    <glyph glyph-name="F" unicode="F" horiz-adv-x="564" 
d="M241 612l-39 -222h262l-16 -88h-262l-53 -302h-93l124 700h454l-15 -88h-362z" />
    <glyph glyph-name="G" unicode="G" horiz-adv-x="716" 
d="M685 374q0 -32 -3 -56q-12 -96 -52 -171t-107.5 -118t-158.5 -43q-85 0 -153.5 42.5t-107 117.5t-38.5 170q0 113 46.5 203.5t129 142.5t184.5 52q75 0 135.5 -33.5t103.5 -99.5l-75 -52q-59 96 -169 96q-72 0 -131.5 -40.5t-94 -110.5t-34.5 -155q0 -71 26.5 -126.5
t74 -86.5t108.5 -31q87 0 141 58.5t71 161.5h-190l13 79h281z" />
    <glyph glyph-name="Gbreve" unicode="&#x11e;" horiz-adv-x="716" 
d="M685 374q0 -32 -3 -56q-12 -96 -52 -171t-107.5 -118t-158.5 -43q-85 0 -153.5 42.5t-107 117.5t-38.5 170q0 113 46.5 203.5t129 142.5t184.5 52q75 0 135.5 -33.5t103.5 -99.5l-75 -52q-59 96 -169 96q-72 0 -131.5 -40.5t-94 -110.5t-34.5 -155q0 -71 26.5 -126.5
t74 -86.5t108.5 -31q87 0 141 58.5t71 161.5h-190l13 79h281zM279 903h64q3 -38 29.5 -62t63.5 -24q38 0 66 23.5t37 62.5h67q-12 -66 -59.5 -107.5t-112.5 -41.5q-66 0 -109.5 42t-45.5 107z" />
    <glyph glyph-name="Gcircumflex" unicode="&#x11c;" horiz-adv-x="716" 
d="M685 374q0 -32 -3 -56q-12 -96 -52 -171t-107.5 -118t-158.5 -43q-85 0 -153.5 42.5t-107 117.5t-38.5 170q0 113 46.5 203.5t129 142.5t184.5 52q75 0 135.5 -33.5t103.5 -99.5l-75 -52q-59 96 -169 96q-72 0 -131.5 -40.5t-94 -110.5t-34.5 -155q0 -71 26.5 -126.5
t74 -86.5t108.5 -31q87 0 141 58.5t71 161.5h-190l13 79h281zM506 749l-69 98l-96 -98h-88l141 154h94l97 -154h-79z" />
    <glyph glyph-name="uni0122" unicode="&#x122;" horiz-adv-x="716" 
d="M685 374q0 -32 -3 -56q-12 -96 -52 -171t-107.5 -118t-158.5 -43q-85 0 -153.5 42.5t-107 117.5t-38.5 170q0 113 46.5 203.5t129 142.5t184.5 52q75 0 135.5 -33.5t103.5 -99.5l-75 -52q-59 96 -169 96q-72 0 -131.5 -40.5t-94 -110.5t-34.5 -155q0 -71 26.5 -126.5
t74 -86.5t108.5 -31q87 0 141 58.5t71 161.5h-190l13 79h281zM300 -48h85l-65 -173h-67z" />
    <glyph glyph-name="Gdotaccent" unicode="&#x120;" horiz-adv-x="716" 
d="M685 374q0 -32 -3 -56q-12 -96 -52 -171t-107.5 -118t-158.5 -43q-85 0 -153.5 42.5t-107 117.5t-38.5 170q0 113 46.5 203.5t129 142.5t184.5 52q75 0 135.5 -33.5t103.5 -99.5l-75 -52q-59 96 -169 96q-72 0 -131.5 -40.5t-94 -110.5t-34.5 -155q0 -71 26.5 -126.5
t74 -86.5t108.5 -31q87 0 141 58.5t71 161.5h-190l13 79h281zM409 890h89l-22 -127h-89z" />
    <glyph glyph-name="H" unicode="H" horiz-adv-x="707" 
d="M703 700l-124 -700h-94l56 316h-352l-56 -316h-93l124 700h93l-52 -296h352l52 296h94z" />
    <glyph glyph-name="Hbar" unicode="&#x126;" horiz-adv-x="707" 
d="M703 700l-124 -700h-94l56 316h-352l-56 -316h-93l124 700h93l-52 -296h352l52 296h94zM61 583h703l-11 -59h-703z" />
    <glyph glyph-name="Hcircumflex" unicode="&#x124;" horiz-adv-x="707" 
d="M703 700l-124 -700h-94l56 316h-352l-56 -316h-93l124 700h93l-52 -296h352l52 296h94zM520 749l-69 98l-96 -98h-88l141 154h94l97 -154h-79z" />
    <glyph glyph-name="I" unicode="I" horiz-adv-x="262" 
d="M164 700h93l-124 -700h-93z" />
    <glyph glyph-name="IJ" unicode="&#x132;" horiz-adv-x="728" 
d="M164 700h93l-124 -700h-93zM250 59l53 72q22 -25 53.5 -40.5t65.5 -15.5q57 0 88.5 35.5t43.5 106.5l86 483h93l-87 -494q-19 -109 -74 -164.5t-151 -55.5q-50 0 -94.5 19.5t-76.5 53.5z" />
    <glyph glyph-name="Iacute" unicode="&#xcd;" horiz-adv-x="262" 
d="M164 700h93l-124 -700h-93zM269 903h101l-133 -154h-80z" />
    <glyph glyph-name="Ibreve" unicode="&#x12c;" horiz-adv-x="262" 
d="M164 700h93l-124 -700h-93zM69 903h64q3 -38 29.5 -62t63.5 -24q38 0 66 23.5t37 62.5h67q-12 -66 -59.5 -107.5t-112.5 -41.5q-66 0 -109.5 42t-45.5 107z" />
    <glyph glyph-name="Icircumflex" unicode="&#xce;" horiz-adv-x="262" 
d="M164 700h93l-124 -700h-93zM296 749l-69 98l-96 -98h-88l141 154h94l97 -154h-79z" />
    <glyph glyph-name="Idieresis" unicode="&#xcf;" horiz-adv-x="262" 
d="M164 700h93l-124 -700h-93zM86 890h87l-23 -127h-86zM315 890h86l-22 -127h-86z" />
    <glyph glyph-name="Idotaccent" unicode="&#x130;" horiz-adv-x="262" 
d="M164 700h93l-124 -700h-93zM199 890h89l-22 -127h-89z" />
    <glyph glyph-name="Igrave" unicode="&#xcc;" horiz-adv-x="262" 
d="M164 700h93l-124 -700h-93zM192 749l-108 154h98l88 -154h-78z" />
    <glyph glyph-name="Imacron" unicode="&#x12a;" horiz-adv-x="262" 
d="M164 700h93l-124 -700h-93zM79 854h315l-10 -60h-316z" />
    <glyph glyph-name="Iogonek" unicode="&#x12e;" horiz-adv-x="262" 
d="M164 700h93l-124 -700h-93zM-53 -124q0 36 32.5 71.5t107.5 78.5l49 -7q-57 -43 -82.5 -71t-25.5 -54q0 -29 35 -29q27 0 50 20l19 -56q-18 -13 -41 -19.5t-47 -6.5q-43 0 -70 20.5t-27 52.5z" />
    <glyph glyph-name="Itilde" unicode="&#x128;" horiz-adv-x="262" 
d="M164 700h93l-124 -700h-93zM217 798q-13 12 -23 18t-23 6q-20 0 -34 -14t-19 -37h-65q10 57 41.5 86t76.5 29q28 0 44 -8.5t34 -25.5q13 -13 22 -18.5t22 -5.5q20 0 34 14t20 37h64q-10 -56 -41.5 -85.5t-76.5 -29.5q-27 0 -43.5 9t-32.5 25z" />
    <glyph glyph-name="J" unicode="J" horiz-adv-x="466" 
d="M-12 59l53 72q22 -25 53.5 -40.5t65.5 -15.5q57 0 88.5 35.5t43.5 106.5l86 483h93l-87 -494q-19 -109 -74 -164.5t-151 -55.5q-50 0 -94.5 19.5t-76.5 53.5z" />
    <glyph glyph-name="Jcircumflex" unicode="&#x134;" horiz-adv-x="466" 
d="M-12 59l53 72q22 -25 53.5 -40.5t65.5 -15.5q57 0 88.5 35.5t43.5 106.5l86 483h93l-87 -494q-19 -109 -74 -164.5t-151 -55.5q-50 0 -94.5 19.5t-76.5 53.5zM510 749l-69 98l-96 -98h-88l141 154h94l97 -154h-79z" />
    <glyph glyph-name="K" unicode="K" horiz-adv-x="582" 
d="M376 329l140 -307l-88 -32l-139 320h-114l-54 -310h-94l124 700h93l-53 -302h89q76 0 136 80t90 222h95q-32 -144 -90.5 -239.5t-134.5 -131.5z" />
    <glyph glyph-name="uni0136" unicode="&#x136;" horiz-adv-x="582" 
d="M376 329l140 -307l-88 -32l-139 320h-114l-54 -310h-94l124 700h93l-53 -302h89q76 0 136 80t90 222h95q-32 -144 -90.5 -239.5t-134.5 -131.5zM201 -48h85l-65 -173h-67z" />
    <glyph glyph-name="L" unicode="L" horiz-adv-x="536" 
d="M480 88l-15 -88h-425l124 700h93l-108 -612h331z" />
    <glyph glyph-name="Lacute" unicode="&#x139;" horiz-adv-x="536" 
d="M480 88l-15 -88h-425l124 700h93l-108 -612h331zM269 903h101l-133 -154h-80z" />
    <glyph glyph-name="Lcaron" unicode="&#x13d;" horiz-adv-x="536" 
d="M480 88l-15 -88h-425l124 700h93l-108 -612h331zM411 701h79l-58 -233h-63z" />
    <glyph glyph-name="uni013B" unicode="&#x13b;" horiz-adv-x="536" 
d="M480 88l-15 -88h-425l124 700h93l-108 -612h331zM180 -48h85l-65 -173h-67z" />
    <glyph glyph-name="Ldot" unicode="&#x13f;" horiz-adv-x="536" 
d="M480 88l-15 -88h-425l124 700h93l-108 -612h331zM391 463h89l-22 -127h-89z" />
    <glyph glyph-name="Lslash" unicode="&#x141;" horiz-adv-x="536" 
d="M480 88l-15 -88h-425l124 700h93l-108 -612h331zM443 507l-14 -81l-304 -91l1 7l-115 -35l14 81l116 34l-2 -11l1 5z" />
    <glyph glyph-name="M" unicode="M" horiz-adv-x="833" 
d="M828 700l-124 -700h-93l92 526l-252 -347h-88l-136 351l-94 -530h-93l124 700h95l158 -423l302 423h109z" />
    <glyph glyph-name="N" unicode="N" horiz-adv-x="706" 
d="M702 700l-124 -700h-95l-254 545l-96 -545h-93l124 700h95l253 -543l96 543h94z" />
    <glyph glyph-name="Nacute" unicode="&#x143;" horiz-adv-x="706" 
d="M702 700l-124 -700h-95l-254 545l-96 -545h-93l124 700h95l253 -543l96 543h94zM491 903h101l-133 -154h-80z" />
    <glyph glyph-name="Ncaron" unicode="&#x147;" horiz-adv-x="706" 
d="M702 700l-124 -700h-95l-254 545l-96 -545h-93l124 700h95l253 -543l96 543h94zM620 903l-141 -154h-94l-97 154h79l69 -98l96 98h88z" />
    <glyph glyph-name="uni0145" unicode="&#x145;" horiz-adv-x="706" 
d="M702 700l-124 -700h-95l-254 545l-96 -545h-93l124 700h95l253 -543l96 543h94zM265 -48h85l-65 -173h-67z" />
    <glyph glyph-name="Eng" unicode="&#x14a;" horiz-adv-x="707" 
d="M290 -174l27 74q17 -8 38 -13t38 -5q33 0 55 19.5t29 55.5l8 43l-256 542l-96 -542h-93l124 700h95l254 -544l95 544h94l-134 -757q-12 -68 -56.5 -104.5t-113.5 -36.5q-51 0 -108 24z" />
    <glyph glyph-name="Ntilde" unicode="&#xd1;" horiz-adv-x="706" 
d="M702 700l-124 -700h-95l-254 545l-96 -545h-93l124 700h95l253 -543l96 543h94zM439 798q-13 12 -23 18t-23 6q-20 0 -34 -14t-19 -37h-65q10 57 41.5 86t76.5 29q28 0 44 -8.5t34 -25.5q13 -13 22 -18.5t22 -5.5q20 0 34 14t20 37h64q-10 -56 -41.5 -85.5t-76.5 -29.5
q-27 0 -43.5 9t-32.5 25z" />
    <glyph glyph-name="O" unicode="O" horiz-adv-x="756" 
d="M64 315q0 112 47.5 203t130.5 143.5t185 52.5q86 0 154 -42t106.5 -117t38.5 -170q0 -112 -47.5 -203.5t-130 -143.5t-183.5 -52q-86 0 -154.5 42t-107.5 117t-39 170zM631 382q0 71 -26.5 126.5t-74 86t-108.5 30.5q-73 0 -133 -40.5t-94.5 -110.5t-34.5 -156
q0 -71 26.5 -126.5t74 -86t108.5 -30.5q73 0 133 40.5t94.5 111t34.5 155.5z" />
    <glyph glyph-name="Oacute" unicode="&#xd3;" horiz-adv-x="756" 
d="M64 315q0 112 47.5 203t130.5 143.5t185 52.5q86 0 154 -42t106.5 -117t38.5 -170q0 -112 -47.5 -203.5t-130 -143.5t-183.5 -52q-86 0 -154.5 42t-107.5 117t-39 170zM631 382q0 71 -26.5 126.5t-74 86t-108.5 30.5q-73 0 -133 -40.5t-94.5 -110.5t-34.5 -156
q0 -71 26.5 -126.5t74 -86t108.5 -30.5q73 0 133 40.5t94.5 111t34.5 155.5zM486 903h101l-133 -154h-80z" />
    <glyph glyph-name="Obreve" unicode="&#x14e;" horiz-adv-x="756" 
d="M64 315q0 112 47.5 203t130.5 143.5t185 52.5q86 0 154 -42t106.5 -117t38.5 -170q0 -112 -47.5 -203.5t-130 -143.5t-183.5 -52q-86 0 -154.5 42t-107.5 117t-39 170zM631 382q0 71 -26.5 126.5t-74 86t-108.5 30.5q-73 0 -133 -40.5t-94.5 -110.5t-34.5 -156
q0 -71 26.5 -126.5t74 -86t108.5 -30.5q73 0 133 40.5t94.5 111t34.5 155.5zM286 903h64q3 -38 29.5 -62t63.5 -24q38 0 66 23.5t37 62.5h67q-12 -66 -59.5 -107.5t-112.5 -41.5q-66 0 -109.5 42t-45.5 107z" />
    <glyph glyph-name="Ocircumflex" unicode="&#xd4;" horiz-adv-x="756" 
d="M64 315q0 112 47.5 203t130.5 143.5t185 52.5q86 0 154 -42t106.5 -117t38.5 -170q0 -112 -47.5 -203.5t-130 -143.5t-183.5 -52q-86 0 -154.5 42t-107.5 117t-39 170zM631 382q0 71 -26.5 126.5t-74 86t-108.5 30.5q-73 0 -133 -40.5t-94.5 -110.5t-34.5 -156
q0 -71 26.5 -126.5t74 -86t108.5 -30.5q73 0 133 40.5t94.5 111t34.5 155.5zM513 749l-69 98l-96 -98h-88l141 154h94l97 -154h-79z" />
    <glyph glyph-name="Odieresis" unicode="&#xd6;" horiz-adv-x="756" 
d="M64 315q0 112 47.5 203t130.5 143.5t185 52.5q86 0 154 -42t106.5 -117t38.5 -170q0 -112 -47.5 -203.5t-130 -143.5t-183.5 -52q-86 0 -154.5 42t-107.5 117t-39 170zM631 382q0 71 -26.5 126.5t-74 86t-108.5 30.5q-73 0 -133 -40.5t-94.5 -110.5t-34.5 -156
q0 -71 26.5 -126.5t74 -86t108.5 -30.5q73 0 133 40.5t94.5 111t34.5 155.5zM303 890h87l-23 -127h-86zM532 890h86l-22 -127h-86z" />
    <glyph glyph-name="Ograve" unicode="&#xd2;" horiz-adv-x="756" 
d="M64 315q0 112 47.5 203t130.5 143.5t185 52.5q86 0 154 -42t106.5 -117t38.5 -170q0 -112 -47.5 -203.5t-130 -143.5t-183.5 -52q-86 0 -154.5 42t-107.5 117t-39 170zM631 382q0 71 -26.5 126.5t-74 86t-108.5 30.5q-73 0 -133 -40.5t-94.5 -110.5t-34.5 -156
q0 -71 26.5 -126.5t74 -86t108.5 -30.5q73 0 133 40.5t94.5 111t34.5 155.5zM409 749l-108 154h98l88 -154h-78z" />
    <glyph glyph-name="Ohungarumlaut" unicode="&#x150;" horiz-adv-x="756" 
d="M64 315q0 112 47.5 203t130.5 143.5t185 52.5q86 0 154 -42t106.5 -117t38.5 -170q0 -112 -47.5 -203.5t-130 -143.5t-183.5 -52q-86 0 -154.5 42t-107.5 117t-39 170zM631 382q0 71 -26.5 126.5t-74 86t-108.5 30.5q-73 0 -133 -40.5t-94.5 -110.5t-34.5 -156
q0 -71 26.5 -126.5t74 -86t108.5 -30.5q73 0 133 40.5t94.5 111t34.5 155.5zM595 903h101l-133 -154h-80zM387 903h101l-133 -154h-80z" />
    <glyph glyph-name="Omacron" unicode="&#x14c;" horiz-adv-x="756" 
d="M64 315q0 112 47.5 203t130.5 143.5t185 52.5q86 0 154 -42t106.5 -117t38.5 -170q0 -112 -47.5 -203.5t-130 -143.5t-183.5 -52q-86 0 -154.5 42t-107.5 117t-39 170zM631 382q0 71 -26.5 126.5t-74 86t-108.5 30.5q-73 0 -133 -40.5t-94.5 -110.5t-34.5 -156
q0 -71 26.5 -126.5t74 -86t108.5 -30.5q73 0 133 40.5t94.5 111t34.5 155.5zM296 854h315l-10 -60h-316z" />
    <glyph glyph-name="Oslash" unicode="&#xd8;" horiz-adv-x="756" 
d="M64 315q0 112 47.5 203t130.5 143.5t185 52.5q86 0 154 -42t106.5 -117t38.5 -170q0 -112 -47.5 -203.5t-130 -143.5t-183.5 -52q-86 0 -154.5 42t-107.5 117t-39 170zM631 382q0 71 -26.5 126.5t-74 86t-108.5 30.5q-73 0 -133 -40.5t-94.5 -110.5t-34.5 -156
q0 -71 26.5 -126.5t74 -86t108.5 -30.5q73 0 133 40.5t94.5 111t34.5 155.5zM-17 42l781 666l43 -50l-781 -666z" />
    <glyph glyph-name="Oslashacute" unicode="&#x1fe;" horiz-adv-x="756" 
d="M64 315q0 112 47.5 203t130.5 143.5t185 52.5q86 0 154 -42t106.5 -117t38.5 -170q0 -112 -47.5 -203.5t-130 -143.5t-183.5 -52q-86 0 -154.5 42t-107.5 117t-39 170zM631 382q0 71 -26.5 126.5t-74 86t-108.5 30.5q-73 0 -133 -40.5t-94.5 -110.5t-34.5 -156
q0 -71 26.5 -126.5t74 -86t108.5 -30.5q73 0 133 40.5t94.5 111t34.5 155.5zM-17 42l781 666l43 -50l-781 -666zM447 903h101l-133 -154h-80z" />
    <glyph glyph-name="Otilde" unicode="&#xd5;" horiz-adv-x="756" 
d="M64 315q0 112 47.5 203t130.5 143.5t185 52.5q86 0 154 -42t106.5 -117t38.5 -170q0 -112 -47.5 -203.5t-130 -143.5t-183.5 -52q-86 0 -154.5 42t-107.5 117t-39 170zM631 382q0 71 -26.5 126.5t-74 86t-108.5 30.5q-73 0 -133 -40.5t-94.5 -110.5t-34.5 -156
q0 -71 26.5 -126.5t74 -86t108.5 -30.5q73 0 133 40.5t94.5 111t34.5 155.5zM434 798q-13 12 -23 18t-23 6q-20 0 -34 -14t-19 -37h-65q10 57 41.5 86t76.5 29q28 0 44 -8.5t34 -25.5q13 -13 22 -18.5t22 -5.5q20 0 34 14t20 37h64q-10 -56 -41.5 -85.5t-76.5 -29.5
q-27 0 -43.5 9t-32.5 25z" />
    <glyph glyph-name="OE" unicode="&#x152;" horiz-adv-x="972" 
d="M651 612l-37 -212h227l-16 -88h-227l-39 -224h346l-16 -88h-526q-86 0 -154 38t-106.5 108.5t-38.5 165.5q0 111 47.5 199.5t130.5 138.5t186 50h579l-16 -88h-340zM557 612h-133q-73 0 -134 -39t-96 -106.5t-35 -150.5q0 -107 57.5 -167.5t151.5 -60.5h97z" />
    <glyph glyph-name="P" unicode="P" 
d="M619 487q0 -77 -35 -138.5t-98.5 -96.5t-145.5 -35h-182l-38 -217h-94l124 700h245q100 0 162 -57t62 -156zM522 482q0 63 -38.5 96.5t-106.5 33.5h-149l-55 -311h158q56 0 99.5 23.5t67.5 64.5t24 93z" />
    <glyph glyph-name="Thorn" unicode="&#xde;" horiz-adv-x="611" 
d="M610 379q0 -78 -35 -139.5t-98.5 -96.5t-145.5 -35h-179l-19 -108h-93l124 700h93l-19 -108h148q66 0 116.5 -25.5t79 -73.5t28.5 -114zM513 373q0 63 -38.5 97t-106.5 34h-146l-55 -312h155q56 0 99.5 23.5t67.5 64.5t24 93z" />
    <glyph glyph-name="Q" unicode="Q" horiz-adv-x="756" 
d="M607 84l55 -82l-66 -50l-55 81q-81 -47 -176 -47q-86 0 -154.5 42t-107.5 117t-39 170q0 112 47.5 203t130.5 143.5t185 52.5q86 0 154 -42t106.5 -117t38.5 -170q0 -91 -31.5 -168.5t-87.5 -132.5zM490 108l-117 173l67 50l114 -169q37 42 57 99t20 121
q0 71 -26.5 126.5t-74 86t-108.5 30.5q-73 0 -133 -40.5t-94.5 -110.5t-34.5 -156q0 -71 26.5 -126.5t74 -86t108.5 -30.5q64 0 121 33z" />
    <glyph glyph-name="R" unicode="R" horiz-adv-x="592" 
d="M397 297l124 -275l-87 -32l-127 289l-142 -28l-44 -251h-94l124 700h265q81 0 131.5 -48t50.5 -126q0 -83 -54.5 -146.5t-146.5 -82.5zM501 517q0 44 -27.5 69.5t-75.5 25.5h-169l-48 -269l196 37q57 11 90.5 49t33.5 88z" />
    <glyph glyph-name="Racute" unicode="&#x154;" horiz-adv-x="592" 
d="M397 297l124 -275l-87 -32l-127 289l-142 -28l-44 -251h-94l124 700h265q81 0 131.5 -48t50.5 -126q0 -83 -54.5 -146.5t-146.5 -82.5zM501 517q0 44 -27.5 69.5t-75.5 25.5h-169l-48 -269l196 37q57 11 90.5 49t33.5 88zM433 903h101l-133 -154h-80z" />
    <glyph glyph-name="Rcaron" unicode="&#x158;" horiz-adv-x="592" 
d="M397 297l124 -275l-87 -32l-127 289l-142 -28l-44 -251h-94l124 700h265q81 0 131.5 -48t50.5 -126q0 -83 -54.5 -146.5t-146.5 -82.5zM501 517q0 44 -27.5 69.5t-75.5 25.5h-169l-48 -269l196 37q57 11 90.5 49t33.5 88zM562 903l-141 -154h-94l-97 154h79l69 -98l96 98
h88z" />
    <glyph glyph-name="uni0156" unicode="&#x156;" horiz-adv-x="592" 
d="M397 297l124 -275l-87 -32l-127 289l-142 -28l-44 -251h-94l124 700h265q81 0 131.5 -48t50.5 -126q0 -83 -54.5 -146.5t-146.5 -82.5zM501 517q0 44 -27.5 69.5t-75.5 25.5h-169l-48 -269l196 37q57 11 90.5 49t33.5 88zM208 -48h85l-65 -173h-67z" />
    <glyph glyph-name="S" unicode="S" horiz-adv-x="608" 
d="M19 92l64 65q37 -40 89.5 -62.5t118.5 -22.5q78 0 123.5 31.5t45.5 86.5q0 52 -36 77.5t-104 38.5q-224 41 -224 197q0 102 71.5 156.5t187.5 54.5q70 0 130 -26t98 -69l-62 -63q-30 33 -74 52.5t-96 19.5q-72 0 -116.5 -31.5t-44.5 -85.5t42.5 -81t116.5 -40
q91 -16 148 -60.5t57 -134.5q0 -103 -74.5 -156t-192.5 -53q-84 0 -154.5 29.5t-113.5 76.5z" />
    <glyph glyph-name="Sacute" unicode="&#x15a;" horiz-adv-x="608" 
d="M19 92l64 65q37 -40 89.5 -62.5t118.5 -22.5q78 0 123.5 31.5t45.5 86.5q0 52 -36 77.5t-104 38.5q-224 41 -224 197q0 102 71.5 156.5t187.5 54.5q70 0 130 -26t98 -69l-62 -63q-30 33 -74 52.5t-96 19.5q-72 0 -116.5 -31.5t-44.5 -85.5t42.5 -81t116.5 -40
q91 -16 148 -60.5t57 -134.5q0 -103 -74.5 -156t-192.5 -53q-84 0 -154.5 29.5t-113.5 76.5zM409 903h101l-133 -154h-80z" />
    <glyph glyph-name="Scaron" unicode="&#x160;" horiz-adv-x="608" 
d="M19 92l64 65q37 -40 89.5 -62.5t118.5 -22.5q78 0 123.5 31.5t45.5 86.5q0 52 -36 77.5t-104 38.5q-224 41 -224 197q0 102 71.5 156.5t187.5 54.5q70 0 130 -26t98 -69l-62 -63q-30 33 -74 52.5t-96 19.5q-72 0 -116.5 -31.5t-44.5 -85.5t42.5 -81t116.5 -40
q91 -16 148 -60.5t57 -134.5q0 -103 -74.5 -156t-192.5 -53q-84 0 -154.5 29.5t-113.5 76.5zM538 903l-141 -154h-94l-97 154h79l69 -98l96 98h88z" />
    <glyph glyph-name="Scedilla" unicode="&#x15e;" horiz-adv-x="608" 
d="M19 92l64 65q37 -40 89.5 -62.5t118.5 -22.5q78 0 123.5 31.5t45.5 86.5q0 52 -36 77.5t-104 38.5q-224 41 -224 197q0 102 71.5 156.5t187.5 54.5q70 0 130 -26t98 -69l-62 -63q-30 33 -74 52.5t-96 19.5q-72 0 -116.5 -31.5t-44.5 -85.5t42.5 -81t116.5 -40
q91 -16 148 -60.5t57 -134.5q0 -103 -74.5 -156t-192.5 -53q-84 0 -154.5 29.5t-113.5 76.5zM401 -110q0 -38 -32 -61.5t-84 -23.5q-55 0 -92 31l27 34q11 -10 27.5 -15.5t31.5 -5.5q23 0 38.5 12.5t15.5 31.5q0 13 -8 21t-21 8q-24 0 -43 -21l-1 1l-40 12l53 101h45
l-30 -60q18 5 34 5q36 0 57.5 -19t21.5 -51z" />
    <glyph glyph-name="Scircumflex" unicode="&#x15c;" horiz-adv-x="608" 
d="M19 92l64 65q37 -40 89.5 -62.5t118.5 -22.5q78 0 123.5 31.5t45.5 86.5q0 52 -36 77.5t-104 38.5q-224 41 -224 197q0 102 71.5 156.5t187.5 54.5q70 0 130 -26t98 -69l-62 -63q-30 33 -74 52.5t-96 19.5q-72 0 -116.5 -31.5t-44.5 -85.5t42.5 -81t116.5 -40
q91 -16 148 -60.5t57 -134.5q0 -103 -74.5 -156t-192.5 -53q-84 0 -154.5 29.5t-113.5 76.5zM436 749l-69 98l-96 -98h-88l141 154h94l97 -154h-79z" />
    <glyph glyph-name="uni0218" unicode="&#x218;" horiz-adv-x="608" 
d="M19 92l64 65q37 -40 89.5 -62.5t118.5 -22.5q78 0 123.5 31.5t45.5 86.5q0 52 -36 77.5t-104 38.5q-224 41 -224 197q0 102 71.5 156.5t187.5 54.5q70 0 130 -26t98 -69l-62 -63q-30 33 -74 52.5t-96 19.5q-72 0 -116.5 -31.5t-44.5 -85.5t42.5 -81t116.5 -40
q91 -16 148 -60.5t57 -134.5q0 -103 -74.5 -156t-192.5 -53q-84 0 -154.5 29.5t-113.5 76.5zM248 -48h85l-65 -173h-67z" />
    <glyph glyph-name="uni1E9E" unicode="&#x1e9e;" horiz-adv-x="667" 
d="M619 184q0 -91 -58 -144.5t-153 -53.5q-53 0 -100 20.5t-80 55.5l55 64q53 -58 128 -58q52 0 82.5 30.5t30.5 80.5q0 45 -24.5 73t-66.5 50q-48 25 -76.5 61.5t-28.5 92.5q0 50 23 91.5t59 66.5h-168l-109 -614h-93l123 700h441l-15 -86q-74 -5 -120 -44t-46 -99
q0 -39 19.5 -62.5t59.5 -44.5q54 -28 85.5 -70t31.5 -110z" />
    <glyph glyph-name="uni018F" unicode="&#x18f;" horiz-adv-x="712" 
d="M682 384q0 -110 -44.5 -201t-123 -144t-176.5 -53q-71 0 -133 35.5t-102 97.5t-49 138q-1 5 -1 15q0 12 1 17l531 123q-5 63 -33 111.5t-72 75t-99 26.5q-61 0 -115.5 -29.5t-90.5 -78.5l-74 52q49 67 123.5 106t161.5 39q83 0 150.5 -42.5t106.5 -117.5t39 -170z
M583 331l-426 -102q19 -72 69 -114t116 -42q63 0 114.5 33.5t84.5 92.5t42 132z" />
    <glyph glyph-name="T" unicode="T" horiz-adv-x="579" 
d="M618 612h-218l-108 -612h-94l108 612h-218l16 88h530z" />
    <glyph glyph-name="Tbar" unicode="&#x166;" horiz-adv-x="579" 
d="M618 612h-218l-108 -612h-94l108 612h-218l16 88h530zM154 382h316l-10 -64h-316z" />
    <glyph glyph-name="Tcaron" unicode="&#x164;" horiz-adv-x="579" 
d="M618 612h-218l-108 -612h-94l108 612h-218l16 88h530zM557 903l-141 -154h-94l-97 154h79l69 -98l96 98h88z" />
    <glyph glyph-name="uni0162" unicode="&#x162;" horiz-adv-x="579" 
d="M618 612h-218l-108 -612h-94l108 612h-218l16 88h530zM355 -110q0 -38 -32 -61.5t-84 -23.5q-55 0 -92 31l27 34q11 -10 27.5 -15.5t31.5 -5.5q23 0 38.5 12.5t15.5 31.5q0 13 -8 21t-21 8q-24 0 -43 -21l-1 1l-40 12l53 101h45l-30 -60q18 5 34 5q36 0 57.5 -19
t21.5 -51z" />
    <glyph glyph-name="uni021A" unicode="&#x21a;" horiz-adv-x="579" 
d="M618 612h-218l-108 -612h-94l108 612h-218l16 88h530zM202 -48h85l-65 -173h-67z" />
    <glyph glyph-name="U" unicode="U" horiz-adv-x="675" 
d="M71 208q0 25 4 52l78 440h93l-78 -439q-3 -21 -3 -41q0 -65 40.5 -104.5t105.5 -39.5q78 0 130.5 48t67.5 133l78 443h94l-82 -461q-20 -117 -98 -185t-193 -68q-70 0 -123.5 28t-83.5 78.5t-30 115.5z" />
    <glyph glyph-name="Uacute" unicode="&#xda;" horiz-adv-x="675" 
d="M71 208q0 25 4 52l78 440h93l-78 -439q-3 -21 -3 -41q0 -65 40.5 -104.5t105.5 -39.5q78 0 130.5 48t67.5 133l78 443h94l-82 -461q-20 -117 -98 -185t-193 -68q-70 0 -123.5 28t-83.5 78.5t-30 115.5zM476 903h101l-133 -154h-80z" />
    <glyph glyph-name="Ubreve" unicode="&#x16c;" horiz-adv-x="675" 
d="M71 208q0 25 4 52l78 440h93l-78 -439q-3 -21 -3 -41q0 -65 40.5 -104.5t105.5 -39.5q78 0 130.5 48t67.5 133l78 443h94l-82 -461q-20 -117 -98 -185t-193 -68q-70 0 -123.5 28t-83.5 78.5t-30 115.5zM276 903h64q3 -38 29.5 -62t63.5 -24q38 0 66 23.5t37 62.5h67
q-12 -66 -59.5 -107.5t-112.5 -41.5q-66 0 -109.5 42t-45.5 107z" />
    <glyph glyph-name="Ucircumflex" unicode="&#xdb;" horiz-adv-x="675" 
d="M71 208q0 25 4 52l78 440h93l-78 -439q-3 -21 -3 -41q0 -65 40.5 -104.5t105.5 -39.5q78 0 130.5 48t67.5 133l78 443h94l-82 -461q-20 -117 -98 -185t-193 -68q-70 0 -123.5 28t-83.5 78.5t-30 115.5zM503 749l-69 98l-96 -98h-88l141 154h94l97 -154h-79z" />
    <glyph glyph-name="Udieresis" unicode="&#xdc;" horiz-adv-x="675" 
d="M71 208q0 25 4 52l78 440h93l-78 -439q-3 -21 -3 -41q0 -65 40.5 -104.5t105.5 -39.5q78 0 130.5 48t67.5 133l78 443h94l-82 -461q-20 -117 -98 -185t-193 -68q-70 0 -123.5 28t-83.5 78.5t-30 115.5zM293 890h87l-23 -127h-86zM522 890h86l-22 -127h-86z" />
    <glyph glyph-name="Ugrave" unicode="&#xd9;" horiz-adv-x="675" 
d="M71 208q0 25 4 52l78 440h93l-78 -439q-3 -21 -3 -41q0 -65 40.5 -104.5t105.5 -39.5q78 0 130.5 48t67.5 133l78 443h94l-82 -461q-20 -117 -98 -185t-193 -68q-70 0 -123.5 28t-83.5 78.5t-30 115.5zM399 749l-108 154h98l88 -154h-78z" />
    <glyph glyph-name="Uhungarumlaut" unicode="&#x170;" horiz-adv-x="675" 
d="M71 208q0 25 4 52l78 440h93l-78 -439q-3 -21 -3 -41q0 -65 40.5 -104.5t105.5 -39.5q78 0 130.5 48t67.5 133l78 443h94l-82 -461q-20 -117 -98 -185t-193 -68q-70 0 -123.5 28t-83.5 78.5t-30 115.5zM585 903h101l-133 -154h-80zM377 903h101l-133 -154h-80z" />
    <glyph glyph-name="Umacron" unicode="&#x16a;" horiz-adv-x="675" 
d="M71 208q0 25 4 52l78 440h93l-78 -439q-3 -21 -3 -41q0 -65 40.5 -104.5t105.5 -39.5q78 0 130.5 48t67.5 133l78 443h94l-82 -461q-20 -117 -98 -185t-193 -68q-70 0 -123.5 28t-83.5 78.5t-30 115.5zM286 854h315l-10 -60h-316z" />
    <glyph glyph-name="Uogonek" unicode="&#x172;" horiz-adv-x="675" 
d="M71 208q0 25 4 52l78 440h93l-78 -439q-3 -21 -3 -41q0 -65 40.5 -104.5t105.5 -39.5q78 0 130.5 48t67.5 133l78 443h94l-82 -461q-20 -117 -98 -185t-193 -68q-70 0 -123.5 28t-83.5 78.5t-30 115.5zM240 -120q0 78 156 150l53 -10q-65 -38 -96 -67t-31 -56
q0 -15 10 -23.5t29 -8.5q35 0 70 28l18 -57q-22 -15 -51.5 -24t-56.5 -9q-45 0 -73 21t-28 56z" />
    <glyph glyph-name="Uring" unicode="&#x16e;" horiz-adv-x="675" 
d="M71 208q0 25 4 52l78 440h93l-78 -439q-3 -21 -3 -41q0 -65 40.5 -104.5t105.5 -39.5q78 0 130.5 48t67.5 133l78 443h94l-82 -461q-20 -117 -98 -185t-193 -68q-70 0 -123.5 28t-83.5 78.5t-30 115.5zM327 833q0 48 36 82.5t86 34.5q46 0 77 -29.5t31 -73.5
q0 -49 -36 -83.5t-86 -34.5q-46 0 -77 30t-31 74zM502 845q0 23 -16 39.5t-39 16.5q-26 0 -45.5 -20t-19.5 -47q0 -24 15.5 -40t39.5 -16q26 0 45.5 20t19.5 47z" />
    <glyph glyph-name="Utilde" unicode="&#x168;" horiz-adv-x="675" 
d="M71 208q0 25 4 52l78 440h93l-78 -439q-3 -21 -3 -41q0 -65 40.5 -104.5t105.5 -39.5q78 0 130.5 48t67.5 133l78 443h94l-82 -461q-20 -117 -98 -185t-193 -68q-70 0 -123.5 28t-83.5 78.5t-30 115.5zM424 798q-13 12 -23 18t-23 6q-20 0 -34 -14t-19 -37h-65
q10 57 41.5 86t76.5 29q28 0 44 -8.5t34 -25.5q13 -13 22 -18.5t22 -5.5q20 0 34 14t20 37h64q-10 -56 -41.5 -85.5t-76.5 -29.5q-27 0 -43.5 9t-32.5 25z" />
    <glyph glyph-name="V" unicode="V" horiz-adv-x="656" 
d="M714 700l-356 -700h-98l-160 700h97l127 -576l288 576h102z" />
    <glyph glyph-name="W" unicode="W" horiz-adv-x="910" 
d="M956 700l-275 -700h-99l-87 417l-204 -417h-99l-80 700h96l61 -562l195 409h94l81 -413l217 566h100z" />
    <glyph glyph-name="Wacute" unicode="&#x1e82;" horiz-adv-x="910" 
d="M956 700l-275 -700h-99l-87 417l-204 -417h-99l-80 700h96l61 -562l195 409h94l81 -413l217 566h100zM584 903h101l-133 -154h-80z" />
    <glyph glyph-name="Wcircumflex" unicode="&#x174;" horiz-adv-x="910" 
d="M956 700l-275 -700h-99l-87 417l-204 -417h-99l-80 700h96l61 -562l195 409h94l81 -413l217 566h100zM611 749l-69 98l-96 -98h-88l141 154h94l97 -154h-79z" />
    <glyph glyph-name="Wdieresis" unicode="&#x1e84;" horiz-adv-x="910" 
d="M956 700l-275 -700h-99l-87 417l-204 -417h-99l-80 700h96l61 -562l195 409h94l81 -413l217 566h100zM401 890h87l-23 -127h-86zM630 890h86l-22 -127h-86z" />
    <glyph glyph-name="Wgrave" unicode="&#x1e80;" horiz-adv-x="910" 
d="M956 700l-275 -700h-99l-87 417l-204 -417h-99l-80 700h96l61 -562l195 409h94l81 -413l217 566h100zM507 749l-108 154h98l88 -154h-78z" />
    <glyph glyph-name="X" unicode="X" horiz-adv-x="610" 
d="M375 352l173 -352h-100l-139 291l-218 -291h-107l277 364l-164 336h100l130 -274l203 274h107z" />
    <glyph glyph-name="Y" unicode="Y" horiz-adv-x="590" 
d="M654 700l-299 -426l-48 -274h-89l48 274l-171 426h92l134 -337l232 337h101z" />
    <glyph glyph-name="Yacute" unicode="&#xdd;" horiz-adv-x="590" 
d="M654 700l-299 -426l-48 -274h-89l48 274l-171 426h92l134 -337l232 337h101zM433 903h101l-133 -154h-80z" />
    <glyph glyph-name="Ycircumflex" unicode="&#x176;" horiz-adv-x="590" 
d="M654 700l-299 -426l-48 -274h-89l48 274l-171 426h92l134 -337l232 337h101zM460 749l-69 98l-96 -98h-88l141 154h94l97 -154h-79z" />
    <glyph glyph-name="Ydieresis" unicode="&#x178;" horiz-adv-x="590" 
d="M654 700l-299 -426l-48 -274h-89l48 274l-171 426h92l134 -337l232 337h101zM250 890h87l-23 -127h-86zM479 890h86l-22 -127h-86z" />
    <glyph glyph-name="Ygrave" unicode="&#x1ef2;" horiz-adv-x="590" 
d="M654 700l-299 -426l-48 -274h-89l48 274l-171 426h92l134 -337l232 337h101zM356 749l-108 154h98l88 -154h-78z" />
    <glyph glyph-name="Z" unicode="Z" horiz-adv-x="587" 
d="M23 83l441 529h-357l16 88h477l-15 -83l-442 -529h372l-15 -88h-492z" />
    <glyph glyph-name="Zacute" unicode="&#x179;" horiz-adv-x="587" 
d="M23 83l441 529h-357l16 88h477l-15 -83l-442 -529h372l-15 -88h-492zM420 903h101l-133 -154h-80z" />
    <glyph glyph-name="Zcaron" unicode="&#x17d;" horiz-adv-x="587" 
d="M23 83l441 529h-357l16 88h477l-15 -83l-442 -529h372l-15 -88h-492zM549 903l-141 -154h-94l-97 154h79l69 -98l96 98h88z" />
    <glyph glyph-name="Zdotaccent" unicode="&#x17b;" horiz-adv-x="587" 
d="M23 83l441 529h-357l16 88h477l-15 -83l-442 -529h372l-15 -88h-492zM350 890h89l-22 -127h-89z" />
    <glyph glyph-name="Cacute.aalt" horiz-adv-x="672" 
d="M64 315q0 112 46.5 203.5t128.5 143.5t183 52q151 0 239 -133l-75 -52q-60 96 -169 96q-72 0 -131 -40.5t-93 -111t-34 -155.5q0 -71 26.5 -126t74 -86t108.5 -31q55 0 98.5 22.5t79.5 70.5l71 -55q-100 -127 -253 -127q-86 0 -154.5 42.5t-107 117.5t-38.5 169zM449 903
h91l-88 -154h-76z" />
    <glyph glyph-name="Nacute.aalt" horiz-adv-x="706" 
d="M702 700l-124 -700h-95l-254 545l-96 -545h-93l124 700h95l253 -543l96 543h94zM459 903h91l-88 -154h-76z" />
    <glyph glyph-name="Oacute.aalt" horiz-adv-x="756" 
d="M64 315q0 112 47.5 203t130.5 143.5t185 52.5q86 0 154 -42t106.5 -117t38.5 -170q0 -112 -47.5 -203.5t-130 -143.5t-183.5 -52q-86 0 -154.5 42t-107.5 117t-39 170zM631 382q0 71 -26.5 126.5t-74 86t-108.5 30.5q-73 0 -133 -40.5t-94.5 -110.5t-34.5 -156
q0 -71 26.5 -126.5t74 -86t108.5 -30.5q73 0 133 40.5t94.5 111t34.5 155.5zM454 903h91l-88 -154h-76z" />
    <glyph glyph-name="Sacute.aalt" horiz-adv-x="608" 
d="M19 92l64 65q37 -40 89.5 -62.5t118.5 -22.5q78 0 123.5 31.5t45.5 86.5q0 52 -36 77.5t-104 38.5q-224 41 -224 197q0 102 71.5 156.5t187.5 54.5q70 0 130 -26t98 -69l-62 -63q-30 33 -74 52.5t-96 19.5q-72 0 -116.5 -31.5t-44.5 -85.5t42.5 -81t116.5 -40
q91 -16 148 -60.5t57 -134.5q0 -103 -74.5 -156t-192.5 -53q-84 0 -154.5 29.5t-113.5 76.5zM377 903h91l-88 -154h-76z" />
    <glyph glyph-name="Zacute.aalt" horiz-adv-x="587" 
d="M23 83l441 529h-357l16 88h477l-15 -83l-442 -529h372l-15 -88h-492zM388 903h91l-88 -154h-76z" />
    <glyph glyph-name="a" unicode="a" horiz-adv-x="581" 
d="M553 502l-88 -502h-89l9 52q-28 -31 -65.5 -48t-80.5 -17q-59 0 -104.5 28t-71 79.5t-25.5 121.5q0 89 37.5 157t106.5 105.5t160 37.5q67 0 120 -14h91zM451 417q-23 9 -54 13.5t-55 4.5q-63 0 -111 -27t-74.5 -75.5t-26.5 -111.5q0 -70 34.5 -112t92.5 -42q61 0 105 48
t58 129z" />
    <glyph glyph-name="aacute" unicode="&#xe1;" horiz-adv-x="581" 
d="M553 502l-88 -502h-89l9 52q-28 -31 -65.5 -48t-80.5 -17q-59 0 -104.5 28t-71 79.5t-25.5 121.5q0 89 37.5 157t106.5 105.5t160 37.5q67 0 120 -14h91zM451 417q-23 9 -54 13.5t-55 4.5q-63 0 -111 -27t-74.5 -75.5t-26.5 -111.5q0 -70 34.5 -112t92.5 -42q61 0 105 48
t58 129zM389 714h101l-133 -154h-80z" />
    <glyph glyph-name="abreve" unicode="&#x103;" horiz-adv-x="581" 
d="M553 502l-88 -502h-89l9 52q-28 -31 -65.5 -48t-80.5 -17q-59 0 -104.5 28t-71 79.5t-25.5 121.5q0 89 37.5 157t106.5 105.5t160 37.5q67 0 120 -14h91zM451 417q-23 9 -54 13.5t-55 4.5q-63 0 -111 -27t-74.5 -75.5t-26.5 -111.5q0 -70 34.5 -112t92.5 -42q61 0 105 48
t58 129zM202 714h64q3 -39 30 -64t64 -25t65.5 25t37.5 64h66q-12 -67 -59 -109t-113 -42t-109 42.5t-46 108.5z" />
    <glyph glyph-name="acircumflex" unicode="&#xe2;" horiz-adv-x="581" 
d="M553 502l-88 -502h-89l9 52q-28 -31 -65.5 -48t-80.5 -17q-59 0 -104.5 28t-71 79.5t-25.5 121.5q0 89 37.5 157t106.5 105.5t160 37.5q67 0 120 -14h91zM451 417q-23 9 -54 13.5t-55 4.5q-63 0 -111 -27t-74.5 -75.5t-26.5 -111.5q0 -70 34.5 -112t92.5 -42q61 0 105 48
t58 129zM428 560l-69 98l-96 -98h-88l141 154h94l97 -154h-79z" />
    <glyph glyph-name="adieresis" unicode="&#xe4;" horiz-adv-x="581" 
d="M553 502l-88 -502h-89l9 52q-28 -31 -65.5 -48t-80.5 -17q-59 0 -104.5 28t-71 79.5t-25.5 121.5q0 89 37.5 157t106.5 105.5t160 37.5q67 0 120 -14h91zM451 417q-23 9 -54 13.5t-55 4.5q-63 0 -111 -27t-74.5 -75.5t-26.5 -111.5q0 -70 34.5 -112t92.5 -42q61 0 105 48
t58 129zM216 714h87l-23 -127h-86zM445 714h86l-22 -127h-86z" />
    <glyph glyph-name="agrave" unicode="&#xe0;" horiz-adv-x="581" 
d="M553 502l-88 -502h-89l9 52q-28 -31 -65.5 -48t-80.5 -17q-59 0 -104.5 28t-71 79.5t-25.5 121.5q0 89 37.5 157t106.5 105.5t160 37.5q67 0 120 -14h91zM451 417q-23 9 -54 13.5t-55 4.5q-63 0 -111 -27t-74.5 -75.5t-26.5 -111.5q0 -70 34.5 -112t92.5 -42q61 0 105 48
t58 129zM322 560l-108 154h98l88 -154h-78z" />
    <glyph glyph-name="amacron" unicode="&#x101;" horiz-adv-x="581" 
d="M553 502l-88 -502h-89l9 52q-28 -31 -65.5 -48t-80.5 -17q-59 0 -104.5 28t-71 79.5t-25.5 121.5q0 89 37.5 157t106.5 105.5t160 37.5q67 0 120 -14h91zM451 417q-23 9 -54 13.5t-55 4.5q-63 0 -111 -27t-74.5 -75.5t-26.5 -111.5q0 -70 34.5 -112t92.5 -42q61 0 105 48
t58 129zM209 686h318l-10 -63h-319z" />
    <glyph glyph-name="aogonek" unicode="&#x105;" horiz-adv-x="581" 
d="M553 502l-88 -502h-89l9 52q-28 -31 -65.5 -48t-80.5 -17q-59 0 -104.5 28t-71 79.5t-25.5 121.5q0 89 37.5 157t106.5 105.5t160 37.5q67 0 120 -14h91zM451 417q-23 9 -54 13.5t-55 4.5q-63 0 -111 -27t-74.5 -75.5t-26.5 -111.5q0 -70 34.5 -112t92.5 -42q61 0 105 48
t58 129zM257 -120q0 78 156 150l53 -10q-65 -38 -96 -67t-31 -56q0 -15 10 -23.5t29 -8.5q35 0 70 28l18 -57q-22 -15 -51.5 -24t-56.5 -9q-45 0 -73 21t-28 56z" />
    <glyph glyph-name="aring" unicode="&#xe5;" horiz-adv-x="581" 
d="M553 502l-88 -502h-89l9 52q-28 -31 -65.5 -48t-80.5 -17q-59 0 -104.5 28t-71 79.5t-25.5 121.5q0 89 37.5 157t106.5 105.5t160 37.5q67 0 120 -14h91zM451 417q-23 9 -54 13.5t-55 4.5q-63 0 -111 -27t-74.5 -75.5t-26.5 -111.5q0 -70 34.5 -112t92.5 -42q61 0 105 48
t58 129zM243 652q0 48 36 82.5t86 34.5q46 0 77 -29.5t31 -73.5q0 -49 -36 -83.5t-86 -34.5q-46 0 -77 30t-31 74zM418 664q0 23 -16 39.5t-39 16.5q-26 0 -45.5 -20t-19.5 -47q0 -24 15.5 -40t39.5 -16q26 0 45.5 20t19.5 47z" />
    <glyph glyph-name="aringacute" unicode="&#x1fb;" horiz-adv-x="581" 
d="M553 502l-88 -502h-89l9 52q-28 -31 -65.5 -48t-80.5 -17q-59 0 -104.5 28t-71 79.5t-25.5 121.5q0 89 37.5 157t106.5 105.5t160 37.5q67 0 120 -14h91zM451 417q-23 9 -54 13.5t-55 4.5q-63 0 -111 -27t-74.5 -75.5t-26.5 -111.5q0 -70 34.5 -112t92.5 -42q61 0 105 48
t58 129zM243 652q0 48 36 82.5t86 34.5q46 0 77 -29.5t31 -73.5q0 -49 -36 -83.5t-86 -34.5q-46 0 -77 30t-31 74zM418 664q0 23 -16 39.5t-39 16.5q-26 0 -45.5 -20t-19.5 -47q0 -24 15.5 -40t39.5 -16q26 0 45.5 20t19.5 47zM422 947h101l-133 -154h-80z" />
    <glyph glyph-name="atilde" unicode="&#xe3;" horiz-adv-x="581" 
d="M553 502l-88 -502h-89l9 52q-28 -31 -65.5 -48t-80.5 -17q-59 0 -104.5 28t-71 79.5t-25.5 121.5q0 89 37.5 157t106.5 105.5t160 37.5q67 0 120 -14h91zM451 417q-23 9 -54 13.5t-55 4.5q-63 0 -111 -27t-74.5 -75.5t-26.5 -111.5q0 -70 34.5 -112t92.5 -42q61 0 105 48
t58 129zM345 626q-13 12 -23 18t-23 6q-20 0 -34 -14t-19 -37h-65q10 57 41.5 86t76.5 29q28 0 44 -8.5t34 -25.5q13 -13 22 -18.5t22 -5.5q20 0 34 14t20 37h64q-10 -56 -41.5 -85.5t-76.5 -29.5q-27 0 -43.5 9t-32.5 25z" />
    <glyph glyph-name="ae" unicode="&#xe6;" horiz-adv-x="839" 
d="M443 231q0 -75 34 -120t94 -45q40 0 73.5 22t53.5 59l77 -44q-33 -56 -86.5 -86.5t-120.5 -30.5q-61 0 -108 30t-72 83q-32 -52 -81 -81.5t-112 -29.5q-74 0 -121 38t-47 97q0 64 50.5 107.5t140.5 51.5l143 13l3 16q2 20 2 28q0 45 -27 71t-74 26q-74 0 -125 -69l-66 50
q42 50 89.5 74t105.5 24q54 0 94 -22t60 -63q32 41 77.5 63.5t100.5 22.5q60 0 106 -30.5t71 -80t25 -106.5l-2 -36zM451 302l258 23q-9 48 -38.5 79.5t-74.5 31.5q-53 0 -91.5 -36.5t-53.5 -97.5zM347 204l3 19l-122 -11q-55 -5 -84.5 -28t-29.5 -57q0 -31 24.5 -50
t63.5 -19q61 0 98 40.5t47 105.5z" />
    <glyph glyph-name="aeacute" unicode="&#x1fd;" horiz-adv-x="839" 
d="M443 231q0 -75 34 -120t94 -45q40 0 73.5 22t53.5 59l77 -44q-33 -56 -86.5 -86.5t-120.5 -30.5q-61 0 -108 30t-72 83q-32 -52 -81 -81.5t-112 -29.5q-74 0 -121 38t-47 97q0 64 50.5 107.5t140.5 51.5l143 13l3 16q2 20 2 28q0 45 -27 71t-74 26q-74 0 -125 -69l-66 50
q42 50 89.5 74t105.5 24q54 0 94 -22t60 -63q32 41 77.5 63.5t100.5 22.5q60 0 106 -30.5t71 -80t25 -106.5l-2 -36zM451 302l258 23q-9 48 -38.5 79.5t-74.5 31.5q-53 0 -91.5 -36.5t-53.5 -97.5zM347 204l3 19l-122 -11q-55 -5 -84.5 -28t-29.5 -57q0 -31 24.5 -50
t63.5 -19q61 0 98 40.5t47 105.5zM508 714h101l-133 -154h-80z" />
    <glyph glyph-name="b" unicode="b" horiz-adv-x="594" 
d="M555 277q0 -82 -33.5 -148.5t-92.5 -104.5t-132 -38q-50 0 -94 25.5t-72 70.5l-14 -82h-89l128 730h89l-49 -275q58 61 148 61q62 0 110 -30.5t74.5 -85t26.5 -123.5zM463 270q0 73 -38.5 118.5t-99.5 45.5q-46 0 -84 -27t-60 -73t-22 -102q0 -48 18 -85.5t49 -58
t69 -20.5q45 0 84 27t61.5 73.5t22.5 101.5z" />
    <glyph glyph-name="c" unicode="c" horiz-adv-x="537" 
d="M265 -14q-65 0 -116.5 30.5t-80.5 85t-29 123.5q0 82 34.5 148.5t95.5 104.5t136 38q65 0 115 -32.5t78 -88.5l-80 -41q-19 36 -49.5 58t-68.5 22q-45 0 -84 -27t-61.5 -73.5t-22.5 -101.5q0 -73 38.5 -118.5t98.5 -45.5q38 0 71.5 20.5t57.5 55.5l74 -48
q-36 -54 -89 -82t-118 -28z" />
    <glyph glyph-name="cacute" unicode="&#x107;" horiz-adv-x="537" 
d="M265 -14q-65 0 -116.5 30.5t-80.5 85t-29 123.5q0 82 34.5 148.5t95.5 104.5t136 38q65 0 115 -32.5t78 -88.5l-80 -41q-19 36 -49.5 58t-68.5 22q-45 0 -84 -27t-61.5 -73.5t-22.5 -101.5q0 -73 38.5 -118.5t98.5 -45.5q38 0 71.5 20.5t57.5 55.5l74 -48
q-36 -54 -89 -82t-118 -28zM359 714h101l-133 -154h-80z" />
    <glyph glyph-name="ccaron" unicode="&#x10d;" horiz-adv-x="537" 
d="M265 -14q-65 0 -116.5 30.5t-80.5 85t-29 123.5q0 82 34.5 148.5t95.5 104.5t136 38q65 0 115 -32.5t78 -88.5l-80 -41q-19 36 -49.5 58t-68.5 22q-45 0 -84 -27t-61.5 -73.5t-22.5 -101.5q0 -73 38.5 -118.5t98.5 -45.5q38 0 71.5 20.5t57.5 55.5l74 -48
q-36 -54 -89 -82t-118 -28zM496 714l-141 -154h-94l-97 154h79l69 -98l96 98h88z" />
    <glyph glyph-name="ccedilla" unicode="&#xe7;" horiz-adv-x="537" 
d="M265 -14q-65 0 -116.5 30.5t-80.5 85t-29 123.5q0 82 34.5 148.5t95.5 104.5t136 38q65 0 115 -32.5t78 -88.5l-80 -41q-19 36 -49.5 58t-68.5 22q-45 0 -84 -27t-61.5 -73.5t-22.5 -101.5q0 -73 38.5 -118.5t98.5 -45.5q38 0 71.5 20.5t57.5 55.5l74 -48
q-36 -54 -89 -82t-118 -28zM374 -110q0 -38 -32 -61.5t-84 -23.5q-55 0 -92 31l27 34q11 -10 27.5 -15.5t31.5 -5.5q23 0 38.5 12.5t15.5 31.5q0 13 -8 21t-21 8q-24 0 -43 -21l-1 1l-40 12l53 101h45l-30 -60q18 5 34 5q36 0 57.5 -19t21.5 -51z" />
    <glyph glyph-name="ccircumflex" unicode="&#x109;" horiz-adv-x="537" 
d="M265 -14q-65 0 -116.5 30.5t-80.5 85t-29 123.5q0 82 34.5 148.5t95.5 104.5t136 38q65 0 115 -32.5t78 -88.5l-80 -41q-19 36 -49.5 58t-68.5 22q-45 0 -84 -27t-61.5 -73.5t-22.5 -101.5q0 -73 38.5 -118.5t98.5 -45.5q38 0 71.5 20.5t57.5 55.5l74 -48
q-36 -54 -89 -82t-118 -28zM398 560l-69 98l-96 -98h-88l141 154h94l97 -154h-79z" />
    <glyph glyph-name="cdotaccent" unicode="&#x10b;" horiz-adv-x="537" 
d="M265 -14q-65 0 -116.5 30.5t-80.5 85t-29 123.5q0 82 34.5 148.5t95.5 104.5t136 38q65 0 115 -32.5t78 -88.5l-80 -41q-19 36 -49.5 58t-68.5 22q-45 0 -84 -27t-61.5 -73.5t-22.5 -101.5q0 -73 38.5 -118.5t98.5 -45.5q38 0 71.5 20.5t57.5 55.5l74 -48
q-36 -54 -89 -82t-118 -28zM299 714h89l-22 -127h-89z" />
    <glyph glyph-name="d" unicode="d" horiz-adv-x="596" 
d="M608 730l-129 -730h-89l8 50q-29 -31 -68.5 -46.5t-83.5 -15.5q-60 0 -107 30t-73.5 84t-26.5 123q0 82 34 148.5t92.5 104.5t129.5 38q54 0 97.5 -24.5t71.5 -68.5l55 307h89zM435 270q0 73 -38.5 118.5t-96.5 45.5q-45 0 -84 -27t-61.5 -73.5t-22.5 -101.5
q0 -73 38.5 -118.5t99.5 -45.5q46 0 83.5 27t59.5 73t22 102z" />
    <glyph glyph-name="eth" unicode="&#xf0;" horiz-adv-x="569" 
d="M530 274q0 -84 -32.5 -149.5t-92.5 -102.5t-140 -37q-68 0 -119.5 29.5t-80 83t-28.5 122.5q0 75 31.5 137t88 98t126.5 36q32 0 59.5 -8t55.5 -26q-41 79 -91 132l-134 -74l-28 48l121 66q-23 22 -64 56l57 58q43 -33 82 -72l94 51l27 -47l-82 -46q75 -86 112.5 -179
t37.5 -176zM438 268q0 67 -39 109t-103 42q-49 0 -87.5 -26.5t-59 -71.5t-20.5 -98q0 -71 39 -114t102 -43q51 0 89 27t58.5 73t20.5 102z" />
    <glyph glyph-name="dcaron" unicode="&#x10f;" horiz-adv-x="639" 
d="M608 730l-129 -730h-89l8 50q-29 -31 -68.5 -46.5t-83.5 -15.5q-60 0 -107 30t-73.5 84t-26.5 123q0 82 34 148.5t92.5 104.5t129.5 38q54 0 97.5 -24.5t71.5 -68.5l55 307h89zM435 270q0 73 -38.5 118.5t-96.5 45.5q-45 0 -84 -27t-61.5 -73.5t-22.5 -101.5
q0 -73 38.5 -118.5t99.5 -45.5q46 0 83.5 27t59.5 73t22 102zM671 730h79l-58 -233h-63z" />
    <glyph glyph-name="dcroat" unicode="&#x111;" horiz-adv-x="596" 
d="M608 730l-129 -730h-89l8 50q-29 -31 -68.5 -46.5t-83.5 -15.5q-60 0 -107 30t-73.5 84t-26.5 123q0 82 34 148.5t92.5 104.5t129.5 38q54 0 97.5 -24.5t71.5 -68.5l55 307h89zM435 270q0 73 -38.5 118.5t-96.5 45.5q-45 0 -84 -27t-61.5 -73.5t-22.5 -101.5
q0 -73 38.5 -118.5t99.5 -45.5q46 0 83.5 27t59.5 73t22 102zM347 646h316l-11 -59h-316z" />
    <glyph glyph-name="e" unicode="e" horiz-adv-x="539" 
d="M501 273l-367 -70q7 -63 42 -100t90 -37q41 0 75.5 22.5t55.5 59.5l78 -45q-34 -56 -89.5 -86.5t-126.5 -30.5q-65 0 -114.5 31t-77 86t-27.5 124q0 84 31.5 149.5t90 102.5t136.5 37q59 0 105.5 -30.5t72.5 -81t26 -106.5q0 -18 -1 -25zM136 278l271 52q-10 47 -40 77
t-75 30q-61 0 -103 -44.5t-53 -114.5z" />
    <glyph glyph-name="eacute" unicode="&#xe9;" horiz-adv-x="539" 
d="M501 273l-367 -70q7 -63 42 -100t90 -37q41 0 75.5 22.5t55.5 59.5l78 -45q-34 -56 -89.5 -86.5t-126.5 -30.5q-65 0 -114.5 31t-77 86t-27.5 124q0 84 31.5 149.5t90 102.5t136.5 37q59 0 105.5 -30.5t72.5 -81t26 -106.5q0 -18 -1 -25zM136 278l271 52q-10 47 -40 77
t-75 30q-61 0 -103 -44.5t-53 -114.5zM348 714h101l-133 -154h-80z" />
    <glyph glyph-name="ebreve" unicode="&#x115;" horiz-adv-x="539" 
d="M501 273l-367 -70q7 -63 42 -100t90 -37q41 0 75.5 22.5t55.5 59.5l78 -45q-34 -56 -89.5 -86.5t-126.5 -30.5q-65 0 -114.5 31t-77 86t-27.5 124q0 84 31.5 149.5t90 102.5t136.5 37q59 0 105.5 -30.5t72.5 -81t26 -106.5q0 -18 -1 -25zM136 278l271 52q-10 47 -40 77
t-75 30q-61 0 -103 -44.5t-53 -114.5zM161 714h64q3 -39 30 -64t64 -25t65.5 25t37.5 64h66q-12 -67 -59 -109t-113 -42t-109 42.5t-46 108.5z" />
    <glyph glyph-name="ecaron" unicode="&#x11b;" horiz-adv-x="539" 
d="M501 273l-367 -70q7 -63 42 -100t90 -37q41 0 75.5 22.5t55.5 59.5l78 -45q-34 -56 -89.5 -86.5t-126.5 -30.5q-65 0 -114.5 31t-77 86t-27.5 124q0 84 31.5 149.5t90 102.5t136.5 37q59 0 105.5 -30.5t72.5 -81t26 -106.5q0 -18 -1 -25zM136 278l271 52q-10 47 -40 77
t-75 30q-61 0 -103 -44.5t-53 -114.5zM485 714l-141 -154h-94l-97 154h79l69 -98l96 98h88z" />
    <glyph glyph-name="ecircumflex" unicode="&#xea;" horiz-adv-x="539" 
d="M501 273l-367 -70q7 -63 42 -100t90 -37q41 0 75.5 22.5t55.5 59.5l78 -45q-34 -56 -89.5 -86.5t-126.5 -30.5q-65 0 -114.5 31t-77 86t-27.5 124q0 84 31.5 149.5t90 102.5t136.5 37q59 0 105.5 -30.5t72.5 -81t26 -106.5q0 -18 -1 -25zM136 278l271 52q-10 47 -40 77
t-75 30q-61 0 -103 -44.5t-53 -114.5zM387 560l-69 98l-96 -98h-88l141 154h94l97 -154h-79z" />
    <glyph glyph-name="edieresis" unicode="&#xeb;" horiz-adv-x="539" 
d="M501 273l-367 -70q7 -63 42 -100t90 -37q41 0 75.5 22.5t55.5 59.5l78 -45q-34 -56 -89.5 -86.5t-126.5 -30.5q-65 0 -114.5 31t-77 86t-27.5 124q0 84 31.5 149.5t90 102.5t136.5 37q59 0 105.5 -30.5t72.5 -81t26 -106.5q0 -18 -1 -25zM136 278l271 52q-10 47 -40 77
t-75 30q-61 0 -103 -44.5t-53 -114.5zM175 714h87l-23 -127h-86zM404 714h86l-22 -127h-86z" />
    <glyph glyph-name="edotaccent" unicode="&#x117;" horiz-adv-x="539" 
d="M501 273l-367 -70q7 -63 42 -100t90 -37q41 0 75.5 22.5t55.5 59.5l78 -45q-34 -56 -89.5 -86.5t-126.5 -30.5q-65 0 -114.5 31t-77 86t-27.5 124q0 84 31.5 149.5t90 102.5t136.5 37q59 0 105.5 -30.5t72.5 -81t26 -106.5q0 -18 -1 -25zM136 278l271 52q-10 47 -40 77
t-75 30q-61 0 -103 -44.5t-53 -114.5zM288 714h89l-22 -127h-89z" />
    <glyph glyph-name="egrave" unicode="&#xe8;" horiz-adv-x="539" 
d="M501 273l-367 -70q7 -63 42 -100t90 -37q41 0 75.5 22.5t55.5 59.5l78 -45q-34 -56 -89.5 -86.5t-126.5 -30.5q-65 0 -114.5 31t-77 86t-27.5 124q0 84 31.5 149.5t90 102.5t136.5 37q59 0 105.5 -30.5t72.5 -81t26 -106.5q0 -18 -1 -25zM136 278l271 52q-10 47 -40 77
t-75 30q-61 0 -103 -44.5t-53 -114.5zM281 560l-108 154h98l88 -154h-78z" />
    <glyph glyph-name="emacron" unicode="&#x113;" horiz-adv-x="539" 
d="M501 273l-367 -70q7 -63 42 -100t90 -37q41 0 75.5 22.5t55.5 59.5l78 -45q-34 -56 -89.5 -86.5t-126.5 -30.5q-65 0 -114.5 31t-77 86t-27.5 124q0 84 31.5 149.5t90 102.5t136.5 37q59 0 105.5 -30.5t72.5 -81t26 -106.5q0 -18 -1 -25zM136 278l271 52q-10 47 -40 77
t-75 30q-61 0 -103 -44.5t-53 -114.5zM168 686h318l-10 -63h-319z" />
    <glyph glyph-name="eogonek" unicode="&#x119;" horiz-adv-x="539" 
d="M501 273l-367 -70q7 -63 42 -100t90 -37q41 0 75.5 22.5t55.5 59.5l78 -45q-34 -56 -89.5 -86.5t-126.5 -30.5q-65 0 -114.5 31t-77 86t-27.5 124q0 84 31.5 149.5t90 102.5t136.5 37q59 0 105.5 -30.5t72.5 -81t26 -106.5q0 -18 -1 -25zM136 278l271 52q-10 47 -40 77
t-75 30q-61 0 -103 -44.5t-53 -114.5zM172 -120q0 78 156 150l53 -10q-65 -38 -96 -67t-31 -56q0 -15 10 -23.5t29 -8.5q35 0 70 28l18 -57q-22 -15 -51.5 -24t-56.5 -9q-45 0 -73 21t-28 56z" />
    <glyph glyph-name="uni0259" unicode="&#x259;" horiz-adv-x="539" 
d="M499 275q0 -84 -31.5 -149.5t-90 -102.5t-136.5 -37q-59 0 -105.5 30.5t-72.5 81t-26 106.5q0 18 1 25l367 70q-7 63 -42 100t-90 37q-41 0 -75.5 -22.5t-55.5 -59.5l-78 45q34 56 89.5 86.5t126.5 30.5q65 0 114.5 -31t77 -86t27.5 -124zM403 224l-271 -52
q10 -47 40 -77t75 -30q61 0 103 44.5t53 114.5z" />
    <glyph glyph-name="f" unicode="f" horiz-adv-x="366" 
d="M231 569q0 -12 2 -24.5t3 -16.5q4 -15 5 -26h155l-14 -78h-149l-75 -424h-89l75 424h-92l13 78h86q-1 9 -5 32q-6 32 -6 50q0 71 51.5 115.5t134.5 44.5q29 0 58.5 -7t49.5 -17l-35 -70q-36 15 -70 15q-45 0 -71.5 -26t-26.5 -70z" />
    <glyph glyph-name="g" unicode="g" horiz-adv-x="568" 
d="M474 105q20 -40 20 -88q0 -103 -72.5 -159t-189.5 -56q-71 0 -129 22.5t-100 61.5l49 65q34 -31 81 -49.5t102 -18.5q77 0 122.5 35.5t45.5 96.5q0 21 -11 45q-28 -29 -69 -46.5t-85 -17.5q-57 0 -102.5 28t-71.5 79t-26 116q0 88 37 155t104.5 104t156.5 37
q56 0 117 -13h91zM442 417q-22 8 -52 12.5t-54 4.5q-62 0 -108.5 -26t-72 -73t-25.5 -109q0 -68 33.5 -109t89.5 -41q60 0 102.5 47t56.5 125z" />
    <glyph glyph-name="gbreve" unicode="&#x11f;" horiz-adv-x="568" 
d="M474 105q20 -40 20 -88q0 -103 -72.5 -159t-189.5 -56q-71 0 -129 22.5t-100 61.5l49 65q34 -31 81 -49.5t102 -18.5q77 0 122.5 35.5t45.5 96.5q0 21 -11 45q-28 -29 -69 -46.5t-85 -17.5q-57 0 -102.5 28t-71.5 79t-26 116q0 88 37 155t104.5 104t156.5 37
q56 0 117 -13h91zM442 417q-22 8 -52 12.5t-54 4.5q-62 0 -108.5 -26t-72 -73t-25.5 -109q0 -68 33.5 -109t89.5 -41q60 0 102.5 47t56.5 125zM184 714h64q3 -39 30 -64t64 -25t65.5 25t37.5 64h66q-12 -67 -59 -109t-113 -42t-109 42.5t-46 108.5z" />
    <glyph glyph-name="gcircumflex" unicode="&#x11d;" horiz-adv-x="568" 
d="M474 105q20 -40 20 -88q0 -103 -72.5 -159t-189.5 -56q-71 0 -129 22.5t-100 61.5l49 65q34 -31 81 -49.5t102 -18.5q77 0 122.5 35.5t45.5 96.5q0 21 -11 45q-28 -29 -69 -46.5t-85 -17.5q-57 0 -102.5 28t-71.5 79t-26 116q0 88 37 155t104.5 104t156.5 37
q56 0 117 -13h91zM442 417q-22 8 -52 12.5t-54 4.5q-62 0 -108.5 -26t-72 -73t-25.5 -109q0 -68 33.5 -109t89.5 -41q60 0 102.5 47t56.5 125zM410 560l-69 98l-96 -98h-88l141 154h94l97 -154h-79z" />
    <glyph glyph-name="uni0123" unicode="&#x123;" horiz-adv-x="568" 
d="M474 105q20 -40 20 -88q0 -103 -72.5 -159t-189.5 -56q-71 0 -129 22.5t-100 61.5l49 65q34 -31 81 -49.5t102 -18.5q77 0 122.5 35.5t45.5 96.5q0 21 -11 45q-28 -29 -69 -46.5t-85 -17.5q-57 0 -102.5 28t-71.5 79t-26 116q0 88 37 155t104.5 104t156.5 37
q56 0 117 -13h91zM442 417q-22 8 -52 12.5t-54 4.5q-62 0 -108.5 -26t-72 -73t-25.5 -109q0 -68 33.5 -109t89.5 -41q60 0 102.5 47t56.5 125zM355.979 549.967h-84.9951l64.9961 172.989h66.9961z" />
    <glyph glyph-name="gdotaccent" unicode="&#x121;" horiz-adv-x="568" 
d="M474 105q20 -40 20 -88q0 -103 -72.5 -159t-189.5 -56q-71 0 -129 22.5t-100 61.5l49 65q34 -31 81 -49.5t102 -18.5q77 0 122.5 35.5t45.5 96.5q0 21 -11 45q-28 -29 -69 -46.5t-85 -17.5q-57 0 -102.5 28t-71.5 79t-26 116q0 88 37 155t104.5 104t156.5 37
q56 0 117 -13h91zM442 417q-22 8 -52 12.5t-54 4.5q-62 0 -108.5 -26t-72 -73t-25.5 -109q0 -68 33.5 -109t89.5 -41q60 0 102.5 47t56.5 125zM311 714h89l-22 -127h-89z" />
    <glyph glyph-name="h" unicode="h" horiz-adv-x="577" 
d="M523 354q0 -26 -4 -50l-54 -304h-89l52 292q4 26 4 41q0 48 -26.5 75.5t-73.5 27.5q-63 0 -109.5 -49.5t-60.5 -131.5l-45 -255h-89l129 731h89l-52 -289q63 73 171 73q73 0 115.5 -44t42.5 -117z" />
    <glyph glyph-name="hbar" unicode="&#x127;" horiz-adv-x="577" 
d="M523 354q0 -26 -4 -50l-54 -304h-89l52 292q4 26 4 41q0 48 -26.5 75.5t-73.5 27.5q-63 0 -109.5 -49.5t-60.5 -131.5l-45 -255h-89l129 731h89l-52 -289q63 73 171 73q73 0 115.5 -44t42.5 -117zM73 646h316l-11 -59h-316z" />
    <glyph glyph-name="hcircumflex" unicode="&#x125;" horiz-adv-x="577" 
d="M523 354q0 -26 -4 -50l-54 -304h-89l52 292q4 26 4 41q0 48 -26.5 75.5t-73.5 27.5q-63 0 -109.5 -49.5t-60.5 -131.5l-45 -255h-89l129 731h89l-52 -289q63 73 171 73q73 0 115.5 -44t42.5 -117zM430 779l-69 98l-96 -98h-88l141 154h94l97 -154h-79z" />
    <glyph glyph-name="i" unicode="i" horiz-adv-x="233" 
d="M154 714h88l-22 -127h-89zM116 502h89l-88 -502h-89z" />
    <glyph glyph-name="dotlessi" unicode="&#x131;" horiz-adv-x="233" 
d="M116 502h89l-88 -502h-89z" />
    <glyph glyph-name="iacute" unicode="&#xed;" horiz-adv-x="233" 
d="M116 502h89l-88 -502h-89zM213 714h101l-133 -154h-80z" />
    <glyph glyph-name="ibreve" unicode="&#x12d;" horiz-adv-x="233" 
d="M116 502h89l-88 -502h-89zM26 714h64q3 -39 30 -64t64 -25t65.5 25t37.5 64h66q-12 -67 -59 -109t-113 -42t-109 42.5t-46 108.5z" />
    <glyph glyph-name="icircumflex" unicode="&#xee;" horiz-adv-x="233" 
d="M116 502h89l-88 -502h-89zM252 560l-69 98l-96 -98h-88l141 154h94l97 -154h-79z" />
    <glyph glyph-name="idieresis" unicode="&#xef;" horiz-adv-x="233" 
d="M68 714h77l-23 -127h-77zM251 714h77l-22 -127h-77zM116 502h89l-88 -502h-89z" />
    <glyph glyph-name="igrave" unicode="&#xec;" horiz-adv-x="233" 
d="M116 502h89l-88 -502h-89zM146 560l-108 154h98l88 -154h-78z" />
    <glyph glyph-name="ij" unicode="&#x133;" horiz-adv-x="466" 
d="M154 714h88l-22 -127h-89zM116 502h89l-88 -502h-89zM387 714h89l-22 -127h-89zM115 -184l25 75q19 -9 41 -9q59 0 72 72l97 548h89l-100 -565q-25 -135 -152 -135q-20 0 -35.5 3t-36.5 11z" />
    <glyph glyph-name="imacron" unicode="&#x12b;" horiz-adv-x="233" 
d="M116 502h89l-88 -502h-89zM33 686h318l-10 -63h-319z" />
    <glyph glyph-name="iogonek" unicode="&#x12f;" horiz-adv-x="233" 
d="M116 502h89l-88 -502h-89zM153 714h89l-22 -127h-89zM-68 -124q0 36 32.5 71.5t107.5 78.5l49 -7q-57 -43 -82.5 -71t-25.5 -54q0 -29 35 -29q27 0 50 20l19 -56q-18 -13 -41 -19.5t-47 -6.5q-43 0 -70 20.5t-27 52.5z" />
    <glyph glyph-name="itilde" unicode="&#x129;" horiz-adv-x="233" 
d="M116 502h89l-88 -502h-89zM169 626q-13 12 -23 18t-23 6q-20 0 -34 -14t-19 -37h-65q10 57 41.5 86t76.5 29q28 0 44 -8.5t34 -25.5q13 -13 22 -18.5t22 -5.5q20 0 34 14t20 37h64q-10 -56 -41.5 -85.5t-76.5 -29.5q-27 0 -43.5 9t-32.5 25z" />
    <glyph glyph-name="j" unicode="j" horiz-adv-x="233" 
d="M154 714h89l-22 -127h-89zM-118 -184l25 75q19 -9 41 -9q59 0 72 72l97 548h89l-100 -565q-25 -135 -152 -135q-20 0 -35.5 3t-36.5 11z" />
    <glyph glyph-name="uni0237" unicode="&#x237;" horiz-adv-x="233" 
d="M-118 -184l25 75q19 -9 41 -9q59 0 72 72l97 548h89l-100 -565q-25 -135 -152 -135q-20 0 -35.5 3t-36.5 11z" />
    <glyph glyph-name="jcircumflex" unicode="&#x135;" horiz-adv-x="233" 
d="M-118 -184l25 75q19 -9 41 -9q59 0 72 72l97 548h89l-100 -565q-25 -135 -152 -135q-20 0 -35.5 3t-36.5 11zM253 560l-69 98l-96 -98h-88l141 154h94l97 -154h-79z" />
    <glyph glyph-name="k" unicode="k" horiz-adv-x="520" 
d="M444 0h-94q-1 106 -43 164t-115 58h-36l-39 -222h-89l129 730h89l-76 -430h34q150 0 209 202h95q-24 -90 -73 -156t-111 -91q50 -26 84.5 -95.5t35.5 -159.5z" />
    <glyph glyph-name="uni0137" unicode="&#x137;" horiz-adv-x="520" 
d="M444 0h-94q-1 106 -43 164t-115 58h-36l-39 -222h-89l129 730h89l-76 -430h34q150 0 209 202h95q-24 -90 -73 -156t-111 -91q50 -26 84.5 -95.5t35.5 -159.5zM173 -48h85l-65 -173h-67z" />
    <glyph glyph-name="kgreenlandic" unicode="&#x138;" horiz-adv-x="521" 
d="M444 0h-93q-2 106 -44 164t-114 58h-37l-39 -222h-89l88 502h89l-35 -202h34q151 0 209 202h95q-24 -91 -73 -156.5t-111 -90.5q50 -26 84.5 -95.5t35.5 -159.5z" />
    <glyph glyph-name="l" unicode="l" horiz-adv-x="233" 
d="M157 730h89l-129 -730h-89z" />
    <glyph glyph-name="lacute" unicode="&#x13a;" horiz-adv-x="233" 
d="M157 730h89l-129 -730h-89zM260 933h101l-133 -154h-80z" />
    <glyph glyph-name="lcaron" unicode="&#x13e;" horiz-adv-x="265" 
d="M157 730h89l-129 -730h-89zM303 730h79l-58 -233h-63z" />
    <glyph glyph-name="uni013C" unicode="&#x13c;" horiz-adv-x="233" 
d="M157 730h89l-129 -730h-89zM34 -48h85l-65 -173h-67z" />
    <glyph glyph-name="ldot" unicode="&#x140;" horiz-adv-x="233" 
d="M157 730h89l-129 -730h-89zM250 433h89l-22 -127h-89z" />
    <glyph glyph-name="lslash" unicode="&#x142;" horiz-adv-x="253" 
d="M167 730h89l-129 -730h-89zM292 439l-14 -81l-139 -40l2 16l-1 -9l-139 -40l13 81l140 39l-1 -6z" />
    <glyph glyph-name="m" unicode="m" horiz-adv-x="885" 
d="M833 357q0 -25 -4 -44l-55 -313h-89l51 290q4 24 4 45q0 47 -25 74t-69 27q-58 0 -99 -46.5t-55 -127.5l-47 -262h-88l51 291q4 25 4 44q0 47 -25 74t-71 27q-58 0 -99 -49.5t-56 -134.5l-44 -252h-89l88 502h89l-10 -56q59 69 157 69q51 0 88 -24.5t53 -68.5
q31 45 78 69t102 24q72 0 116 -43t44 -115z" />
    <glyph glyph-name="n" unicode="n" horiz-adv-x="577" 
d="M523 354q0 -26 -4 -50l-54 -304h-89l52 292q4 26 4 41q0 48 -26.5 75.5t-73.5 27.5q-64 0 -110.5 -50t-60.5 -133l-44 -253h-89l88 502h89l-11 -60q64 73 172 73q73 0 115 -44t42 -117z" />
    <glyph glyph-name="nacute" unicode="&#x144;" horiz-adv-x="577" 
d="M523 354q0 -26 -4 -50l-54 -304h-89l52 292q4 26 4 41q0 48 -26.5 75.5t-73.5 27.5q-64 0 -110.5 -50t-60.5 -133l-44 -253h-89l88 502h89l-11 -60q64 73 172 73q73 0 115 -44t42 -117zM385 714h101l-133 -154h-80z" />
    <glyph glyph-name="napostrophe" unicode="&#x149;" horiz-adv-x="689" 
d="M160 729h93l-86 -256h-66zM635 354q0 -26 -4 -50l-54 -304h-89l52 292q4 26 4 41q0 48 -26.5 75.5t-73.5 27.5q-64 0 -110.5 -50t-60.5 -133l-44 -253h-89l88 502h89l-11 -60q64 73 172 73q73 0 115 -44t42 -117z" />
    <glyph glyph-name="ncaron" unicode="&#x148;" horiz-adv-x="577" 
d="M523 354q0 -26 -4 -50l-54 -304h-89l52 292q4 26 4 41q0 48 -26.5 75.5t-73.5 27.5q-64 0 -110.5 -50t-60.5 -133l-44 -253h-89l88 502h89l-11 -60q64 73 172 73q73 0 115 -44t42 -117zM522 714l-141 -154h-94l-97 154h79l69 -98l96 98h88z" />
    <glyph glyph-name="uni0146" unicode="&#x146;" horiz-adv-x="577" 
d="M523 354q0 -26 -4 -50l-54 -304h-89l52 292q4 26 4 41q0 48 -26.5 75.5t-73.5 27.5q-64 0 -110.5 -50t-60.5 -133l-44 -253h-89l88 502h89l-11 -60q64 73 172 73q73 0 115 -44t42 -117zM206 -48h85l-65 -173h-67z" />
    <glyph glyph-name="eng" unicode="&#x14b;" horiz-adv-x="577" 
d="M523 354q0 -26 -4 -50l-65 -368q-12 -66 -51 -100t-101 -34q-19 0 -32.5 2.5t-31.5 8.5l21 74q21 -7 38 -7q28 0 46.5 18.5t24.5 51.5l60 342q4 26 4 41q0 48 -26.5 75.5t-73.5 27.5q-63 0 -110 -50.5t-61 -132.5l-44 -253h-89l88 502h89l-11 -60q63 73 169 73
q73 0 116.5 -44t43.5 -117z" />
    <glyph glyph-name="ntilde" unicode="&#xf1;" horiz-adv-x="577" 
d="M523 354q0 -26 -4 -50l-54 -304h-89l52 292q4 26 4 41q0 48 -26.5 75.5t-73.5 27.5q-64 0 -110.5 -50t-60.5 -133l-44 -253h-89l88 502h89l-11 -60q64 73 172 73q73 0 115 -44t42 -117zM341 626q-13 12 -23 18t-23 6q-20 0 -34 -14t-19 -37h-65q10 57 41.5 86t76.5 29
q28 0 44 -8.5t34 -25.5q13 -13 22 -18.5t22 -5.5q20 0 34 14t20 37h64q-10 -56 -41.5 -85.5t-76.5 -29.5q-27 0 -43.5 9t-32.5 25z" />
    <glyph glyph-name="o" unicode="o" horiz-adv-x="576" 
d="M39 227q0 83 34.5 149t95.5 103t139 37q65 0 117.5 -31t82 -86t29.5 -124q0 -83 -34.5 -149t-95.5 -103t-139 -37q-65 0 -117.5 31t-82 86t-29.5 124zM445 269q0 74 -39.5 119.5t-103.5 45.5q-48 0 -87 -26.5t-61.5 -72.5t-22.5 -102q0 -74 39.5 -119.5t103.5 -45.5
q48 0 87 26.5t61.5 72.5t22.5 102z" />
    <glyph glyph-name="oacute" unicode="&#xf3;" horiz-adv-x="576" 
d="M39 227q0 83 34.5 149t95.5 103t139 37q65 0 117.5 -31t82 -86t29.5 -124q0 -83 -34.5 -149t-95.5 -103t-139 -37q-65 0 -117.5 31t-82 86t-29.5 124zM445 269q0 74 -39.5 119.5t-103.5 45.5q-48 0 -87 -26.5t-61.5 -72.5t-22.5 -102q0 -74 39.5 -119.5t103.5 -45.5
q48 0 87 26.5t61.5 72.5t22.5 102zM361 714h101l-133 -154h-80z" />
    <glyph glyph-name="obreve" unicode="&#x14f;" horiz-adv-x="576" 
d="M39 227q0 83 34.5 149t95.5 103t139 37q65 0 117.5 -31t82 -86t29.5 -124q0 -83 -34.5 -149t-95.5 -103t-139 -37q-65 0 -117.5 31t-82 86t-29.5 124zM445 269q0 74 -39.5 119.5t-103.5 45.5q-48 0 -87 -26.5t-61.5 -72.5t-22.5 -102q0 -74 39.5 -119.5t103.5 -45.5
q48 0 87 26.5t61.5 72.5t22.5 102zM174 714h64q3 -39 30 -64t64 -25t65.5 25t37.5 64h66q-12 -67 -59 -109t-113 -42t-109 42.5t-46 108.5z" />
    <glyph glyph-name="ocircumflex" unicode="&#xf4;" horiz-adv-x="576" 
d="M39 227q0 83 34.5 149t95.5 103t139 37q65 0 117.5 -31t82 -86t29.5 -124q0 -83 -34.5 -149t-95.5 -103t-139 -37q-65 0 -117.5 31t-82 86t-29.5 124zM445 269q0 74 -39.5 119.5t-103.5 45.5q-48 0 -87 -26.5t-61.5 -72.5t-22.5 -102q0 -74 39.5 -119.5t103.5 -45.5
q48 0 87 26.5t61.5 72.5t22.5 102zM400 560l-69 98l-96 -98h-88l141 154h94l97 -154h-79z" />
    <glyph glyph-name="odieresis" unicode="&#xf6;" horiz-adv-x="576" 
d="M39 227q0 83 34.5 149t95.5 103t139 37q65 0 117.5 -31t82 -86t29.5 -124q0 -83 -34.5 -149t-95.5 -103t-139 -37q-65 0 -117.5 31t-82 86t-29.5 124zM445 269q0 74 -39.5 119.5t-103.5 45.5q-48 0 -87 -26.5t-61.5 -72.5t-22.5 -102q0 -74 39.5 -119.5t103.5 -45.5
q48 0 87 26.5t61.5 72.5t22.5 102zM188 714h87l-23 -127h-86zM417 714h86l-22 -127h-86z" />
    <glyph glyph-name="ograve" unicode="&#xf2;" horiz-adv-x="576" 
d="M39 227q0 83 34.5 149t95.5 103t139 37q65 0 117.5 -31t82 -86t29.5 -124q0 -83 -34.5 -149t-95.5 -103t-139 -37q-65 0 -117.5 31t-82 86t-29.5 124zM445 269q0 74 -39.5 119.5t-103.5 45.5q-48 0 -87 -26.5t-61.5 -72.5t-22.5 -102q0 -74 39.5 -119.5t103.5 -45.5
q48 0 87 26.5t61.5 72.5t22.5 102zM294 560l-108 154h98l88 -154h-78z" />
    <glyph glyph-name="ohungarumlaut" unicode="&#x151;" horiz-adv-x="576" 
d="M39 227q0 83 34.5 149t95.5 103t139 37q65 0 117.5 -31t82 -86t29.5 -124q0 -83 -34.5 -149t-95.5 -103t-139 -37q-65 0 -117.5 31t-82 86t-29.5 124zM445 269q0 74 -39.5 119.5t-103.5 45.5q-48 0 -87 -26.5t-61.5 -72.5t-22.5 -102q0 -74 39.5 -119.5t103.5 -45.5
q48 0 87 26.5t61.5 72.5t22.5 102zM485 714h101l-133 -154h-80zM277 714h101l-133 -154h-80z" />
    <glyph glyph-name="omacron" unicode="&#x14d;" horiz-adv-x="576" 
d="M39 227q0 83 34.5 149t95.5 103t139 37q65 0 117.5 -31t82 -86t29.5 -124q0 -83 -34.5 -149t-95.5 -103t-139 -37q-65 0 -117.5 31t-82 86t-29.5 124zM445 269q0 74 -39.5 119.5t-103.5 45.5q-48 0 -87 -26.5t-61.5 -72.5t-22.5 -102q0 -74 39.5 -119.5t103.5 -45.5
q48 0 87 26.5t61.5 72.5t22.5 102zM181 686h318l-10 -63h-319z" />
    <glyph glyph-name="oslash" unicode="&#xf8;" horiz-adv-x="576" 
d="M508 398q29 -53 29 -123q0 -83 -34.5 -149t-96 -103t-139.5 -37q-49 0 -91.5 18t-72.5 51l-82 -69l-38 46l85 72q-29 53 -29 123q0 83 34.5 149t96 103t139.5 37q49 0 91.5 -18t72.5 -51l82 69l38 -46zM139 164l268 227q-41 46 -105 46q-48 0 -87.5 -27t-62.5 -73.5
t-23 -103.5q0 -34 10 -69zM437 338l-268 -227q41 -46 105 -46q48 0 87.5 27t62.5 73.5t23 103.5q0 34 -10 69z" />
    <glyph glyph-name="oslashacute" unicode="&#x1ff;" horiz-adv-x="576" 
d="M508 398q29 -53 29 -123q0 -83 -34.5 -149t-96 -103t-139.5 -37q-49 0 -91.5 18t-72.5 51l-82 -69l-38 46l85 72q-29 53 -29 123q0 83 34.5 149t96 103t139.5 37q49 0 91.5 -18t72.5 -51l82 69l38 -46zM139 164l268 227q-41 46 -105 46q-48 0 -87.5 -27t-62.5 -73.5
t-23 -103.5q0 -34 10 -69zM437 338l-268 -227q41 -46 105 -46q48 0 87.5 27t62.5 73.5t23 103.5q0 34 -10 69zM350 714h101l-133 -154h-80z" />
    <glyph glyph-name="otilde" unicode="&#xf5;" horiz-adv-x="576" 
d="M39 227q0 83 34.5 149t95.5 103t139 37q65 0 117.5 -31t82 -86t29.5 -124q0 -83 -34.5 -149t-95.5 -103t-139 -37q-65 0 -117.5 31t-82 86t-29.5 124zM445 269q0 74 -39.5 119.5t-103.5 45.5q-48 0 -87 -26.5t-61.5 -72.5t-22.5 -102q0 -74 39.5 -119.5t103.5 -45.5
q48 0 87 26.5t61.5 72.5t22.5 102zM317 626q-13 12 -23 18t-23 6q-20 0 -34 -14t-19 -37h-65q10 57 41.5 86t76.5 29q28 0 44 -8.5t34 -25.5q13 -13 22 -18.5t22 -5.5q20 0 34 14t20 37h64q-10 -56 -41.5 -85.5t-76.5 -29.5q-27 0 -43.5 9t-32.5 25z" />
    <glyph glyph-name="oe" unicode="&#x153;" horiz-adv-x="921" 
d="M883 273l-358 -70q7 -63 40.5 -100t87.5 -37q40 0 73 22t54 59l77 -44q-33 -56 -86.5 -86.5t-120.5 -30.5q-62 0 -109 30.5t-72 83.5q-34 -54 -88 -84t-120 -30q-64 0 -114.5 31t-79 85.5t-28.5 123.5q0 83 33.5 149.5t93 103.5t134.5 37q62 0 111 -29.5t76 -82.5
q31 53 82 82.5t114 29.5q60 0 106 -30.5t71 -80t25 -106.5q0 -12 -2 -26zM527 277l262 52q-10 47 -38.5 77t-72.5 30q-59 0 -99.5 -44t-51.5 -115zM434 270q0 74 -38 119t-99 45q-46 0 -84 -26.5t-60 -73t-22 -102.5q0 -74 38 -119t99 -45q46 0 84 26.5t60 73t22 102.5z" />
    <glyph glyph-name="p" unicode="p" horiz-adv-x="595" 
d="M556 277q0 -82 -34 -148.5t-92.5 -104.5t-129.5 -38q-55 0 -98.5 25.5t-70.5 70.5l-47 -266h-89l121 686h89l-9 -53q55 65 153 65q60 0 107 -30t73.5 -84t26.5 -123zM463 270q0 73 -38.5 118.5t-99.5 45.5q-46 0 -83.5 -27t-59.5 -73t-22 -102q0 -73 38.5 -118.5
t97.5 -45.5q45 0 83.5 27t61 73.5t22.5 101.5z" />
    <glyph glyph-name="thorn" unicode="&#xfe;" horiz-adv-x="595" 
d="M556 277q0 -82 -34 -148.5t-92 -104.5t-129 -38q-54 0 -98.5 25t-71.5 69l-47 -264h-89l161 914h89l-48 -277q55 61 152 61q60 0 107 -30t73.5 -84t26.5 -123zM464 270q0 73 -38.5 118.5t-99.5 45.5q-46 0 -84 -27t-60 -73t-22 -102q0 -48 18 -85.5t49 -58t69 -20.5
q45 0 84 27t61.5 73.5t22.5 101.5z" />
    <glyph glyph-name="q" unicode="q" horiz-adv-x="595" 
d="M567 502l-121 -686h-89l39 223q-54 -53 -145 -53q-63 0 -111 30.5t-74.5 85t-26.5 123.5q0 82 34 148.5t93 104.5t132 38q49 0 93 -24.5t73 -67.5l14 78h89zM435 270q0 73 -38.5 118.5t-96.5 45.5q-45 0 -84 -27t-61.5 -73.5t-22.5 -101.5q0 -73 38.5 -118.5t99.5 -45.5
q46 0 83.5 27t59.5 73t22 102z" />
    <glyph glyph-name="r" unicode="r" horiz-adv-x="469" 
d="M478 370l-84 -24q-13 90 -83 90q-58 0 -97.5 -55t-56.5 -152l-40 -229h-89l88 502h89l-10 -58q54 71 141 71q60 0 97 -38t45 -107z" />
    <glyph glyph-name="racute" unicode="&#x155;" horiz-adv-x="469" 
d="M478 370l-84 -24q-13 90 -83 90q-58 0 -97.5 -55t-56.5 -152l-40 -229h-89l88 502h89l-10 -58q54 71 141 71q60 0 97 -38t45 -107zM328 714h101l-133 -154h-80z" />
    <glyph glyph-name="rcaron" unicode="&#x159;" horiz-adv-x="469" 
d="M478 370l-84 -24q-13 90 -83 90q-58 0 -97.5 -55t-56.5 -152l-40 -229h-89l88 502h89l-10 -58q54 71 141 71q60 0 97 -38t45 -107zM465 714l-141 -154h-94l-97 154h79l69 -98l96 98h88z" />
    <glyph glyph-name="uni0157" unicode="&#x157;" horiz-adv-x="469" 
d="M478 370l-84 -24q-13 90 -83 90q-58 0 -97.5 -55t-56.5 -152l-40 -229h-89l88 502h89l-10 -58q54 71 141 71q60 0 97 -38t45 -107zM34 -48h85l-65 -173h-67z" />
    <glyph glyph-name="s" unicode="s" horiz-adv-x="488" 
d="M9 75l59 57q24 -32 67 -51.5t91 -19.5q52 0 84.5 21.5t32.5 58.5q0 33 -26.5 50t-74.5 25q-77 12 -126.5 43.5t-49.5 101.5q0 71 54.5 113t144.5 42q60 0 107.5 -20t80.5 -55l-52 -57q-26 26 -63.5 41.5t-75.5 15.5q-44 0 -75.5 -20.5t-31.5 -54.5q0 -33 30 -49t85 -24
q162 -24 162 -147q0 -74 -55.5 -117t-152.5 -43q-68 0 -126 24t-89 65z" />
    <glyph glyph-name="sacute" unicode="&#x15b;" horiz-adv-x="488" 
d="M9 75l59 57q24 -32 67 -51.5t91 -19.5q52 0 84.5 21.5t32.5 58.5q0 33 -26.5 50t-74.5 25q-77 12 -126.5 43.5t-49.5 101.5q0 71 54.5 113t144.5 42q60 0 107.5 -20t80.5 -55l-52 -57q-26 26 -63.5 41.5t-75.5 15.5q-44 0 -75.5 -20.5t-31.5 -54.5q0 -33 30 -49t85 -24
q162 -24 162 -147q0 -74 -55.5 -117t-152.5 -43q-68 0 -126 24t-89 65zM320 714h101l-133 -154h-80z" />
    <glyph glyph-name="scaron" unicode="&#x161;" horiz-adv-x="488" 
d="M9 75l59 57q24 -32 67 -51.5t91 -19.5q52 0 84.5 21.5t32.5 58.5q0 33 -26.5 50t-74.5 25q-77 12 -126.5 43.5t-49.5 101.5q0 71 54.5 113t144.5 42q60 0 107.5 -20t80.5 -55l-52 -57q-26 26 -63.5 41.5t-75.5 15.5q-44 0 -75.5 -20.5t-31.5 -54.5q0 -33 30 -49t85 -24
q162 -24 162 -147q0 -74 -55.5 -117t-152.5 -43q-68 0 -126 24t-89 65zM457 714l-141 -154h-94l-97 154h79l69 -98l96 98h88z" />
    <glyph glyph-name="scedilla" unicode="&#x15f;" horiz-adv-x="488" 
d="M9 75l59 57q24 -32 67 -51.5t91 -19.5q52 0 84.5 21.5t32.5 58.5q0 33 -26.5 50t-74.5 25q-77 12 -126.5 43.5t-49.5 101.5q0 71 54.5 113t144.5 42q60 0 107.5 -20t80.5 -55l-52 -57q-26 26 -63.5 41.5t-75.5 15.5q-44 0 -75.5 -20.5t-31.5 -54.5q0 -33 30 -49t85 -24
q162 -24 162 -147q0 -74 -55.5 -117t-152.5 -43q-68 0 -126 24t-89 65zM341 -110q0 -38 -32 -61.5t-84 -23.5q-55 0 -92 31l27 34q11 -10 27.5 -15.5t31.5 -5.5q23 0 38.5 12.5t15.5 31.5q0 13 -8 21t-21 8q-24 0 -43 -21l-1 1l-40 12l53 101h45l-30 -60q18 5 34 5
q36 0 57.5 -19t21.5 -51z" />
    <glyph glyph-name="scircumflex" unicode="&#x15d;" horiz-adv-x="488" 
d="M9 75l59 57q24 -32 67 -51.5t91 -19.5q52 0 84.5 21.5t32.5 58.5q0 33 -26.5 50t-74.5 25q-77 12 -126.5 43.5t-49.5 101.5q0 71 54.5 113t144.5 42q60 0 107.5 -20t80.5 -55l-52 -57q-26 26 -63.5 41.5t-75.5 15.5q-44 0 -75.5 -20.5t-31.5 -54.5q0 -33 30 -49t85 -24
q162 -24 162 -147q0 -74 -55.5 -117t-152.5 -43q-68 0 -126 24t-89 65zM359 560l-69 98l-96 -98h-88l141 154h94l97 -154h-79z" />
    <glyph glyph-name="uni0219" unicode="&#x219;" horiz-adv-x="488" 
d="M9 75l59 57q24 -32 67 -51.5t91 -19.5q52 0 84.5 21.5t32.5 58.5q0 33 -26.5 50t-74.5 25q-77 12 -126.5 43.5t-49.5 101.5q0 71 54.5 113t144.5 42q60 0 107.5 -20t80.5 -55l-52 -57q-26 26 -63.5 41.5t-75.5 15.5q-44 0 -75.5 -20.5t-31.5 -54.5q0 -33 30 -49t85 -24
q162 -24 162 -147q0 -74 -55.5 -117t-152.5 -43q-68 0 -126 24t-89 65zM193 -48h85l-65 -173h-67z" />
    <glyph glyph-name="germandbls" unicode="&#xdf;" horiz-adv-x="589" 
d="M540 212q0 -65 -30.5 -114.5t-85 -77t-124.5 -27.5q-25 0 -42 3t-47 11l29 76q27 -11 58 -11q67 0 109.5 39.5t42.5 103.5q0 54 -29.5 88t-79.5 34h-45l14 79h30q34 0 64 17t48 47t18 66q0 49 -32.5 82.5t-85.5 33.5q-55 0 -93 -37.5t-50 -103.5l-91 -521h-89l94 538
q17 98 78.5 152t154.5 54q62 0 108.5 -24.5t72 -68t25.5 -97.5q0 -58 -29.5 -105.5t-78.5 -71.5q40 -22 63 -65.5t23 -99.5z" />
    <glyph glyph-name="longs" unicode="&#x17f;" horiz-adv-x="362" 
d="M434 720l-35 -70q-36 15 -70 15q-45 0 -71.5 -26t-26.5 -70q0 -10 5 -40q5 -20 5 -35q0 -26 -4 -46l-79 -448h-89l75 424h-92l13 78h86q-1 9 -5 32q-6 32 -6 50q0 71 51.5 115.5t134.5 44.5q29 0 58.5 -7t49.5 -17z" />
    <glyph glyph-name="t" unicode="t" horiz-adv-x="410" 
d="M190 147q-2 -14 -2 -22q0 -27 16 -42t46 -15q35 0 74 16l14 -76q-51 -21 -104 -21q-63 0 -99.5 33t-36.5 91q0 19 3 35l49 278h-98l14 78h98l25 145h89l-26 -145h156l-14 -78h-155z" />
    <glyph glyph-name="tbar" unicode="&#x167;" horiz-adv-x="410" 
d="M190 147q-2 -14 -2 -22q0 -27 16 -42t46 -15q35 0 74 16l14 -76q-51 -21 -104 -21q-63 0 -99.5 33t-36.5 91q0 19 3 35l49 278h-98l14 78h98l25 145h89l-26 -145h156l-14 -78h-155zM38 314h331l-11 -64h-331z" />
    <glyph glyph-name="tcaron" unicode="&#x165;" horiz-adv-x="410" 
d="M190 147q-2 -14 -2 -22q0 -27 16 -42t46 -15q35 0 74 16l14 -76q-51 -21 -104 -21q-63 0 -99.5 33t-36.5 91q0 19 3 35l49 278h-98l14 78h98l25 145h89l-26 -145h156l-14 -78h-155zM350 769h79l-58 -233h-63z" />
    <glyph glyph-name="uni0163" unicode="&#x163;" horiz-adv-x="410" 
d="M190 147q-2 -14 -2 -22q0 -27 16 -42t46 -15q35 0 74 16l14 -76q-51 -21 -104 -21q-63 0 -99.5 33t-36.5 91q0 19 3 35l49 278h-98l14 78h98l25 145h89l-26 -145h156l-14 -78h-155zM295 -110q0 -38 -32 -61.5t-84 -23.5q-55 0 -92 31l27 34q11 -10 27.5 -15.5t31.5 -5.5
q23 0 38.5 12.5t15.5 31.5q0 13 -8 21t-21 8q-24 0 -43 -21l-1 1l-40 12l53 101h45l-30 -60q18 5 34 5q36 0 57.5 -19t21.5 -51z" />
    <glyph glyph-name="uni021B" unicode="&#x21b;" horiz-adv-x="410" 
d="M190 147q-2 -14 -2 -22q0 -27 16 -42t46 -15q35 0 74 16l14 -76q-51 -21 -104 -21q-63 0 -99.5 33t-36.5 91q0 19 3 35l49 278h-98l14 78h98l25 145h89l-26 -145h156l-14 -78h-155zM147 -48h85l-65 -173h-67z" />
    <glyph glyph-name="u" unicode="u" horiz-adv-x="570" 
d="M56 165q0 21 3 40l53 297h89l-52 -294q-2 -11 -2 -31q0 -51 32 -79.5t83 -28.5q57 0 94.5 37.5t48.5 103.5l52 292h89l-55 -308q-16 -94 -78.5 -150.5t-156.5 -56.5q-89 0 -144.5 49t-55.5 129z" />
    <glyph glyph-name="uacute" unicode="&#xfa;" horiz-adv-x="570" 
d="M56 165q0 21 3 40l53 297h89l-52 -294q-2 -11 -2 -31q0 -51 32 -79.5t83 -28.5q57 0 94.5 37.5t48.5 103.5l52 292h89l-55 -308q-16 -94 -78.5 -150.5t-156.5 -56.5q-89 0 -144.5 49t-55.5 129zM382 714h101l-133 -154h-80z" />
    <glyph glyph-name="ubreve" unicode="&#x16d;" horiz-adv-x="570" 
d="M56 165q0 21 3 40l53 297h89l-52 -294q-2 -11 -2 -31q0 -51 32 -79.5t83 -28.5q57 0 94.5 37.5t48.5 103.5l52 292h89l-55 -308q-16 -94 -78.5 -150.5t-156.5 -56.5q-89 0 -144.5 49t-55.5 129zM195 714h64q3 -39 30 -64t64 -25t65.5 25t37.5 64h66q-12 -67 -59 -109
t-113 -42t-109 42.5t-46 108.5z" />
    <glyph glyph-name="ucircumflex" unicode="&#xfb;" horiz-adv-x="570" 
d="M56 165q0 21 3 40l53 297h89l-52 -294q-2 -11 -2 -31q0 -51 32 -79.5t83 -28.5q57 0 94.5 37.5t48.5 103.5l52 292h89l-55 -308q-16 -94 -78.5 -150.5t-156.5 -56.5q-89 0 -144.5 49t-55.5 129zM421 560l-69 98l-96 -98h-88l141 154h94l97 -154h-79z" />
    <glyph glyph-name="udieresis" unicode="&#xfc;" horiz-adv-x="570" 
d="M56 165q0 21 3 40l53 297h89l-52 -294q-2 -11 -2 -31q0 -51 32 -79.5t83 -28.5q57 0 94.5 37.5t48.5 103.5l52 292h89l-55 -308q-16 -94 -78.5 -150.5t-156.5 -56.5q-89 0 -144.5 49t-55.5 129zM209 714h87l-23 -127h-86zM438 714h86l-22 -127h-86z" />
    <glyph glyph-name="ugrave" unicode="&#xf9;" horiz-adv-x="570" 
d="M56 165q0 21 3 40l53 297h89l-52 -294q-2 -11 -2 -31q0 -51 32 -79.5t83 -28.5q57 0 94.5 37.5t48.5 103.5l52 292h89l-55 -308q-16 -94 -78.5 -150.5t-156.5 -56.5q-89 0 -144.5 49t-55.5 129zM315 560l-108 154h98l88 -154h-78z" />
    <glyph glyph-name="uhungarumlaut" unicode="&#x171;" horiz-adv-x="570" 
d="M56 165q0 21 3 40l53 297h89l-52 -294q-2 -11 -2 -31q0 -51 32 -79.5t83 -28.5q57 0 94.5 37.5t48.5 103.5l52 292h89l-55 -308q-16 -94 -78.5 -150.5t-156.5 -56.5q-89 0 -144.5 49t-55.5 129zM506 714h101l-133 -154h-80zM298 714h101l-133 -154h-80z" />
    <glyph glyph-name="umacron" unicode="&#x16b;" horiz-adv-x="570" 
d="M56 165q0 21 3 40l53 297h89l-52 -294q-2 -11 -2 -31q0 -51 32 -79.5t83 -28.5q57 0 94.5 37.5t48.5 103.5l52 292h89l-55 -308q-16 -94 -78.5 -150.5t-156.5 -56.5q-89 0 -144.5 49t-55.5 129zM202 686h318l-10 -63h-319z" />
    <glyph glyph-name="uogonek" unicode="&#x173;" horiz-adv-x="570" 
d="M56 165q0 21 3 40l53 297h89l-52 -294q-2 -11 -2 -31q0 -51 32 -79.5t83 -28.5q57 0 94.5 37.5t48.5 103.5l52 292h89l-55 -308q-16 -94 -78.5 -150.5t-156.5 -56.5q-89 0 -144.5 49t-55.5 129zM171 -120q0 78 156 150l53 -10q-65 -38 -96 -67t-31 -56q0 -15 10 -23.5
t29 -8.5q35 0 70 28l18 -57q-22 -15 -51.5 -24t-56.5 -9q-45 0 -73 21t-28 56z" />
    <glyph glyph-name="uring" unicode="&#x16f;" horiz-adv-x="570" 
d="M56 165q0 21 3 40l53 297h89l-52 -294q-2 -11 -2 -31q0 -51 32 -79.5t83 -28.5q57 0 94.5 37.5t48.5 103.5l52 292h89l-55 -308q-16 -94 -78.5 -150.5t-156.5 -56.5q-89 0 -144.5 49t-55.5 129zM236 652q0 48 36 82.5t86 34.5q46 0 77 -29.5t31 -73.5q0 -49 -36 -83.5
t-86 -34.5q-46 0 -77 30t-31 74zM411 664q0 23 -16 39.5t-39 16.5q-26 0 -45.5 -20t-19.5 -47q0 -24 15.5 -40t39.5 -16q26 0 45.5 20t19.5 47z" />
    <glyph glyph-name="utilde" unicode="&#x169;" horiz-adv-x="570" 
d="M56 165q0 21 3 40l53 297h89l-52 -294q-2 -11 -2 -31q0 -51 32 -79.5t83 -28.5q57 0 94.5 37.5t48.5 103.5l52 292h89l-55 -308q-16 -94 -78.5 -150.5t-156.5 -56.5q-89 0 -144.5 49t-55.5 129zM338 626q-13 12 -23 18t-23 6q-20 0 -34 -14t-19 -37h-65q10 57 41.5 86
t76.5 29q28 0 44 -8.5t34 -25.5q13 -13 22 -18.5t22 -5.5q20 0 34 14t20 37h64q-10 -56 -41.5 -85.5t-76.5 -29.5q-27 0 -43.5 9t-32.5 25z" />
    <glyph glyph-name="v" unicode="v" horiz-adv-x="506" 
d="M539 502l-269 -502h-95l-120 502h93l87 -399l206 399h98z" />
    <glyph glyph-name="w" unicode="w" horiz-adv-x="789" 
d="M817 502l-227 -502h-92l-76 383l-184 -383h-92l-86 502h95l56 -384l177 384h98l70 -384l162 384h99z" />
    <glyph glyph-name="wacute" unicode="&#x1e83;" horiz-adv-x="789" 
d="M817 502l-227 -502h-92l-76 383l-184 -383h-92l-86 502h95l56 -384l177 384h98l70 -384l162 384h99zM486 714h101l-133 -154h-80z" />
    <glyph glyph-name="wcircumflex" unicode="&#x175;" horiz-adv-x="789" 
d="M817 502l-227 -502h-92l-76 383l-184 -383h-92l-86 502h95l56 -384l177 384h98l70 -384l162 384h99zM525 560l-69 98l-96 -98h-88l141 154h94l97 -154h-79z" />
    <glyph glyph-name="wdieresis" unicode="&#x1e85;" horiz-adv-x="789" 
d="M817 502l-227 -502h-92l-76 383l-184 -383h-92l-86 502h95l56 -384l177 384h98l70 -384l162 384h99zM313 714h87l-23 -127h-86zM542 714h86l-22 -127h-86z" />
    <glyph glyph-name="wgrave" unicode="&#x1e81;" horiz-adv-x="789" 
d="M817 502l-227 -502h-92l-76 383l-184 -383h-92l-86 502h95l56 -384l177 384h98l70 -384l162 384h99zM419 560l-108 154h98l88 -154h-78z" />
    <glyph glyph-name="x" unicode="x" horiz-adv-x="505" 
d="M303 251l131 -251h-94l-96 185l-146 -185h-106l208 260l-129 242h96l93 -179l143 179h105z" />
    <glyph glyph-name="y" unicode="y" horiz-adv-x="510" 
d="M543 502l-407 -686h-101l156 257l-136 429h93l101 -341l195 341h99z" />
    <glyph glyph-name="yacute" unicode="&#xfd;" horiz-adv-x="510" 
d="M543 502l-407 -686h-101l156 257l-136 429h93l101 -341l195 341h99zM353 714h101l-133 -154h-80z" />
    <glyph glyph-name="ycircumflex" unicode="&#x177;" horiz-adv-x="510" 
d="M543 502l-407 -686h-101l156 257l-136 429h93l101 -341l195 341h99zM392 560l-69 98l-96 -98h-88l141 154h94l97 -154h-79z" />
    <glyph glyph-name="ydieresis" unicode="&#xff;" horiz-adv-x="510" 
d="M543 502l-407 -686h-101l156 257l-136 429h93l101 -341l195 341h99zM180 714h87l-23 -127h-86zM409 714h86l-22 -127h-86z" />
    <glyph glyph-name="ygrave" unicode="&#x1ef3;" horiz-adv-x="510" 
d="M543 502l-407 -686h-101l156 257l-136 429h93l101 -341l195 341h99zM286 560l-108 154h98l88 -154h-78z" />
    <glyph glyph-name="z" unicode="z" horiz-adv-x="459" 
d="M9 73l313 351h-258l13 78h372l-13 -73l-313 -351h273l-14 -78h-386z" />
    <glyph glyph-name="zacute" unicode="&#x17a;" horiz-adv-x="459" 
d="M9 73l313 351h-258l13 78h372l-13 -73l-313 -351h273l-14 -78h-386zM324 714h101l-133 -154h-80z" />
    <glyph glyph-name="zcaron" unicode="&#x17e;" horiz-adv-x="459" 
d="M9 73l313 351h-258l13 78h372l-13 -73l-313 -351h273l-14 -78h-386zM461 714l-141 -154h-94l-97 154h79l69 -98l96 98h88z" />
    <glyph glyph-name="zdotaccent" unicode="&#x17c;" horiz-adv-x="459" 
d="M9 73l313 351h-258l13 78h372l-13 -73l-313 -351h273l-14 -78h-386zM264 714h89l-22 -127h-89z" />
    <glyph glyph-name="cacute.aalt" horiz-adv-x="537" 
d="M265 -14q-65 0 -116.5 30.5t-80.5 85t-29 123.5q0 82 34.5 148.5t95.5 104.5t136 38q65 0 115 -32.5t78 -88.5l-80 -41q-19 36 -49.5 58t-68.5 22q-45 0 -84 -27t-61.5 -73.5t-22.5 -101.5q0 -73 38.5 -118.5t98.5 -45.5q38 0 71.5 20.5t57.5 55.5l74 -48
q-36 -54 -89 -82t-118 -28zM335 714h91l-88 -154h-76z" />
    <glyph glyph-name="nacute.aalt" horiz-adv-x="577" 
d="M523 354q0 -26 -4 -50l-54 -304h-89l52 292q4 26 4 41q0 48 -26.5 75.5t-73.5 27.5q-64 0 -110.5 -50t-60.5 -133l-44 -253h-89l88 502h89l-11 -60q64 73 172 73q73 0 115 -44t42 -117zM361 714h91l-88 -154h-76z" />
    <glyph glyph-name="oacute.aalt" horiz-adv-x="576" 
d="M39 227q0 83 34.5 149t95.5 103t139 37q65 0 117.5 -31t82 -86t29.5 -124q0 -83 -34.5 -149t-95.5 -103t-139 -37q-65 0 -117.5 31t-82 86t-29.5 124zM445 269q0 74 -39.5 119.5t-103.5 45.5q-48 0 -87 -26.5t-61.5 -72.5t-22.5 -102q0 -74 39.5 -119.5t103.5 -45.5
q48 0 87 26.5t61.5 72.5t22.5 102zM337 714h91l-88 -154h-76z" />
    <glyph glyph-name="sacute.aalt" horiz-adv-x="488" 
d="M9 75l59 57q24 -32 67 -51.5t91 -19.5q52 0 84.5 21.5t32.5 58.5q0 33 -26.5 50t-74.5 25q-77 12 -126.5 43.5t-49.5 101.5q0 71 54.5 113t144.5 42q60 0 107.5 -20t80.5 -55l-52 -57q-26 26 -63.5 41.5t-75.5 15.5q-44 0 -75.5 -20.5t-31.5 -54.5q0 -33 30 -49t85 -24
q162 -24 162 -147q0 -74 -55.5 -117t-152.5 -43q-68 0 -126 24t-89 65zM296 714h91l-88 -154h-76z" />
    <glyph glyph-name="zacute.aalt" horiz-adv-x="459" 
d="M9 73l313 351h-258l13 78h372l-13 -73l-313 -351h273l-14 -78h-386zM300 714h91l-88 -154h-76z" />
    <glyph glyph-name="ordfeminine" unicode="&#xaa;" horiz-adv-x="399" 
d="M433 700l-58 -330h-71l6 33q-19 -19 -44 -30t-51 -11q-35 0 -64.5 19t-47 53t-17.5 78q0 58 24.5 102.5t68.5 69.5t101 25q35 0 76 -9h77zM347 629q-14 6 -32 9.5t-32 3.5q-54 0 -87.5 -34.5t-33.5 -89.5q0 -41 20 -65.5t54 -24.5t59 27.5t34 75.5z" />
    <glyph glyph-name="ordmasculine" unicode="&#xba;" horiz-adv-x="406" 
d="M87 521q0 55 23 97.5t63.5 66.5t92.5 24q67 0 110 -45t43 -114q0 -55 -22.5 -98t-63 -67t-92.5 -24q-44 0 -79 21t-55 57.5t-20 81.5zM344 545q0 43 -23 69.5t-60 26.5q-41 0 -69.5 -33.5t-28.5 -82.5q0 -43 22.5 -69.5t59.5 -26.5q42 0 70.5 33.5t28.5 82.5z" />
    <glyph glyph-name="uni207F" unicode="&#x207f;" horiz-adv-x="384" 
d="M402 603q0 -10 -4 -36l-35 -197h-74l33 187q2 18 2 27q0 27 -15 43t-42 16q-36 0 -62.5 -29.5t-34.5 -78.5l-29 -165h-74l57 330h73l-7 -39q41 47 108 47q47 0 75.5 -28.5t28.5 -76.5z" />
    <glyph glyph-name="a.superior" horiz-adv-x="399" 
d="M433 700l-58 -330h-71l6 33q-19 -19 -44 -30t-51 -11q-35 0 -64.5 19t-47 53t-17.5 78q0 58 24.5 102.5t68.5 69.5t101 25q35 0 76 -9h77zM347 629q-14 6 -32 9.5t-32 3.5q-54 0 -87.5 -34.5t-33.5 -89.5q0 -41 20 -65.5t54 -24.5t59 27.5t34 75.5z" />
    <glyph glyph-name="b.aalt" horiz-adv-x="406" 
d="M419 552q0 -54 -22 -97.5t-59.5 -68.5t-83.5 -25q-34 0 -63 15t-47 42l-8 -48h-70l84 475h75l-30 -171q37 35 88 35q60 0 98 -44t38 -113zM342 546q0 42 -22 68.5t-57 26.5q-40 0 -67 -34t-27 -83q0 -43 21.5 -69t55.5 -26q41 0 68.5 34t27.5 83z" />
    <glyph glyph-name="c.aalt" horiz-adv-x="378" 
d="M240 361q-67 0 -110 45t-43 115q0 53 23 96t63 67.5t90 24.5q46 0 80.5 -22.5t52.5 -61.5l-66 -34q-11 22 -29 36t-40 14q-41 0 -69.5 -33.5t-28.5 -83.5q0 -42 22.5 -68.5t57.5 -26.5q22 0 41.5 13t33.5 34l62 -37q-24 -38 -60 -58t-80 -20z" />
    <glyph glyph-name="d.aalt" horiz-adv-x="405" 
d="M465 845l-84 -475h-70l6 38q-40 -46 -95 -46q-60 0 -97.5 43.5t-37.5 112.5q0 55 21.5 98.5t59.5 68t84 24.5q33 0 60.5 -15t44.5 -42l33 193h75zM337 547q0 42 -22 68t-56 26q-41 0 -68.5 -34t-27.5 -83q0 -42 22 -68.5t57 -26.5q40 0 67.5 34t27.5 84z" />
    <glyph glyph-name="e.aalt" horiz-adv-x="386" 
d="M397 544l-234 -40q5 -36 26.5 -57.5t54.5 -21.5q23 0 45 13.5t37 35.5l56 -40q-22 -34 -59.5 -53.5t-83.5 -19.5q-69 0 -110.5 44.5t-41.5 115.5q0 54 21.5 97t59.5 67t87 24q43 0 76 -20.5t50.5 -54.5t17.5 -73q0 -7 -2 -17zM164 557l158 27q-6 29 -24 46t-45 17
q-33 0 -57 -25t-32 -65z" />
    <glyph glyph-name="h.aalt" horiz-adv-x="383" 
d="M401 603q0 -10 -4 -36l-35 -197h-74l33 187q2 18 2 27q0 27 -15 43t-42 16q-36 0 -62.5 -29.5t-34.5 -78.5l-29 -165h-74l84 475h74l-32 -179q39 42 105 42q47 0 75.5 -28.5t28.5 -76.5z" />
    <glyph glyph-name="n.aalt" horiz-adv-x="384" 
d="M402 603q0 -10 -4 -36l-35 -197h-74l33 187q2 18 2 27q0 27 -15 43t-42 16q-36 0 -62.5 -29.5t-34.5 -78.5l-29 -165h-74l57 330h73l-7 -39q41 47 108 47q47 0 75.5 -28.5t28.5 -76.5z" />
    <glyph glyph-name="o.superior" horiz-adv-x="406" 
d="M87 521q0 55 23 97.5t63.5 66.5t92.5 24q67 0 110 -45t43 -114q0 -55 -22.5 -98t-63 -67t-92.5 -24q-44 0 -79 21t-55 57.5t-20 81.5zM344 545q0 43 -23 69.5t-60 26.5q-41 0 -69.5 -33.5t-28.5 -82.5q0 -43 22.5 -69.5t59.5 -26.5q42 0 70.5 33.5t28.5 82.5z" />
    <glyph glyph-name="r.aalt" horiz-adv-x="339" 
d="M379 608l-71 -20q-9 55 -51 55q-33 0 -55.5 -31.5t-33.5 -91.5l-27 -150h-74l57 330h73l-6 -35q31 43 91 43q41 0 66 -26t31 -74z" />
    <glyph glyph-name="s.aalt" horiz-adv-x="345" 
d="M63 419l47 45q37 -44 97 -44q31 0 49.5 12t18.5 33q0 34 -61 43q-53 7 -84.5 31.5t-31.5 64.5q0 48 37.5 76.5t98.5 28.5q37 0 66.5 -11t56.5 -35l-37 -46q-18 15 -40.5 24t-45.5 9q-26 0 -44.5 -11.5t-18.5 -30.5q0 -18 18.5 -27.5t58.5 -16.5q46 -7 73.5 -30t27.5 -65
q0 -50 -39.5 -79t-104.5 -29q-47 0 -83 15.5t-59 42.5z" />
    <glyph glyph-name="t.aalt" horiz-adv-x="302" 
d="M206 477q-2 -8 -2 -16q0 -15 10 -23.5t29 -8.5q20 0 47 9l11 -63q-31 -14 -72 -14q-46 0 -73 24t-27 64q0 11 3 27l28 158h-65l12 66h64l17 94h75l-17 -94h100l-11 -66h-101z" />
    <glyph glyph-name="uni0410" unicode="&#x410;" horiz-adv-x="674" 
d="M471 173h-302l-89 -173h-103l366 700h96l170 -700h-98zM451 259l-74 318l-164 -318h238z" />
    <glyph glyph-name="uni0411" unicode="&#x411;" horiz-adv-x="609" 
d="M242 613l-36 -199h174q55 0 99.5 -25t69.5 -69t25 -101q0 -64 -31.5 -113.5t-88.5 -77.5t-131 -28h-283l124 700h430l-16 -87h-336zM192 331l-43 -243h171q71 0 114 36.5t43 96.5q0 50 -32 80t-86 30h-167z" />
    <glyph glyph-name="uni0412" unicode="&#x412;" horiz-adv-x="618" 
d="M572 208q0 -56 -27 -103.5t-74.5 -76t-106.5 -28.5h-324l124 700h271q70 0 116 -45t46 -117q0 -61 -32.5 -109t-82.5 -69q41 -18 65.5 -58t24.5 -94zM242 613l-39 -217h164q58 0 96.5 35.5t38.5 89.5q0 42 -24.5 67t-65.5 25h-170zM480 214q0 43 -25.5 71t-67.5 28h-199
l-40 -226h205q56 0 91.5 37t35.5 90z" />
    <glyph glyph-name="uni0413" unicode="&#x413;" horiz-adv-x="518" 
d="M559 612h-318l-108 -612h-93l124 700h411z" />
    <glyph glyph-name="uni0403" unicode="&#x403;" horiz-adv-x="518" 
d="M559 612h-318l-108 -612h-93l124 700h411zM404 903h101l-133 -154h-80z" />
    <glyph glyph-name="uni0490" unicode="&#x490;" horiz-adv-x="519" 
d="M597 820l-37 -208h-319l-108 -612h-93l124 700h323l21 120h89z" />
    <glyph glyph-name="uni0414" unicode="&#x414;" horiz-adv-x="727" 
d="M580 88h89l-38 -211h-89l22 123h-504l-22 -123h-89l38 211h57q38 39 66.5 95.5t54.5 142.5q37 123 83 374h440zM487 88l92 524h-260q-39 -201 -66 -301q-40 -148 -105 -223h339z" />
    <glyph glyph-name="uni0415" unicode="&#x415;" horiz-adv-x="574" 
d="M241 612l-37 -212h239l-15 -88h-240l-39 -224h358l-15 -88h-452l124 700h445l-15 -88h-353z" />
    <glyph glyph-name="uni0401" unicode="&#x401;" horiz-adv-x="574" 
d="M241 612l-37 -212h239l-15 -88h-240l-39 -224h358l-15 -88h-452l124 700h445l-15 -88h-353zM256 890h87l-23 -127h-86zM485 890h86l-22 -127h-86z" />
    <glyph glyph-name="uni0416" unicode="&#x416;" horiz-adv-x="890" 
d="M680 354l148 -354h-102l-123 311h-101l-55 -311h-93l55 311h-93l-220 -311h-108l258 355l-149 345h96l129 -302h103l53 302h93l-53 -302h94l221 302h103z" />
    <glyph glyph-name="uni0417" unicode="&#x417;" horiz-adv-x="573" 
d="M534 203q0 -62 -33.5 -111.5t-92.5 -77.5t-131 -28q-89 0 -155.5 45t-94.5 121l81 34q21 -55 65 -84.5t106 -29.5q45 0 81.5 17.5t57.5 48.5t21 69q0 51 -36.5 82t-97.5 31h-78l14 83h74q62 0 101.5 35t39.5 89q0 46 -32 73t-85 27q-54 0 -100 -27.5t-77 -76.5l-75 50
q46 70 112 104.5t146 34.5q62 0 109 -22.5t73 -62.5t26 -92q0 -59 -29 -106t-77 -72q41 -24 64 -64t23 -90z" />
    <glyph glyph-name="uni0418" unicode="&#x418;" horiz-adv-x="717" 
d="M712 700l-124 -700h-93l96 544l-455 -544h-96l124 700h93l-96 -544l455 544h96z" />
    <glyph glyph-name="uni0419" unicode="&#x419;" horiz-adv-x="717" 
d="M712 700l-124 -700h-93l96 544l-455 -544h-96l124 700h93l-96 -544l455 544h96zM297 903h64q3 -38 29.5 -62t63.5 -24q38 0 66 23.5t37 62.5h67q-12 -66 -59.5 -107.5t-112.5 -41.5q-66 0 -109.5 42t-45.5 107z" />
    <glyph glyph-name="uni041A" unicode="&#x41a;" horiz-adv-x="587" 
d="M368 354l157 -354h-101l-132 311h-104l-55 -311h-93l124 700h93l-53 -302h96l228 302h106z" />
    <glyph glyph-name="uni040C" unicode="&#x40c;" horiz-adv-x="587" 
d="M368 354l157 -354h-101l-132 311h-104l-55 -311h-93l124 700h93l-53 -302h96l228 302h106zM433 903h101l-133 -154h-80z" />
    <glyph glyph-name="uni041B" unicode="&#x41b;" horiz-adv-x="671" 
d="M543 0h-94l108 612h-259q-38 -215 -71 -334q-35 -124 -80.5 -187.5t-122.5 -102.5l-40 76q58 30 93 80t64 149q36 128 85 407h440z" />
    <glyph glyph-name="uni041C" unicode="&#x41c;" horiz-adv-x="833" 
d="M828 700l-124 -700h-93l92 526l-252 -347h-88l-136 351l-94 -530h-93l124 700h95l158 -423l302 423h109z" />
    <glyph glyph-name="uni041D" unicode="&#x41d;" horiz-adv-x="707" 
d="M703 700l-124 -700h-94l56 316h-352l-56 -316h-93l124 700h93l-52 -296h352l52 296h94z" />
    <glyph glyph-name="uni041E" unicode="&#x41e;" horiz-adv-x="756" 
d="M64 315q0 112 47.5 203t130.5 143.5t185 52.5q86 0 154 -42t106.5 -117t38.5 -170q0 -112 -47.5 -203.5t-130 -143.5t-183.5 -52q-86 0 -154.5 42t-107.5 117t-39 170zM631 382q0 71 -26.5 126.5t-74 86t-108.5 30.5q-73 0 -133 -40.5t-94.5 -110.5t-34.5 -156
q0 -71 26.5 -126.5t74 -86t108.5 -30.5q73 0 133 40.5t94.5 111t34.5 155.5z" />
    <glyph glyph-name="uni041F" unicode="&#x41f;" horiz-adv-x="702" 
d="M574 0h-94l108 612h-347l-108 -612h-93l124 700h534z" />
    <glyph glyph-name="uni0420" unicode="&#x420;" 
d="M619 487q0 -77 -35 -138.5t-98.5 -96.5t-145.5 -35h-182l-38 -217h-94l124 700h245q100 0 162 -57t62 -156zM522 482q0 63 -38.5 96.5t-106.5 33.5h-149l-55 -311h158q56 0 99.5 23.5t67.5 64.5t24 93z" />
    <glyph glyph-name="uni0421" unicode="&#x421;" horiz-adv-x="672" 
d="M64 315q0 112 46.5 203.5t128.5 143.5t183 52q151 0 239 -133l-75 -52q-60 96 -169 96q-72 0 -131 -40.5t-93 -111t-34 -155.5q0 -71 26.5 -126t74 -86t108.5 -31q55 0 98.5 22.5t79.5 70.5l71 -55q-100 -127 -253 -127q-86 0 -154.5 42.5t-107 117.5t-38.5 169z" />
    <glyph glyph-name="uni0422" unicode="&#x422;" horiz-adv-x="579" 
d="M618 612h-218l-108 -612h-94l108 612h-218l16 88h530z" />
    <glyph glyph-name="uni0423" unicode="&#x423;" horiz-adv-x="594" 
d="M658 700l-333 -566q-48 -80 -91.5 -112.5t-108.5 -32.5q-33 0 -70 13l26 84q23 -9 49 -9q32 0 56.5 19.5t53.5 64.5l15 22l-160 517h95l127 -417l240 417h101z" />
    <glyph glyph-name="uni040E" unicode="&#x40e;" horiz-adv-x="594" 
d="M658 700l-333 -566q-48 -80 -91.5 -112.5t-108.5 -32.5q-33 0 -70 13l26 84q23 -9 49 -9q32 0 56.5 19.5t53.5 64.5l15 22l-160 517h95l127 -417l240 417h101zM230 903h64q3 -38 29.5 -62t63.5 -24q38 0 66 23.5t37 62.5h67q-12 -66 -59.5 -107.5t-112.5 -41.5
q-66 0 -109.5 42t-45.5 107z" />
    <glyph glyph-name="uni0424" unicode="&#x424;" horiz-adv-x="760" 
d="M760 377q0 -85 -44 -150.5t-123.5 -102.5t-180.5 -37h-15l-17 -97h-94l17 97h-5q-75 0 -134.5 31.5t-93 87t-33.5 126.5q0 83 44 149.5t122.5 104t177.5 37.5h16l15 87h94l-15 -87q77 0 138 -31.5t96 -87.5t35 -127zM318 171l63 364h-7q-70 0 -124.5 -25t-85 -70.5
t-30.5 -104.5q0 -74 48 -119t128 -45h8zM663 374q0 75 -48 118t-133 43h-7l-63 -364h6q72 0 127.5 25.5t86.5 71.5t31 106z" />
    <glyph glyph-name="uni0425" unicode="&#x425;" horiz-adv-x="610" 
d="M375 352l173 -352h-100l-139 291l-218 -291h-107l277 364l-164 336h100l130 -274l203 274h107z" />
    <glyph glyph-name="uni0427" unicode="&#x427;" horiz-adv-x="647" 
d="M643 700l-124 -700h-94l54 304q-80 -32 -159 -32q-107 0 -166.5 52.5t-59.5 145.5q0 26 5 59l31 171h93l-30 -170q-4 -23 -4 -46q0 -61 36 -93t108 -32q39 0 81.5 9.5t80.5 27.5l54 304h94z" />
    <glyph glyph-name="uni0426" unicode="&#x426;" horiz-adv-x="731" 
d="M585 88h88l-37 -211h-89l22 123h-529l124 700h93l-108 -612h342l108 612h94z" />
    <glyph glyph-name="uni0428" unicode="&#x428;" horiz-adv-x="962" 
d="M958 700l-124 -700h-794l124 700h93l-108 -612h257l108 612h94l-108 -612h256l108 612h94z" />
    <glyph glyph-name="uni0429" unicode="&#x429;" horiz-adv-x="996" 
d="M850 88h88l-15 -88l-22 -123h-89l22 123h-794l124 700h93l-108 -612h257l108 612h94l-108 -612h256l108 612h94z" />
    <glyph glyph-name="uni040F" unicode="&#x40f;" horiz-adv-x="697" 
d="M693 700l-124 -700h-220l-22 -123h-89l22 123h-220l124 700h93l-108 -612h342l108 612h94z" />
    <glyph glyph-name="uni042C" unicode="&#x42c;" horiz-adv-x="610" 
d="M581 239q0 -70 -32 -124.5t-90.5 -84.5t-134.5 -30h-284l124 700h93l-46 -261h164q60 0 107 -24.5t73 -70t26 -105.5zM484 235q0 56 -33.5 88t-90.5 32h-164l-47 -267h176q73 0 116 41.5t43 105.5z" />
    <glyph glyph-name="uni042A" unicode="&#x42a;" horiz-adv-x="714" 
d="M685 239q0 -70 -32 -124.5t-90.5 -84.5t-134.5 -30h-284l109 613h-165l16 87h257l-46 -261h164q60 0 107 -24.5t73 -70t26 -105.5zM588 235q0 56 -33.5 88t-90.5 32h-164l-47 -267h176q73 0 116 41.5t43 105.5z" />
    <glyph glyph-name="uni042B" unicode="&#x42b;" horiz-adv-x="842" 
d="M581 239q0 -70 -32 -124.5t-90.5 -84.5t-134.5 -30h-284l124 700h93l-46 -261h164q60 0 107 -24.5t73 -70t26 -105.5zM484 235q0 56 -33.5 88t-90.5 32h-164l-47 -267h176q73 0 116 41.5t43 105.5zM745 700h93l-124 -700h-93z" />
    <glyph glyph-name="uni0409" unicode="&#x409;" horiz-adv-x="991" 
d="M962 239q0 -70 -32 -124.5t-90.5 -84.5t-134.5 -30h-269l108 612h-242q-37 -205 -72 -334q-34 -124 -79.5 -187.5t-123.5 -102.5l-39 76q58 30 93 80.5t63 148.5q19 66 39 163.5t47 243.5h423l-46 -261h149q60 0 107 -24.5t73 -70t26 -105.5zM865 235q0 56 -33.5 88
t-89.5 32h-150l-47 -267h161q73 0 116 41.5t43 105.5z" />
    <glyph glyph-name="uni040A" unicode="&#x40a;" horiz-adv-x="1025" 
d="M994 229q0 -66 -32.5 -118t-91 -81.5t-133.5 -29.5h-270l59 333h-334l-59 -333h-93l124 700h93l-50 -285h334l50 285h93l-50 -285h162q88 0 143 -50.5t55 -135.5zM897 226q0 50 -31 78t-87 28h-160l-43 -244h158q75 0 119 37.5t44 100.5z" />
    <glyph glyph-name="uni0405" unicode="&#x405;" horiz-adv-x="608" 
d="M19 92l64 65q37 -40 89.5 -62.5t118.5 -22.5q78 0 123.5 31.5t45.5 86.5q0 52 -36 77.5t-104 38.5q-224 41 -224 197q0 102 71.5 156.5t187.5 54.5q70 0 130 -26t98 -69l-62 -63q-30 33 -74 52.5t-96 19.5q-72 0 -116.5 -31.5t-44.5 -85.5t42.5 -81t116.5 -40
q91 -16 148 -60.5t57 -134.5q0 -103 -74.5 -156t-192.5 -53q-84 0 -154.5 29.5t-113.5 76.5z" />
    <glyph glyph-name="uni0404" unicode="&#x404;" horiz-adv-x="673" 
d="M546 168l71 -55q-100 -127 -253 -127q-86 0 -154.5 42.5t-107 117.5t-38.5 169q0 112 46.5 203.5t128.5 143.5t183 52q151 0 239 -133l-75 -52q-60 96 -169 96q-61 0 -113 -29.5t-88 -81.5t-49 -119h302l-14 -83h-296q1 -69 28 -123t74 -84t107 -30q55 0 98.5 22.5
t79.5 70.5z" />
    <glyph glyph-name="uni042D" unicode="&#x42d;" horiz-adv-x="673" 
d="M162 532l-71 55q100 127 253 127q86 0 154.5 -42.5t107 -117.5t38.5 -169q0 -112 -46.5 -203.5t-128.5 -143.5t-183 -52q-151 0 -239 133l75 52q60 -96 169 -96q61 0 113 29.5t88 81.5t49 119h-302l14 83h296q-1 69 -28 123t-74 84t-107 30q-55 0 -98.5 -22.5
t-79.5 -70.5z" />
    <glyph glyph-name="uni0406" unicode="&#x406;" horiz-adv-x="262" 
d="M164 700h93l-124 -700h-93z" />
    <glyph glyph-name="uni0407" unicode="&#x407;" horiz-adv-x="262" 
d="M164 700h93l-124 -700h-93zM86 890h87l-23 -127h-86zM315 890h86l-22 -127h-86z" />
    <glyph glyph-name="uni0408" unicode="&#x408;" horiz-adv-x="466" 
d="M-12 59l53 72q22 -25 53.5 -40.5t65.5 -15.5q57 0 88.5 35.5t43.5 106.5l86 483h93l-87 -494q-19 -109 -74 -164.5t-151 -55.5q-50 0 -94.5 19.5t-76.5 53.5z" />
    <glyph glyph-name="uni040B" unicode="&#x40b;" horiz-adv-x="775" 
d="M707 232q0 -29 -6 -64l-30 -169h-94l29 165q5 28 5 47q0 60 -32 90.5t-92 30.5q-71 0 -153 -37l-52 -295h-94l108 612h-208l16 88h530l-16 -88h-228l-39 -225q78 33 152 33q99 0 151.5 -49t52.5 -139z" />
    <glyph glyph-name="uni042E" unicode="&#x42e;" horiz-adv-x="972" 
d="M943 384q0 -111 -45.5 -202t-126.5 -143.5t-181 -52.5q-84 0 -149.5 41t-102.5 114t-38 168h-112l-55 -309h-93l124 700h93l-55 -308h104q14 93 62.5 166t122.5 114.5t162 41.5q85 0 151 -42t102.5 -117t36.5 -171zM847 382q0 73 -24.5 128t-69.5 85t-105 30
q-72 0 -129.5 -40.5t-90 -111t-32.5 -155.5q0 -73 24.5 -128t69.5 -85t105 -30q72 0 129.5 40.5t90 111t32.5 155.5z" />
    <glyph glyph-name="uni042F" unicode="&#x42f;" horiz-adv-x="611" 
d="M483 0h-94l48 272h-137h-1l-211 -272h-110l228 287q-59 21 -92.5 68t-33.5 112q0 69 33.5 122t93.5 82t139 29h261zM452 356l45 256h-153q-77 0 -122 -37.5t-45 -101.5q0 -55 35.5 -86t98.5 -31h141z" />
    <glyph glyph-name="uni0402" unicode="&#x402;" horiz-adv-x="777" 
d="M707 193q0 -83 -29.5 -162.5t-83 -140t-122.5 -87.5l-40 81q50 21 91 69t64.5 109.5t23.5 121.5q0 69 -35 108.5t-97 39.5q-68 0 -144 -37l-52 -295h-94l108 612h-209l16 88h530l-16 -88h-227l-40 -225q74 33 143 33q100 0 156.5 -59.5t56.5 -167.5z" />
    <glyph glyph-name="uni0492" unicode="&#x492;" horiz-adv-x="526" 
d="M247 612l-41 -235h196l-11 -64h-197l-55 -313h-93l55 313h-71l11 64h72l57 323h411l-16 -88h-318z" />
    <glyph glyph-name="uni049A" unicode="&#x49a;" horiz-adv-x="637" 
d="M580 87l-37 -210h-89l22 123h-52l-132 311h-104l-55 -311h-93l124 700h93l-53 -302h96l228 302h106l-266 -346l118 -267h94z" />
    <glyph glyph-name="uni04A2" unicode="&#x4a2;" horiz-adv-x="741" 
d="M685 87l-37 -210h-89l22 123h-96l56 316h-352l-56 -316h-93l124 700h93l-52 -296h352l52 296h94l-109 -613h91z" />
    <glyph glyph-name="uni04AE" unicode="&#x4ae;" horiz-adv-x="590" 
d="M654 700l-299 -426l-48 -274h-89l48 274l-171 426h92l134 -337l232 337h101z" />
    <glyph glyph-name="uni04B0" unicode="&#x4b0;" horiz-adv-x="590" 
d="M356 275h150l-12 -64h-150l-37 -211h-89l37 211h-148l12 64h147l-171 425h92l134 -337l232 337h101z" />
    <glyph glyph-name="uni04C0" unicode="&#x4c0;" horiz-adv-x="262" 
d="M164 700h93l-124 -700h-93z" />
    <glyph glyph-name="uni04E8" unicode="&#x4e8;" horiz-adv-x="756" 
d="M726 385q0 -112 -47.5 -203.5t-130 -143.5t-183.5 -52q-86 0 -154.5 42t-107.5 117t-39 170q0 112 47.5 203t130.5 143.5t185 52.5q86 0 154 -42t106.5 -117t38.5 -170zM166 387h465q-1 70 -27.5 124t-73.5 84t-108 30q-63 0 -116.5 -30.5t-90 -84.5t-49.5 -123zM625 314
h-465q1 -70 27.5 -124.5t73.5 -84.5t108 -30q63 0 116.5 30.5t90 85t49.5 123.5z" />
    <glyph glyph-name="uni0414.aalt" horiz-adv-x="723" 
d="M672 88l-37 -211h-89l22 123h-501l-22 -123h-89l37 211h66l328 612h95l122 -612h68zM509 88l-91 488l-254 -488h345z" />
    <glyph glyph-name="uni0416.aalt" horiz-adv-x="900" 
d="M695 329l140 -307l-88 -32l-139 320h-107l-55 -310h-93l54 310h-64q-10 0 -28 2l-244 -321l-71 51l234 305q-59 44 -92 135.5t-33 217.5h95q1 -148 39.5 -225t116.5 -77h63l53 302h94l-53 -302h82q76 0 136 80t89 222h96q-33 -145 -91 -240t-134 -131z" />
    <glyph glyph-name="uni041A.aalt" horiz-adv-x="674" 
d="M511 0l-134 577l-297 -577h-103l366 700h96l170 -700h-98z" />
    <glyph glyph-name="uni041B.aalt" horiz-adv-x="582" 
d="M376 329l140 -307l-88 -32l-139 320h-114l-54 -310h-94l124 700h93l-53 -302h89q76 0 136 80t90 222h95q-32 -144 -90.5 -239.5t-134.5 -131.5z" />
    <glyph glyph-name="uni0430" unicode="&#x430;" horiz-adv-x="581" 
d="M553 502l-88 -502h-89l9 52q-28 -31 -65.5 -48t-80.5 -17q-59 0 -104.5 28t-71 79.5t-25.5 121.5q0 89 37.5 157t106.5 105.5t160 37.5q67 0 120 -14h91zM451 417q-23 9 -54 13.5t-55 4.5q-63 0 -111 -27t-74.5 -75.5t-26.5 -111.5q0 -70 34.5 -112t92.5 -42q61 0 105 48
t58 129z" />
    <glyph glyph-name="uni0431" unicode="&#x431;" horiz-adv-x="580" 
d="M160 423q32 39 79 60.5t100 21.5q60 0 106 -29.5t71 -81.5t25 -119q0 -83 -33 -149t-93 -103t-139 -37q-69 0 -121.5 32t-81 87.5t-28.5 124.5q0 48 5 83q20 138 59.5 224.5t104 131.5t161.5 53q26 4 46 5.5t34 3.5q80 8 103 13l-7 -80q-30 -7 -69 -10.5t-49 -4.5l-57 -6
q-84 -10 -135.5 -58t-80.5 -162zM133 225q0 -68 40.5 -113t106.5 -45q51 0 89.5 28t59 74t20.5 99q0 70 -37 114.5t-101 44.5q-51 0 -91.5 -27.5t-63.5 -74t-23 -100.5z" />
    <glyph glyph-name="uni0432" unicode="&#x432;" horiz-adv-x="507" 
d="M452 154q0 -43 -22.5 -78.5t-61.5 -55.5t-87 -20h-253l88 502h210q62 0 101.5 -34.5t39.5 -86.5q0 -40 -22.5 -73t-59.5 -50q31 -13 49 -40.5t18 -63.5zM190 426l-24 -134h126q37 0 62 20.5t25 54.5q0 26 -18.5 42.5t-46.5 16.5h-124zM364 159q0 26 -16.5 42.5
t-42.5 16.5h-152l-25 -142h148q37 0 62.5 24t25.5 59z" />
    <glyph glyph-name="uni0433" unicode="&#x433;" horiz-adv-x="426" 
d="M431 424h-240l-74 -424h-89l88 502h329z" />
    <glyph glyph-name="uni0453" unicode="&#x453;" horiz-adv-x="426" 
d="M431 424h-240l-74 -424h-89l88 502h329zM312 714h101l-133 -154h-80z" />
    <glyph glyph-name="uni0491" unicode="&#x491;" horiz-adv-x="426" 
d="M465 613l-33 -189h-241l-74 -424h-89l88 502h245l20 111h84z" />
    <glyph glyph-name="uni0434" unicode="&#x434;" horiz-adv-x="588" 
d="M532 78l-34 -189h-84l19 111h-370l-19 -111h-84l33 189h46q47 66 75.5 154t65.5 270h350l-74 -424h76zM367 78l60 346h-180q-28 -136 -53 -212.5t-63 -133.5h236z" />
    <glyph glyph-name="uni0435" unicode="&#x435;" horiz-adv-x="539" 
d="M501 273l-367 -70q7 -63 42 -100t90 -37q41 0 75.5 22.5t55.5 59.5l78 -45q-34 -56 -89.5 -86.5t-126.5 -30.5q-65 0 -114.5 31t-77 86t-27.5 124q0 84 31.5 149.5t90 102.5t136.5 37q59 0 105.5 -30.5t72.5 -81t26 -106.5q0 -18 -1 -25zM136 278l271 52q-10 47 -40 77
t-75 30q-61 0 -103 -44.5t-53 -114.5z" />
    <glyph glyph-name="uni0451" unicode="&#x451;" horiz-adv-x="539" 
d="M501 273l-367 -70q7 -63 42 -100t90 -37q41 0 75.5 22.5t55.5 59.5l78 -45q-34 -56 -89.5 -86.5t-126.5 -30.5q-65 0 -114.5 31t-77 86t-27.5 124q0 84 31.5 149.5t90 102.5t136.5 37q59 0 105.5 -30.5t72.5 -81t26 -106.5q0 -18 -1 -25zM136 278l271 52q-10 47 -40 77
t-75 30q-61 0 -103 -44.5t-53 -114.5zM175 714h87l-23 -127h-86zM404 714h86l-22 -127h-86z" />
    <glyph glyph-name="uni0436" unicode="&#x436;" horiz-adv-x="786" 
d="M572 254l142 -254h-98l-118 217h-69l-38 -217h-89l38 217h-64l-187 -217h-103l227 262l-142 240h94l118 -207h71l36 207h89l-36 -207h64l181 207h100z" />
    <glyph glyph-name="uni0437" unicode="&#x437;" horiz-adv-x="489" 
d="M430 147q0 -46 -26 -82.5t-72 -56.5t-105 -20q-71 0 -123 31.5t-75 88.5l74 34q14 -36 46 -56.5t78 -20.5q51 0 82.5 23t31.5 61q0 34 -25 53.5t-69 19.5h-66l12 70h60q47 0 71.5 19t24.5 53q0 32 -24.5 52t-65.5 20q-38 0 -70 -17.5t-55 -52.5l-68 44q37 53 86.5 78
t113.5 25q78 0 124.5 -37t46.5 -101q0 -39 -20 -70t-53 -47q29 -17 47.5 -46t18.5 -65z" />
    <glyph glyph-name="uni0438" unicode="&#x438;" horiz-adv-x="577" 
d="M549 502l-88 -502h-89l11 60q-64 -73 -172 -73q-73 0 -115 44t-42 117q0 26 4 50l54 304h89l-52 -292q-4 -26 -4 -41q0 -48 26.5 -75.5t73.5 -27.5q64 0 110.5 50t60.5 133l44 253h89z" />
    <glyph glyph-name="uni0439" unicode="&#x439;" horiz-adv-x="577" 
d="M549 502l-88 -502h-89l11 60q-64 -73 -172 -73q-73 0 -115 44t-42 117q0 26 4 50l54 304h89l-52 -292q-4 -26 -4 -41q0 -48 26.5 -75.5t73.5 -27.5q64 0 110.5 50t60.5 133l44 253h89zM192 714h64q3 -39 30 -64t64 -25t65.5 25t37.5 64h66q-12 -67 -59 -109t-113 -42
t-109 42.5t-46 108.5z" />
    <glyph glyph-name="uni043A" unicode="&#x43a;" horiz-adv-x="519" 
d="M306 254l142 -254h-98l-118 217h-77l-38 -217h-89l88 502h89l-36 -207h72l181 207h100z" />
    <glyph glyph-name="uni045C" unicode="&#x45c;" horiz-adv-x="519" 
d="M306 254l142 -254h-98l-118 217h-77l-38 -217h-89l88 502h89l-36 -207h72l181 207h100zM350 714h101l-133 -154h-80z" />
    <glyph glyph-name="uni043B" unicode="&#x43b;" horiz-adv-x="546" 
d="M430 0h-89l74 424h-170q-23 -132 -46 -203q-30 -94 -72.5 -149t-107.5 -84l-35 71q48 23 80 65.5t56 118.5q26 83 56 259h342z" />
    <glyph glyph-name="uni043C" unicode="&#x43c;" horiz-adv-x="677" 
d="M650 502l-88 -502h-89l62 356l-183 -238h-72l-100 240l-63 -358h-89l88 502h93l120 -294l219 294h102z" />
    <glyph glyph-name="uni043D" unicode="&#x43d;" horiz-adv-x="572" 
d="M544 502l-88 -502h-89l38 219h-250l-38 -219h-89l88 502h89l-36 -205h250l36 205h89z" />
    <glyph glyph-name="uni043E" unicode="&#x43e;" horiz-adv-x="576" 
d="M39 227q0 83 34.5 149t95.5 103t139 37q65 0 117.5 -31t82 -86t29.5 -124q0 -83 -34.5 -149t-95.5 -103t-139 -37q-65 0 -117.5 31t-82 86t-29.5 124zM445 269q0 74 -39.5 119.5t-103.5 45.5q-48 0 -87 -26.5t-61.5 -72.5t-22.5 -102q0 -74 39.5 -119.5t103.5 -45.5
q48 0 87 26.5t61.5 72.5t22.5 102z" />
    <glyph glyph-name="uni043F" unicode="&#x43f;" horiz-adv-x="577" 
d="M523 354q0 -26 -4 -50l-54 -304h-89l52 292q4 26 4 41q0 48 -26.5 75.5t-73.5 27.5q-64 0 -110.5 -50t-60.5 -133l-44 -253h-89l88 502h89l-11 -60q64 73 172 73q73 0 115 -44t42 -117z" />
    <glyph glyph-name="uni0440" unicode="&#x440;" horiz-adv-x="595" 
d="M556 277q0 -82 -34 -148.5t-92.5 -104.5t-129.5 -38q-55 0 -98.5 25.5t-70.5 70.5l-47 -266h-89l121 686h89l-9 -53q55 65 153 65q60 0 107 -30t73.5 -84t26.5 -123zM463 270q0 73 -38.5 118.5t-99.5 45.5q-46 0 -83.5 -27t-59.5 -73t-22 -102q0 -73 38.5 -118.5
t97.5 -45.5q45 0 83.5 27t61 73.5t22.5 101.5z" />
    <glyph glyph-name="uni0441" unicode="&#x441;" horiz-adv-x="537" 
d="M265 -14q-65 0 -116.5 30.5t-80.5 85t-29 123.5q0 82 34.5 148.5t95.5 104.5t136 38q65 0 115 -32.5t78 -88.5l-80 -41q-19 36 -49.5 58t-68.5 22q-45 0 -84 -27t-61.5 -73.5t-22.5 -101.5q0 -73 38.5 -118.5t98.5 -45.5q38 0 71.5 20.5t57.5 55.5l74 -48
q-36 -54 -89 -82t-118 -28z" />
    <glyph glyph-name="uni0442" unicode="&#x442;" horiz-adv-x="885" 
d="M833 357q0 -25 -4 -44l-55 -313h-89l51 290q4 24 4 45q0 47 -25 74t-69 27q-58 0 -99 -46.5t-55 -127.5l-47 -262h-88l51 291q4 25 4 44q0 47 -25 74t-71 27q-58 0 -99 -49.5t-56 -134.5l-44 -252h-89l88 502h89l-10 -56q59 69 157 69q51 0 88 -24.5t53 -68.5
q31 45 78 69t102 24q72 0 116 -43t44 -115z" />
    <glyph glyph-name="uni0443" unicode="&#x443;" horiz-adv-x="510" 
d="M543 502l-407 -686h-101l156 257l-136 429h93l101 -341l195 341h99z" />
    <glyph glyph-name="uni045E" unicode="&#x45e;" horiz-adv-x="510" 
d="M543 502l-407 -686h-101l156 257l-136 429h93l101 -341l195 341h99zM160 714h64q3 -39 30 -64t64 -25t65.5 25t37.5 64h66q-12 -67 -59 -109t-113 -42t-109 42.5t-46 108.5z" />
    <glyph glyph-name="uni0444" unicode="&#x444;" horiz-adv-x="731" 
d="M363 -13l-30 -171h-90l30 171q-69 2 -122.5 33t-83.5 83.5t-30 118.5q0 83 41.5 148.5t116.5 103.5t172 41l38 215h90l-38 -215q70 -2 123.5 -32.5t83.5 -83.5t30 -120q0 -82 -42 -147t-117 -103.5t-172 -41.5zM353 436q-66 -2 -116.5 -29t-78.5 -73.5t-28 -105.5
q0 -73 42 -116.5t115 -45.5zM601 276q0 71 -42.5 114t-115.5 46l-66 -370q67 3 117.5 30t78.5 74t28 106z" />
    <glyph glyph-name="uni0445" unicode="&#x445;" horiz-adv-x="505" 
d="M303 251l131 -251h-94l-96 185l-146 -185h-106l208 260l-129 242h96l93 -179l143 179h105z" />
    <glyph glyph-name="uni0447" unicode="&#x447;" horiz-adv-x="536" 
d="M509 502l-88 -502h-90l35 202q-57 -21 -118 -21q-84 0 -131.5 40t-47.5 113q0 19 5 47l21 121h89l-21 -120q-3 -18 -3 -35q0 -86 101 -86q30 0 62 7t58 19l38 215h90z" />
    <glyph glyph-name="uni0446" unicode="&#x446;" horiz-adv-x="635" 
d="M553 78l-34 -189h-84l19 111h-82l11 60q-64 -73 -172 -73q-73 0 -115 44t-42 117q0 26 4 50l54 304h89l-52 -292q-4 -26 -4 -41q0 -48 26.5 -75.5t73.5 -27.5q64 0 110.5 50t60.5 133l44 253h89l-74 -424h78z" />
    <glyph glyph-name="uni0448" unicode="&#x448;" horiz-adv-x="885" 
d="M857 502l-88 -502h-89l10 56q-59 -69 -157 -69q-51 0 -88 24.5t-53 68.5q-31 -45 -78 -69t-102 -24q-72 0 -116 43t-44 115q0 25 4 44l55 313h89l-51 -290q-4 -24 -4 -45q0 -47 25 -74t69 -27q58 0 99 46.5t55 127.5l47 262h88l-51 -291q-4 -25 -4 -44q0 -47 25 -74
t71 -27q58 0 99 49.5t56 134.5l44 252h89z" />
    <glyph glyph-name="uni0449" unicode="&#x449;" horiz-adv-x="919" 
d="M862 78l-33 -189h-84l19 111h-83l10 56q-59 -69 -157 -69q-51 0 -88 24.5t-53 68.5q-31 -45 -78 -69t-102 -24q-72 0 -116 43t-44 115q0 25 4 44l55 313h89l-51 -290q-4 -24 -4 -45q0 -47 25 -74t69 -27q58 0 99 46.5t55 127.5l47 262h88l-51 -291q-4 -25 -4 -44
q0 -47 25 -74t71 -27q58 0 99 49.5t56 134.5l44 252h89l-74 -424h78z" />
    <glyph glyph-name="uni045F" unicode="&#x45f;" horiz-adv-x="564" 
d="M537 502l-89 -502h-168l-20 -111h-84l19 111h-167l88 502h89l-74 -424h242l75 424h89z" />
    <glyph glyph-name="uni044C" unicode="&#x44c;" horiz-adv-x="505" 
d="M461 189q0 -58 -29.5 -104t-81 -71.5t-114.5 -25.5q-53 0 -95 19.5t-65.5 55t-23.5 81.5q0 16 3 34l57 324h89l-27 -149h103q86 0 135 -45t49 -119zM370 183q0 42 -27.5 67t-76.5 25h-106l-17 -97q-2 -16 -2 -22q0 -40 28 -64t75 -24q53 0 89.5 33t36.5 82z" />
    <glyph glyph-name="uni044A" unicode="&#x44a;" horiz-adv-x="573" 
d="M530 189q0 -58 -29.5 -104t-81 -71.5t-114.5 -25.5q-53 0 -95 19.5t-65.5 55t-23.5 81.5q0 16 3 34l43 246h-121l13 78h211l-27 -149h103q86 0 135 -45t49 -119zM439 183q0 42 -27.5 67t-76.5 25h-106l-17 -97q-2 -16 -2 -22q0 -40 28 -64t75 -24q53 0 89.5 33t36.5 82z
" />
    <glyph glyph-name="uni044B" unicode="&#x44b;" horiz-adv-x="712" 
d="M461 189q0 -58 -29.5 -104t-81 -71.5t-114.5 -25.5q-53 0 -95 19.5t-65.5 55t-23.5 81.5q0 16 3 34l57 324h89l-27 -149h103q86 0 135 -45t49 -119zM370 183q0 42 -27.5 67t-76.5 25h-106l-17 -97q-2 -16 -2 -22q0 -40 28 -64t75 -24q53 0 89.5 33t36.5 82zM596 502h89
l-88 -502h-89z" />
    <glyph glyph-name="uni0459" unicode="&#x459;" horiz-adv-x="802" 
d="M757 179q0 -51 -25 -92t-69 -64t-98 -23h-232l74 424h-162q-23 -132 -46 -203q-30 -94 -72.5 -149t-107.5 -84l-35 71q48 23 80 65.5t56 118.5q26 83 56 259h334l-30 -170h121q69 0 112.5 -43t43.5 -110zM665 177q0 35 -22.5 57t-58.5 22h-117l-32 -180h128q43 0 72.5 29
t29.5 72z" />
    <glyph glyph-name="uni045A" unicode="&#x45a;" horiz-adv-x="813" 
d="M766 170q0 -48 -24 -86.5t-66.5 -61t-96.5 -22.5h-235l41 239h-226l-42 -238h-89l88 502h89l-33 -186h227l32 185h89l-32 -185h125q67 0 110 -40.5t43 -106.5zM674 167q0 33 -21.5 53.5t-55.5 20.5h-122l-29 -165h131q41 0 69 26t28 65z" />
    <glyph glyph-name="uni0455" unicode="&#x455;" horiz-adv-x="488" 
d="M9 75l59 57q24 -32 67 -51.5t91 -19.5q52 0 84.5 21.5t32.5 58.5q0 33 -26.5 50t-74.5 25q-77 12 -126.5 43.5t-49.5 101.5q0 71 54.5 113t144.5 42q60 0 107.5 -20t80.5 -55l-52 -57q-26 26 -63.5 41.5t-75.5 15.5q-44 0 -75.5 -20.5t-31.5 -54.5q0 -33 30 -49t85 -24
q162 -24 162 -147q0 -74 -55.5 -117t-152.5 -43q-68 0 -126 24t-89 65z" />
    <glyph glyph-name="uni0454" unicode="&#x454;" horiz-adv-x="533" 
d="M396 140l76 -42q-36 -54 -89.5 -83t-118.5 -29t-116.5 30.5t-80.5 85t-29 123.5q0 82 34.5 148.5t95.5 104.5t136 38q66 0 115.5 -30.5t76.5 -85.5l-80 -37q-18 35 -48.5 54t-69.5 19q-58 0 -102.5 -41.5t-58.5 -108.5h206l-12 -69h-200q5 -68 42.5 -110t94.5 -42
q39 0 72 20.5t56 54.5z" />
    <glyph glyph-name="uni044D" unicode="&#x44d;" horiz-adv-x="533" 
d="M137 362l-76 42q36 54 89.5 83t118.5 29t116.5 -30.5t80.5 -85t29 -123.5q0 -82 -34.5 -148.5t-95.5 -104.5t-136 -38q-66 0 -115.5 30.5t-76.5 85.5l80 37q18 -35 48.5 -54t69.5 -19q58 0 102.5 41.5t58.5 108.5h-206l12 69h200q-5 68 -42.5 110t-94.5 42
q-39 0 -72 -20.5t-56 -54.5z" />
    <glyph glyph-name="uni0456" unicode="&#x456;" horiz-adv-x="233" 
d="M116 502h89l-88 -502h-89zM153 714h89l-22 -127h-89z" />
    <glyph glyph-name="uni0457" unicode="&#x457;" horiz-adv-x="233" 
d="M103 714h70l-21 -119h-70zM223 714h70l-20 -119h-71zM116 502h89l-88 -502h-89z" />
    <glyph glyph-name="uni0458" unicode="&#x458;" horiz-adv-x="233" 
d="M154 714h89l-22 -127h-89zM-118 -184l25 75q19 -9 41 -9q59 0 72 72l97 548h89l-100 -565q-25 -135 -152 -135q-20 0 -35.5 3t-36.5 11z" />
    <glyph glyph-name="uni045B" unicode="&#x45b;" horiz-adv-x="577" 
d="M523 354q0 -26 -4 -50l-54 -304h-89l52 292q4 26 4 41q0 48 -26.5 75.5t-73.5 27.5q-63 0 -109.5 -49.5t-60.5 -131.5l-45 -255h-89l129 731h89l-52 -289q63 73 171 73q73 0 115.5 -44t42.5 -117zM73 646h316l-11 -59h-316z" />
    <glyph glyph-name="uni044E" unicode="&#x44e;" horiz-adv-x="761" 
d="M722 275q0 -83 -33 -149t-92.5 -103t-136.5 -37q-63 0 -112 29.5t-78 81.5t-31 118h-84l-38 -215h-89l88 502h89l-36 -208h76q18 100 87 161t168 61q65 0 115.5 -31t78.5 -86t28 -124zM630 269q0 75 -36.5 120t-98.5 45q-47 0 -84.5 -26.5t-58.5 -72.5t-21 -102
q0 -75 36.5 -120t98.5 -45q47 0 84.5 26.5t58.5 72.5t21 102z" />
    <glyph glyph-name="uni044F" unicode="&#x44f;" horiz-adv-x="515" 
d="M399 0h-89l31 176h-93l-150 -176h-101l163 192q-43 15 -68.5 52t-25.5 87q0 48 26 87t71.5 61.5t102.5 22.5h221zM354 249l31 177h-122q-45 0 -75 -28t-30 -70q0 -35 21.5 -57t56.5 -22h118z" />
    <glyph glyph-name="uni0452" unicode="&#x452;" horiz-adv-x="579" 
d="M526 354q0 -27 -5 -50l-65 -368q-11 -66 -50 -100t-102 -34q-18 0 -31.5 2.5t-32.5 8.5l22 74q19 -7 38 -7q28 0 46 18.5t24 51.5l61 342q3 20 3 41q0 48 -26.5 75.5t-73.5 27.5q-63 0 -109.5 -50.5t-60.5 -132.5l-45 -253h-89l104 587h-69l10 59h69l15 84h89l-15 -84
h151l-10 -59h-151l-28 -157q33 41 76.5 63t94.5 22q73 0 116.5 -44t43.5 -117z" />
    <glyph glyph-name="uni0493" unicode="&#x493;" horiz-adv-x="468" 
d="M228 424l-26 -152h152l-11 -60h-151l-37 -212h-89l37 212h-74l11 60h73l40 230h334l-13 -78h-246z" />
    <glyph glyph-name="uni049B" unicode="&#x49b;" horiz-adv-x="539" 
d="M493 78l-13 -78h-1l-19 -111h-84l19 111h-45l-118 217h-77l-38 -217h-89l88 502h89l-36 -207h72l181 207h100l-216 -248l98 -176h89z" />
    <glyph glyph-name="uni04A3" unicode="&#x4a3;" 
d="M548 78l-33 -189h-84l19 111h-83l38 219h-250l-38 -219h-89l88 502h89l-36 -205h250l36 205h89l-74 -424h78z" />
    <glyph glyph-name="uni04AF" unicode="&#x4af;" horiz-adv-x="508" 
d="M541 502l-271 -502l-32 -184h-89l32 184l-126 502h92l92 -396l202 396h100z" />
    <glyph glyph-name="uni04B1" unicode="&#x4b1;" horiz-adv-x="508" 
d="M270 0h125l-10 -60h-125l-22 -124h-89l22 124h-126l11 60h125l-126 502h92l92 -396l202 396h100z" />
    <glyph glyph-name="uni04BB" unicode="&#x4bb;" horiz-adv-x="577" 
d="M523 354q0 -26 -4 -50l-54 -304h-89l52 292q4 26 4 41q0 48 -26.5 75.5t-73.5 27.5q-63 0 -109.5 -49.5t-60.5 -131.5l-45 -255h-89l129 731h89l-52 -289q63 73 171 73q73 0 115.5 -44t42.5 -117z" />
    <glyph glyph-name="uni04D9" unicode="&#x4d9;" horiz-adv-x="539" 
d="M499 275q0 -84 -31.5 -149.5t-90 -102.5t-136.5 -37q-59 0 -105.5 30.5t-72.5 81t-26 106.5q0 18 1 25l367 70q-7 63 -42 100t-90 37q-41 0 -75.5 -22.5t-55.5 -59.5l-78 45q34 56 89.5 86.5t126.5 30.5q65 0 114.5 -31t77 -86t27.5 -124zM403 224l-271 -52
q10 -47 40 -77t75 -30q61 0 103 44.5t53 114.5z" />
    <glyph glyph-name="uni04E9" unicode="&#x4e9;" horiz-adv-x="576" 
d="M537 275q0 -83 -34.5 -149t-96 -103t-139.5 -37q-65 0 -117 31t-81.5 86t-29.5 124q0 83 34.5 149t96 103t139.5 37q65 0 117 -31t81.5 -86t29.5 -124zM134 281h313q-4 71 -43.5 113.5t-101.5 42.5t-108.5 -43.5t-59.5 -112.5zM442 221h-313q4 -71 43.5 -113.5
t101.5 -42.5t108.5 43.5t59.5 112.5z" />
    <glyph glyph-name="uni0432.aalt" horiz-adv-x="541" 
d="M493 219q0 -69 -29.5 -122t-82.5 -82t-123 -29q-91 0 -146.5 49t-55.5 131q0 19 4 44l64 358q15 83 70.5 129.5t138.5 46.5q86 0 136 -48t50 -128q0 -61 -30 -111t-78 -75q37 -22 59.5 -64t22.5 -99zM210 554l-24 -136h104q37 0 68.5 20t50.5 53t19 71q0 47 -26 75
t-71 28q-47 0 -79.5 -30t-41.5 -81zM405 221q0 57 -30 90t-80 33h-122l-25 -139q-3 -16 -3 -33q0 -49 32 -78.5t84 -29.5q64 0 104 43.5t40 113.5z" />
    <glyph glyph-name="uni0433.aalt" horiz-adv-x="490" 
d="M28 125q0 70 51.5 111.5t145.5 57.5q68 12 98 28.5t30 54.5q0 30 -27 47t-69 17q-39 0 -77.5 -15.5t-68.5 -42.5l-42 57q82 76 198 76q79 0 127 -34.5t48 -101.5q0 -73 -52 -110t-144 -53q-43 -8 -68.5 -16.5t-42 -25.5t-16.5 -46q0 -32 28 -50t80 -18q50 0 92.5 19
t73.5 52l50 -54q-40 -43 -98 -67.5t-129 -24.5q-88 0 -138 35.5t-50 103.5z" />
    <glyph glyph-name="uni0434.aalt" horiz-adv-x="568" 
d="M474 105q20 -40 20 -88q0 -103 -72.5 -159t-189.5 -56q-71 0 -129 22.5t-100 61.5l49 65q34 -31 81 -49.5t102 -18.5q77 0 122.5 35.5t45.5 96.5q0 21 -11 45q-28 -29 -69 -46.5t-85 -17.5q-57 0 -102.5 28t-71.5 79t-26 116q0 88 37 155t104.5 104t156.5 37
q56 0 117 -13h91zM442 417q-22 8 -52 12.5t-54 4.5q-62 0 -108.5 -26t-72 -73t-25.5 -109q0 -68 33.5 -109t89.5 -41q60 0 102.5 47t56.5 125z" />
    <glyph glyph-name="uni0436.aalt" horiz-adv-x="771" 
d="M695 0h-94q-1 105 -43 163.5t-115 58.5h-25l-39 -222h-89l39 222h-31q-66 0 -122.5 -60t-84.5 -161h-94q24 94 79 167t117 95q-51 26 -83 92t-33 147h92q0 -98 37.5 -150t105.5 -52h31l75 430h89l-75 -430h23q150 0 209 202h95q-24 -91 -73 -156.5t-111 -90.5
q51 -25 85 -95.5t35 -159.5z" />
    <glyph glyph-name="uni0437.aalt" horiz-adv-x="519" 
d="M434 22q0 -61 -31 -110t-84 -76.5t-116 -27.5q-77 0 -136 42.5t-85 116.5l80 35q16 -53 54.5 -83t88.5 -30q60 0 98.5 39.5t38.5 98.5q0 50 -33 79.5t-88 29.5h-47l13 75h38q61 0 102 35t41 89q0 44 -28.5 72t-75.5 28q-44 0 -79.5 -23t-65.5 -70l-74 47q80 126 225 126
q57 0 100.5 -22.5t67.5 -62t24 -88.5q0 -57 -29.5 -101.5t-75.5 -69.5q34 -22 55.5 -61t21.5 -88z" />
    <glyph glyph-name="uni0438.aalt" horiz-adv-x="577" 
d="M549 502l-88 -502h-89l11 60q-64 -73 -172 -73q-73 0 -115 44t-42 117q0 26 4 50l54 304h89l-52 -292q-4 -26 -4 -41q0 -48 26.5 -75.5t73.5 -27.5q64 0 110.5 50t60.5 133l44 253h89z" />
    <glyph glyph-name="uni0439.aalt" horiz-adv-x="577" 
d="M549 502l-88 -502h-89l11 60q-64 -73 -172 -73q-73 0 -115 44t-42 117q0 26 4 50l54 304h89l-52 -292q-4 -26 -4 -41q0 -48 26.5 -75.5t73.5 -27.5q64 0 110.5 50t60.5 133l44 253h89zM192 714h64q3 -39 30 -64t64 -25t65.5 25t37.5 64h66q-12 -67 -59 -109t-113 -42
t-109 42.5t-46 108.5z" />
    <glyph glyph-name="uni043A.aalt" horiz-adv-x="520" 
d="M444 0h-94q-1 106 -43 164t-115 58h-36l-39 -222h-89l129 730h89l-76 -430h34q150 0 209 202h95q-24 -90 -73 -156t-111 -91q50 -26 84.5 -95.5t35.5 -159.5z" />
    <glyph glyph-name="uni043B.aalt" horiz-adv-x="508" 
d="M360 0l-88 399l-207 -399h-98l269 502h95l122 -502h-93z" />
    <glyph glyph-name="uni043D.aalt" horiz-adv-x="572" 
d="M544 502l-88 -502h-89l38 219h-250l-38 -219h-89l88 502h89l-36 -205h250l36 205h89z" />
    <glyph glyph-name="uni043F.aalt" horiz-adv-x="577" 
d="M523 354q0 -26 -4 -50l-54 -304h-89l52 292q4 26 4 41q0 48 -26.5 75.5t-73.5 27.5q-64 0 -110.5 -50t-60.5 -133l-44 -253h-89l88 502h89l-11 -60q64 73 172 73q73 0 115 -44t42 -117z" />
    <glyph glyph-name="uni0442.aalt" horiz-adv-x="885" 
d="M833 357q0 -25 -4 -44l-55 -313h-89l51 290q4 24 4 45q0 47 -25 74t-69 27q-58 0 -99 -46.5t-55 -127.5l-47 -262h-88l51 291q4 25 4 44q0 47 -25 74t-71 27q-58 0 -99 -49.5t-56 -134.5l-44 -252h-89l88 502h89l-10 -56q59 69 157 69q51 0 88 -24.5t53 -68.5
q31 45 78 69t102 24q72 0 116 -43t44 -115z" />
    <glyph glyph-name="uni0446.aalt" horiz-adv-x="609" 
d="M553 78l-34 -189h-84l19 111h-82l11 60q-64 -73 -172 -73q-73 0 -115 44t-42 117q0 26 4 50l54 304h89l-52 -292q-4 -26 -4 -41q0 -48 26.5 -75.5t73.5 -27.5q64 0 110.5 50t60.5 133l44 253h89l-74 -424h78z" />
    <glyph glyph-name="uni0448.aalt" horiz-adv-x="885" 
d="M857 502l-88 -502h-89l10 56q-59 -69 -157 -69q-51 0 -88 24.5t-53 68.5q-31 -45 -78 -69t-102 -24q-72 0 -116 43t-44 115q0 25 4 44l55 313h89l-51 -290q-4 -24 -4 -45q0 -47 25 -74t69 -27q58 0 99 46.5t55 127.5l47 262h88l-51 -291q-4 -25 -4 -44q0 -47 25 -74
t71 -27q58 0 99 49.5t56 134.5l44 252h89z" />
    <glyph glyph-name="uni0449.aalt" horiz-adv-x="919" 
d="M862 78l-33 -189h-84l19 111h-83l10 56q-59 -69 -157 -69q-51 0 -88 24.5t-53 68.5q-31 -45 -78 -69t-102 -24q-72 0 -116 43t-44 115q0 25 4 44l55 313h89l-51 -290q-4 -24 -4 -45q0 -47 25 -74t69 -27q58 0 99 46.5t55 127.5l47 262h88l-51 -291q-4 -25 -4 -44
q0 -47 25 -74t71 -27q58 0 99 49.5t56 134.5l44 252h89l-74 -424h78z" />
    <glyph glyph-name="uni044C.aalt" horiz-adv-x="505" 
d="M461 189q0 -58 -29.5 -104t-81 -71.5t-114.5 -25.5q-53 0 -95 19.5t-65.5 55t-23.5 81.5q0 16 3 34l57 324h89l-27 -149h103q86 0 135 -45t49 -119zM370 183q0 42 -27.5 67t-76.5 25h-106l-17 -97q-2 -16 -2 -22q0 -40 28 -64t75 -24q53 0 89.5 33t36.5 82z" />
    <glyph glyph-name="uni044A.aalt" horiz-adv-x="573" 
d="M530 189q0 -58 -29.5 -104t-81 -71.5t-114.5 -25.5q-53 0 -95 19.5t-65.5 55t-23.5 81.5q0 16 3 34l43 246h-121l13 78h211l-27 -149h103q86 0 135 -45t49 -119zM439 183q0 42 -27.5 67t-76.5 25h-106l-17 -97q-2 -16 -2 -22q0 -40 28 -64t75 -24q53 0 89.5 33t36.5 82z
" />
    <glyph glyph-name="uni044E.aalt" horiz-adv-x="762" 
d="M723 275q0 -84 -33 -150t-92.5 -102.5t-136.5 -36.5q-62 0 -111.5 29t-78.5 81.5t-31 118.5h-85l-37 -215h-89l127 730h89l-76 -436h77q18 101 87 161.5t168 60.5q65 0 115.5 -31t78.5 -86t28 -124zM631 270q0 75 -36.5 119.5t-98.5 44.5q-47 0 -84.5 -26t-58.5 -72.5
t-21 -103.5q0 -75 36.5 -119.5t98.5 -44.5q47 0 84.5 26t58.5 72.5t21 103.5z" />
    <glyph glyph-name="uni0431.aalt" horiz-adv-x="569" 
d="M209 571q0 -34 26.5 -49.5t67.5 -16.5q68 -1 119 -31.5t79 -83.5t28 -121q0 -82 -33.5 -146t-93.5 -100t-137 -36q-64 0 -115.5 30.5t-81 84t-29.5 121.5q0 91 41 155t111 93q-32 17 -50 44.5t-18 64.5q0 73 62.5 111.5t165.5 38.5q136 0 202 14l-7 -80q-35 -8 -80.5 -11
t-119.5 -3q-65 0 -101 -20.5t-36 -58.5zM298 423q-46 0 -84 -25.5t-60 -70t-22 -99.5q0 -71 38.5 -115t100.5 -44q46 0 84 25.5t60 70t22 98.5q0 72 -38.5 116t-100.5 44z" />
    <glyph glyph-name="uni0394" unicode="&#x394;" horiz-adv-x="683" 
d="M7 78l340 622h94l148 -622l-13 -78h-582zM498 78l-116 524l-277 -524h393z" />
    <glyph glyph-name="uni03A9" unicode="&#x3a9;" horiz-adv-x="806" 
d="M563 78h143l-15 -78h-282l13 79q95 37 153 124t58 190q0 68 -26.5 121.5t-74 84t-107.5 30.5q-73 0 -134.5 -41t-97.5 -112.5t-36 -157.5q0 -83 36.5 -148.5t98.5 -92.5l-13 -77h-278l15 78h152q-49 39 -76.5 104t-27.5 141q0 107 49 196.5t133 142t184 52.5
q85 0 152.5 -41.5t106 -114.5t38.5 -164q0 -98 -43.5 -181.5t-120.5 -134.5z" />
    <glyph glyph-name="uni03BC" unicode="&#x3bc;" horiz-adv-x="599" 
d="M553 502l-88 -502h-89l9 52q-32 -32 -76.5 -48.5t-92.5 -16.5q-60 0 -96 30l-36 -201h-89l121 686h89l-54 -307q-2 -16 -2 -26q0 -48 26.5 -75.5t73.5 -27.5q63 0 110 50.5t61 132.5l44 253h89z" />
    <glyph glyph-name="pi" unicode="&#x3c0;" horiz-adv-x="634" 
d="M638 424h-95l-75 -424h-89l75 424h-212l-75 -424h-89l75 424h-96l14 78h581z" />
    <glyph glyph-name="zero" unicode="0" horiz-adv-x="638" 
d="M63 291q0 116 37.5 212.5t108 153.5t163.5 57q72 0 125.5 -36.5t83 -105t29.5 -163.5q0 -116 -38 -212.5t-108 -153.5t-164 -57q-72 0 -125.5 36.5t-82.5 105t-29 163.5zM518 406q0 106 -40 166.5t-111 60.5q-62 0 -110.5 -47.5t-75 -126t-26.5 -165.5q0 -107 40 -167
t110 -60q63 0 111.5 47.5t75 126t26.5 165.5z" />
    <glyph glyph-name="one" unicode="1" horiz-adv-x="405" 
d="M400 700l-123 -700h-89l106 600l-179 -121l-41 66l235 155h91z" />
    <glyph glyph-name="two" unicode="2" horiz-adv-x="564" 
d="M50 78l276 281q55 56 80.5 96.5t25.5 79.5q0 45 -30 71.5t-78 26.5q-98 0 -160 -110l-75 43q41 72 103 110t137 38q57 0 101.5 -22t69.5 -61t25 -90q0 -57 -32 -111t-101 -125l-221 -227h325l-14 -78h-446z" />
    <glyph glyph-name="three" unicode="3" horiz-adv-x="546" 
d="M511 622l-205 -198q88 -11 140.5 -65.5t52.5 -136.5q0 -67 -32 -120.5t-88.5 -84.5t-125.5 -31q-78 0 -141.5 43t-95.5 120l77 39q25 -57 68.5 -89t95.5 -32q41 0 75.5 19.5t54.5 54t20 77.5q0 59 -37.5 95.5t-96.5 36.5q-29 0 -52 -9l-53 61l230 220h-298l14 78h411z
" />
    <glyph glyph-name="four" unicode="4" horiz-adv-x="579" 
d="M548 170h-119l-30 -170h-89l30 170h-335l14 78l403 452h101l-80 -452h119zM354 248l60 336l-294 -336h234z" />
    <glyph glyph-name="five" unicode="5" horiz-adv-x="539" 
d="M12 150l80 35q17 -56 55.5 -87t94.5 -31q45 0 80 20t54 54t19 74q0 57 -38.5 92.5t-98.5 35.5h-177l63 357h393l-14 -78h-304l-35 -201h92q58 0 106.5 -25.5t77 -71t28.5 -103.5q0 -65 -32.5 -119t-89 -85t-127.5 -31q-83 0 -142.5 43.5t-84.5 120.5z" />
    <glyph glyph-name="six" unicode="6" horiz-adv-x="538" 
d="M495 224q0 -69 -31 -123t-87.5 -84.5t-129.5 -30.5q-64 0 -114 27t-78.5 74.5t-28.5 108.5q0 40 13 82t41 80l251 342h101l-190 -265q24 6 50 6q57 0 103.5 -28t73 -77.5t26.5 -111.5zM403 224q0 62 -36 101.5t-94 39.5q-46 0 -81 -22.5t-54 -60.5t-19 -81
q0 -60 36.5 -97t96.5 -37q68 0 109.5 45t41.5 112z" />
    <glyph glyph-name="seven" unicode="7" horiz-adv-x="505" 
d="M455 622h-362l14 78h452l-14 -78l-325 -622h-95z" />
    <glyph glyph-name="eight" unicode="8" horiz-adv-x="562" 
d="M514 194q0 -60 -32 -107.5t-88.5 -74t-127.5 -26.5q-67 0 -119.5 24.5t-82.5 68t-30 97.5q0 62 40 113.5t104 74.5q-38 22 -59.5 61t-21.5 87q0 58 29.5 104t81.5 72t117 26q61 0 109 -24t74.5 -66t26.5 -94q0 -55 -32.5 -101.5t-87.5 -72.5q46 -22 72.5 -65.5
t26.5 -96.5zM189 507q0 -49 31 -78.5t83 -29.5q60 0 100 36t40 89q0 48 -34 78.5t-87 30.5q-57 0 -95 -36t-38 -90zM421 198q0 53 -36.5 86.5t-96.5 33.5q-44 0 -81 -17.5t-58 -48t-21 -67.5q0 -52 39.5 -85t102.5 -33q67 0 109 36.5t42 94.5z" />
    <glyph glyph-name="nine" unicode="9" horiz-adv-x="539" 
d="M548 504q0 -40 -13 -82t-41 -80l-251 -342h-101l190 265q-24 -6 -50 -6q-57 0 -103.5 28t-73 77.5t-26.5 111.5q0 69 31 123t87.5 84.5t129.5 30.5q64 0 114 -27t78.5 -74.5t28.5 -108.5zM455 499q0 60 -36.5 97t-96.5 37q-68 0 -109.5 -45t-41.5 -112q0 -62 36 -101.5
t94 -39.5q46 0 81 22.5t54 60.5t19 81z" />
    <glyph glyph-name="uni24FF" unicode="&#x24ff;" horiz-adv-x="933" 
d="M884 377q0 -119 -57.5 -215.5t-156 -152t-217.5 -55.5q-107 0 -191 47.5t-131 130.5t-47 187q0 120 57 218t155.5 153.5t217.5 55.5q107 0 191.5 -48t131.5 -132.5t47 -188.5zM310 309q0 -85 41 -134.5t110 -49.5q60 0 104.5 36t68 97t23.5 134q0 85 -41 134.5t-109 49.5
q-60 0 -105 -36t-68.5 -97t-23.5 -134zM584 389q0 -49 -14 -95t-41 -75.5t-63 -29.5q-37 0 -60 32.5t-23 89.5q0 49 14.5 95t41.5 75.5t63 29.5q37 0 59.5 -32t22.5 -90z" />
    <glyph glyph-name="uni2776" unicode="&#x2776;" horiz-adv-x="933" 
d="M884 377q0 -119 -57.5 -215.5t-156 -152t-217.5 -55.5q-107 0 -191 47.5t-131 130.5t-47 187q0 120 57 218t155.5 153.5t217.5 55.5q107 0 191.5 -48t131.5 -132.5t47 -188.5zM432 134h71l77 433h-73l-150 -96l32 -53l106 71z" />
    <glyph glyph-name="uni2777" unicode="&#x2777;" horiz-adv-x="933" 
d="M884 377q0 -119 -57.5 -215.5t-156 -152t-217.5 -55.5q-107 0 -191 47.5t-131 130.5t-47 187q0 120 57 218t155.5 153.5t217.5 55.5q107 0 191.5 -48t131.5 -132.5t47 -188.5zM322 134h279l11 63h-183l119 122q42 44 62 77t20 69q0 49 -36 80t-92 31q-45 0 -85 -24
t-67 -67l58 -36q17 30 41 46.5t50 16.5q25 0 41 -14.5t16 -38.5q0 -22 -14.5 -43.5t-47.5 -55.5l-162 -163z" />
    <glyph glyph-name="uni2778" unicode="&#x2778;" horiz-adv-x="933" 
d="M884 377q0 -119 -57.5 -215.5t-156 -152t-217.5 -55.5q-107 0 -191 47.5t-131 130.5t-47 187q0 120 57 218t155.5 153.5t217.5 55.5q107 0 191.5 -48t131.5 -132.5t47 -188.5zM321 220q20 -46 58.5 -70.5t88.5 -24.5q46 0 81.5 19t55.5 52.5t20 73.5q0 49 -29 81.5
t-77 38.5l-7 2l117 113l10 62h-260l-11 -62h184l-137 -129l35 -43q12 6 30 6q32 0 52.5 -20t20.5 -52q0 -35 -25 -58t-60 -23q-60 0 -90 68z" />
    <glyph glyph-name="uni2779" unicode="&#x2779;" horiz-adv-x="933" 
d="M884 377q0 -119 -57.5 -215.5t-156 -152t-217.5 -55.5q-107 0 -191 47.5t-131 130.5t-47 187q0 120 57 218t155.5 153.5t217.5 55.5q107 0 191.5 -48t131.5 -132.5t47 -188.5zM285 234h202l-18 -100h71l18 100h73l11 62h-73l48 271h-80l-241 -271zM369 296l162 186
l-34 -186h-128z" />
    <glyph glyph-name="uni277A" unicode="&#x277a;" horiz-adv-x="933" 
d="M884 377q0 -119 -57.5 -215.5t-156 -152t-217.5 -55.5q-107 0 -191 47.5t-131 130.5t-47 187q0 120 57 218t155.5 153.5t217.5 55.5q107 0 191.5 -48t131.5 -132.5t47 -188.5zM308 225q16 -47 54 -73.5t90 -26.5q45 0 80.5 19.5t56 53t20.5 75.5q0 56 -36 90.5t-92 34.5
h-52l20 107h180l11 62h-251l-42 -231h113q34 0 55 -18.5t21 -50.5q0 -33 -22.5 -56t-58.5 -23q-31 0 -52 17t-31 49z" />
    <glyph glyph-name="uni277B" unicode="&#x277b;" horiz-adv-x="933" 
d="M884 377q0 -119 -57.5 -215.5t-156 -152t-217.5 -55.5q-107 0 -191 47.5t-131 130.5t-47 187q0 120 57 218t155.5 153.5t217.5 55.5q107 0 191.5 -48t131.5 -132.5t47 -188.5zM323 256q0 -57 40 -94t102 -37q70 0 114.5 42t44.5 107q0 56 -35 93t-88 39q-15 0 -30 -6
l118 167h-79l-153 -209q-34 -49 -34 -102zM553 272q0 -37 -23.5 -61.5t-60.5 -24.5q-32 0 -52 20t-20 54q0 37 24 63.5t61 26.5q31 0 51 -21.5t20 -56.5z" />
    <glyph glyph-name="uni277C" unicode="&#x277c;" horiz-adv-x="933" 
d="M884 377q0 -119 -57.5 -215.5t-156 -152t-217.5 -55.5q-107 0 -191 47.5t-131 130.5t-47 187q0 120 57 218t155.5 153.5t217.5 55.5q107 0 191.5 -48t131.5 -132.5t47 -188.5zM370 134h75l192 371l11 62h-287l-10 -62h215z" />
    <glyph glyph-name="uni277D" unicode="&#x277d;" horiz-adv-x="933" 
d="M884 377q0 -119 -57.5 -215.5t-156 -152t-217.5 -55.5q-107 0 -191 47.5t-131 130.5t-47 187q0 120 57 218t155.5 153.5t217.5 55.5q107 0 191.5 -48t131.5 -132.5t47 -188.5zM322 245q0 -52 41.5 -86t105.5 -34q68 0 112.5 37t44.5 94q0 33 -16 57t-46 37
q36 16 56.5 45.5t20.5 64.5q0 50 -37.5 83t-96.5 33q-62 0 -103.5 -36t-41.5 -90q0 -30 13 -53.5t36 -37.5q-40 -12 -64.5 -43t-24.5 -71zM574 454q0 -30 -22.5 -49.5t-57.5 -19.5q-29 0 -47 17t-18 44q0 30 22 50t56 20q30 0 48.5 -17t18.5 -45zM554 257q0 -32 -23 -52.5
t-60 -20.5q-34 0 -56 19t-22 48q0 32 25 53t62 21q33 0 53.5 -19t20.5 -49z" />
    <glyph glyph-name="uni277E" unicode="&#x277e;" horiz-adv-x="933" 
d="M884 377q0 -119 -57.5 -215.5t-156 -152t-217.5 -55.5q-107 0 -191 47.5t-131 130.5t-47 187q0 120 57 218t155.5 153.5t217.5 55.5q107 0 191.5 -48t131.5 -132.5t47 -188.5zM378 134h78l154 209q33 45 33 102t-40 94t-101 37q-70 0 -114.5 -42t-44.5 -107
q0 -57 35 -94.5t88 -37.5q15 0 30 6zM570 441q0 -36 -24 -63t-61 -27q-31 0 -51 21.5t-20 56.5q0 37 23 61.5t60 24.5q33 0 53 -20t20 -54z" />
    <glyph glyph-name="uni24EA" unicode="&#x24ea;" horiz-adv-x="933" 
d="M84 319q0 120 57 218t155.5 153.5t217.5 55.5q107 0 191.5 -48t131.5 -132.5t47 -188.5q0 -119 -57.5 -215.5t-156 -152t-217.5 -55.5q-107 0 -191 47.5t-131 130.5t-47 187zM818 378q0 86 -39 156t-108.5 110.5t-156.5 40.5q-99 0 -182.5 -48t-132.5 -131t-49 -184
q0 -86 38.5 -156.5t108 -110.5t156.5 -40q99 0 183 48t133 131t49 184zM310 309q0 73 23.5 134t68.5 97t105 36q68 0 109 -49.5t41 -134.5q0 -73 -23.5 -134t-68 -97t-104.5 -36q-69 0 -110 49.5t-41 134.5zM584 389q0 58 -22.5 90t-59.5 32q-36 0 -63 -29.5t-41.5 -75.5
t-14.5 -95q0 -57 23 -89.5t60 -32.5q36 0 63 29.5t41 75.5t14 95z" />
    <glyph glyph-name="uni2460" unicode="&#x2460;" horiz-adv-x="933" 
d="M84 319q0 120 57 218t155.5 153.5t217.5 55.5q107 0 191.5 -48t131.5 -132.5t47 -188.5q0 -119 -57.5 -215.5t-156 -152t-217.5 -55.5q-107 0 -191 47.5t-131 130.5t-47 187zM818 378q0 86 -39 156t-108.5 110.5t-156.5 40.5q-99 0 -182.5 -48t-132.5 -131t-49 -184
q0 -86 38.5 -156.5t108 -110.5t156.5 -40q99 0 183 48t133 131t49 184zM495 489l-106 -71l-32 53l150 96h73l-77 -433h-71z" />
    <glyph glyph-name="uni2461" unicode="&#x2461;" horiz-adv-x="933" 
d="M84 319q0 120 57 218t155.5 153.5t217.5 55.5q107 0 191.5 -48t131.5 -132.5t47 -188.5q0 -119 -57.5 -215.5t-156 -152t-217.5 -55.5q-107 0 -191 47.5t-131 130.5t-47 187zM818 378q0 86 -39 156t-108.5 110.5t-156.5 40.5q-99 0 -182.5 -48t-132.5 -131t-49 -184
q0 -86 38.5 -156.5t108 -110.5t156.5 -40q99 0 183 48t133 131t49 184zM332 197l162 163q33 34 47.5 55.5t14.5 43.5q0 24 -16 38.5t-41 14.5q-26 0 -50 -16.5t-41 -46.5l-58 36q27 43 67 67t85 24q56 0 92 -31t36 -80q0 -36 -20 -69t-62 -77l-119 -122h183l-11 -63h-279z
" />
    <glyph glyph-name="uni2462" unicode="&#x2462;" horiz-adv-x="933" 
d="M84 319q0 120 57 218t155.5 153.5t217.5 55.5q107 0 191.5 -48t131.5 -132.5t47 -188.5q0 -119 -57.5 -215.5t-156 -152t-217.5 -55.5q-107 0 -191 47.5t-131 130.5t-47 187zM818 378q0 86 -39 156t-108.5 110.5t-156.5 40.5q-99 0 -182.5 -48t-132.5 -131t-49 -184
q0 -86 38.5 -156.5t108 -110.5t156.5 -40q99 0 183 48t133 131t49 184zM321 220l57 34q30 -68 90 -68q35 0 60 23t25 58q0 32 -20.5 52t-52.5 20q-18 0 -30 -6l-35 43l137 129h-184l11 62h260l-10 -62l-117 -113l7 -2q48 -6 77 -38.5t29 -81.5q0 -40 -20 -73.5t-55.5 -52.5
t-81.5 -19q-50 0 -88.5 24.5t-58.5 70.5z" />
    <glyph glyph-name="uni2463" unicode="&#x2463;" horiz-adv-x="933" 
d="M84 319q0 120 57 218t155.5 153.5t217.5 55.5q107 0 191.5 -48t131.5 -132.5t47 -188.5q0 -119 -57.5 -215.5t-156 -152t-217.5 -55.5q-107 0 -191 47.5t-131 130.5t-47 187zM818 378q0 86 -39 156t-108.5 110.5t-156.5 40.5q-99 0 -182.5 -48t-132.5 -131t-49 -184
q0 -86 38.5 -156.5t108 -110.5t156.5 -40q99 0 183 48t133 131t49 184zM296 296l241 271h80l-48 -271h73l-11 -62h-73l-18 -100h-71l18 100h-202zM497 296l34 186l-162 -186h128z" />
    <glyph glyph-name="uni2464" unicode="&#x2464;" horiz-adv-x="933" 
d="M84 319q0 120 57 218t155.5 153.5t217.5 55.5q107 0 191.5 -48t131.5 -132.5t47 -188.5q0 -119 -57.5 -215.5t-156 -152t-217.5 -55.5q-107 0 -191 47.5t-131 130.5t-47 187zM818 378q0 86 -39 156t-108.5 110.5t-156.5 40.5q-99 0 -182.5 -48t-132.5 -131t-49 -184
q0 -86 38.5 -156.5t108 -110.5t156.5 -40q99 0 183 48t133 131t49 184zM308 225l64 29q10 -32 31 -49t52 -17q36 0 58.5 23t22.5 56q0 32 -21 50.5t-55 18.5h-113l42 231h251l-11 -62h-180l-20 -107h52q56 0 92 -34.5t36 -90.5q0 -42 -20.5 -75.5t-56 -53t-80.5 -19.5
q-52 0 -90 26.5t-54 73.5z" />
    <glyph glyph-name="uni2465" unicode="&#x2465;" horiz-adv-x="933" 
d="M84 319q0 120 57 218t155.5 153.5t217.5 55.5q107 0 191.5 -48t131.5 -132.5t47 -188.5q0 -119 -57.5 -215.5t-156 -152t-217.5 -55.5q-107 0 -191 47.5t-131 130.5t-47 187zM818 378q0 86 -39 156t-108.5 110.5t-156.5 40.5q-99 0 -182.5 -48t-132.5 -131t-49 -184
q0 -86 38.5 -156.5t108 -110.5t156.5 -40q99 0 183 48t133 131t49 184zM323 256q0 53 34 102l153 209h79l-118 -167q15 6 30 6q53 -2 88 -39t35 -93q0 -65 -44.5 -107t-114.5 -42q-62 0 -102 37t-40 94zM553 272q0 35 -20 56.5t-51 21.5q-37 0 -61 -26.5t-24 -63.5
q0 -34 20 -54t52 -20q37 0 60.5 24.5t23.5 61.5z" />
    <glyph glyph-name="uni2466" unicode="&#x2466;" horiz-adv-x="933" 
d="M84 319q0 120 57 218t155.5 153.5t217.5 55.5q107 0 191.5 -48t131.5 -132.5t47 -188.5q0 -119 -57.5 -215.5t-156 -152t-217.5 -55.5q-107 0 -191 47.5t-131 130.5t-47 187zM818 378q0 86 -39 156t-108.5 110.5t-156.5 40.5q-99 0 -182.5 -48t-132.5 -131t-49 -184
q0 -86 38.5 -156.5t108 -110.5t156.5 -40q99 0 183 48t133 131t49 184zM566 505h-215l10 62h287l-11 -62l-192 -371h-75z" />
    <glyph glyph-name="uni2467" unicode="&#x2467;" horiz-adv-x="933" 
d="M84 319q0 120 57 218t155.5 153.5t217.5 55.5q107 0 191.5 -48t131.5 -132.5t47 -188.5q0 -119 -57.5 -215.5t-156 -152t-217.5 -55.5q-107 0 -191 47.5t-131 130.5t-47 187zM818 378q0 86 -39 156t-108.5 110.5t-156.5 40.5q-99 0 -182.5 -48t-132.5 -131t-49 -184
q0 -86 38.5 -156.5t108 -110.5t156.5 -40q99 0 183 48t133 131t49 184zM322 245q0 40 24.5 71t64.5 43q-23 14 -36 37.5t-13 53.5q0 54 41.5 90t103.5 36q59 0 96.5 -33t37.5 -83q0 -35 -20.5 -64.5t-56.5 -45.5q30 -13 46 -37t16 -57q0 -57 -44.5 -94t-112.5 -37
q-64 0 -105.5 34t-41.5 86zM574 454q0 28 -18.5 45t-48.5 17q-34 0 -56 -20t-22 -50q0 -27 18 -44t47 -17q35 0 57.5 19.5t22.5 49.5zM554 257q0 30 -20.5 49t-53.5 19q-37 0 -62 -21t-25 -53q0 -29 22 -48t56 -19q37 0 60 20.5t23 52.5z" />
    <glyph glyph-name="uni2468" unicode="&#x2468;" horiz-adv-x="933" 
d="M84 319q0 120 57 218t155.5 153.5t217.5 55.5q107 0 191.5 -48t131.5 -132.5t47 -188.5q0 -119 -57.5 -215.5t-156 -152t-217.5 -55.5q-107 0 -191 47.5t-131 130.5t-47 187zM818 378q0 86 -39 156t-108.5 110.5t-156.5 40.5q-99 0 -182.5 -48t-132.5 -131t-49 -184
q0 -86 38.5 -156.5t108 -110.5t156.5 -40q99 0 183 48t133 131t49 184zM496 301q-15 -6 -30 -6q-53 0 -88 37.5t-35 94.5q0 65 44.5 107t114.5 42q61 0 101 -37t40 -94t-33 -102l-154 -209h-78zM570 441q0 34 -20 54t-53 20q-37 0 -60 -24.5t-23 -61.5q0 -35 20 -56.5
t51 -21.5q37 0 61 27t24 63z" />
    <glyph glyph-name="zero.sinf" horiz-adv-x="433" 
d="M6 45q0 76 25 140t72 102t110 38q72 0 115 -52t43 -141q0 -76 -25 -140t-72 -102t-110 -38q-72 0 -115 52t-43 141zM294 129q0 61 -23.5 95t-63.5 34q-38 0 -66 -31t-43 -79.5t-15 -99.5q0 -61 23.5 -95t63.5 -34q38 0 66 31t43 79.5t15 99.5z" />
    <glyph glyph-name="one.sinf" horiz-adv-x="309" 
d="M250 316l-81 -455h-74l66 373l-111 -74l-34 55l157 101h77z" />
    <glyph glyph-name="two.sinf" horiz-adv-x="387" 
d="M6 -73l170 172q35 36 50 58t15 45q0 26 -17 41t-43 15q-27 0 -52 -17t-43 -49l-61 37q27 46 69.5 71t90.5 25q58 0 96 -33t38 -84q0 -38 -21 -72.5t-66 -80.5l-124 -128h192l-11 -66h-294z" />
    <glyph glyph-name="three.sinf" horiz-adv-x="374" 
d="M302 250l-120 -115q53 -10 84.5 -45t31.5 -86q0 -42 -21 -77t-58.5 -55t-85.5 -20q-53 0 -93 25.5t-61 74.5l60 35q30 -71 94 -71q37 0 63.5 24t26.5 61q0 34 -21.5 54.5t-55.5 20.5q-19 0 -32 -6l-36 46l144 134h-194l12 66h274z" />
    <glyph glyph-name="four.sinf" horiz-adv-x="397" 
d="M332 -34h-77l-18 -105h-75l19 105h-212l12 65l252 285h84l-50 -285h76zM192 31l32 181l-156 -181h124z" />
    <glyph glyph-name="five.sinf" horiz-adv-x="376" 
d="M-18 -43l67 30q10 -33 32 -51t55 -18q38 0 61.5 24.5t23.5 58.5q0 33 -21.5 52.5t-57.5 19.5h-118l43 243h264l-12 -66h-190l-20 -111h55q58 0 96 -36.5t38 -95.5q0 -43 -21.5 -78.5t-59 -56t-84.5 -20.5q-55 0 -94.5 27.5t-56.5 77.5z" />
    <glyph glyph-name="six.sinf" horiz-adv-x="378" 
d="M303 8q0 -69 -46.5 -112.5t-120.5 -43.5q-65 0 -107 38.5t-42 98.5q0 57 35 107l162 220h83l-121 -171q14 2 23 2q57 0 95.5 -39t38.5 -100zM229 6q0 36 -21 59t-54 23q-39 0 -64 -28t-25 -67q0 -35 20.5 -56t55.5 -21q38 0 63 26t25 64z" />
    <glyph glyph-name="seven.sinf" horiz-adv-x="339" 
d="M246 250h-225l11 66h301l-12 -66l-201 -389h-79z" />
    <glyph glyph-name="eight.sinf" horiz-adv-x="378" 
d="M305 -11q0 -60 -46.5 -98.5t-117.5 -38.5q-69 0 -112.5 35.5t-43.5 89.5q0 42 25 74t67 45q-23 15 -36.5 40.5t-13.5 56.5q0 57 44 94.5t110 37.5q61 0 100.5 -35t39.5 -87q0 -36 -21 -67t-57 -47q29 -14 45.5 -40t16.5 -60zM98 189q0 -29 19 -46.5t50 -17.5
q36 0 59.5 20.5t23.5 51.5q0 30 -19.5 48t-51.5 18q-35 0 -58 -21.5t-23 -52.5zM230 -10q0 31 -22 51t-57 20q-39 0 -64.5 -22t-25.5 -56q0 -30 23 -49.5t58 -19.5q39 0 63.5 21.5t24.5 54.5z" />
    <glyph glyph-name="nine.sinf" horiz-adv-x="378" 
d="M335 188q0 -57 -35 -107l-162 -220h-83l121 171q-14 -2 -23 -2q-57 0 -95.5 39t-38.5 100q0 69 46.5 112.5t120.5 43.5q65 0 107 -38.5t42 -98.5zM257 184q0 35 -20.5 56t-55.5 21q-38 0 -63 -26t-25 -64q0 -36 21 -59t54 -23q39 0 64 28t25 67z" />
    <glyph glyph-name="zero.tnum" 
d="M66 287q0 125 36 222t101.5 151t149.5 54q66 0 115 -36.5t75.5 -104.5t26.5 -160q0 -125 -36.5 -222t-102 -151t-149.5 -54q-66 0 -114.5 36.5t-75 104t-26.5 160.5zM478 410q0 107 -35 165t-98 58q-54 0 -97 -44t-67 -122t-24 -177q0 -107 35 -165t98 -58q54 0 97 44
t67 122t24 177z" />
    <glyph glyph-name="one.tnum" 
d="M494 78l-14 -78h-400l14 78h165l92 522l-179 -121l-41 66l235 155h91l-109 -622h146z" />
    <glyph glyph-name="two.tnum" 
d="M66 78l276 281q55 56 80.5 96.5t25.5 79.5q0 45 -30 71.5t-78 26.5q-98 0 -160 -110l-75 43q41 72 103 110t137 38q57 0 101.5 -22t69.5 -61t25 -90q0 -57 -32 -111t-101 -125l-221 -227h325l-14 -78h-446z" />
    <glyph glyph-name="three.tnum" 
d="M536 622l-205 -198q88 -11 140.5 -65.5t52.5 -136.5q0 -67 -32 -120.5t-88.5 -84.5t-125.5 -31q-78 0 -141.5 43t-95.5 120l77 39q25 -57 68.5 -89t95.5 -32q41 0 75.5 19.5t54.5 54t20 77.5q0 59 -37.5 95.5t-96.5 36.5q-29 0 -52 -9l-53 61l230 220h-298l14 78h411z
" />
    <glyph glyph-name="four.tnum" 
d="M545 170h-111l-30 -170h-90l30 170h-315l13 78l385 452h101l-80 -452h110zM358 248l59 332l-279 -332h220z" />
    <glyph glyph-name="five.tnum" 
d="M25 150l80 35q17 -56 55.5 -87t94.5 -31q45 0 80 20t54 54t19 74q0 57 -38.5 92.5t-98.5 35.5h-177l63 357h393l-14 -78h-304l-35 -201h92q58 0 106.5 -25.5t77 -71t28.5 -103.5q0 -65 -32.5 -119t-89 -85t-127.5 -31q-83 0 -142.5 43.5t-84.5 120.5z" />
    <glyph glyph-name="six.tnum" 
d="M519 224q0 -69 -31 -123t-87.5 -84.5t-129.5 -30.5q-64 0 -114 27t-78.5 74.5t-28.5 108.5q0 40 13 82t41 80l251 342h101l-190 -265q24 6 50 6q57 0 103.5 -28t73 -77.5t26.5 -111.5zM427 224q0 62 -36 101.5t-94 39.5q-46 0 -81 -22.5t-54 -60.5t-19 -81
q0 -60 36.5 -97t96.5 -37q68 0 109.5 45t41.5 112z" />
    <glyph glyph-name="seven.tnum" 
d="M503 622h-362l14 78h452l-14 -78l-325 -622h-95z" />
    <glyph glyph-name="eight.tnum" 
d="M525 194q0 -60 -32 -107.5t-88.5 -74t-127.5 -26.5q-67 0 -119.5 24.5t-82.5 68t-30 97.5q0 62 40 113.5t104 74.5q-38 22 -59.5 61t-21.5 87q0 58 29.5 104t81.5 72t117 26q61 0 109 -24t74.5 -66t26.5 -94q0 -55 -32.5 -101.5t-87.5 -72.5q46 -22 72.5 -65.5
t26.5 -96.5zM200 507q0 -49 31 -78.5t83 -29.5q60 0 100 36t40 89q0 48 -34 78.5t-87 30.5q-57 0 -95 -36t-38 -90zM432 198q0 53 -36.5 86.5t-96.5 33.5q-44 0 -81 -17.5t-58 -48t-21 -67.5q0 -52 39.5 -85t102.5 -33q67 0 109 36.5t42 94.5z" />
    <glyph glyph-name="nine.tnum" 
d="M570 504q0 -40 -13 -82t-41 -80l-251 -342h-101l190 265q-24 -6 -50 -6q-57 0 -103.5 28t-73 77.5t-26.5 111.5q0 69 31 123t87.5 84.5t129.5 30.5q64 0 114 -27t78.5 -74.5t28.5 -108.5zM477 499q0 60 -36.5 97t-96.5 37q-68 0 -109.5 -45t-41.5 -112q0 -62 36 -101.5
t94 -39.5q46 0 81 22.5t54 60.5t19 81z" />
    <glyph glyph-name="zero.dnom" horiz-adv-x="434" 
d="M30 184q0 76 25 140t72 102t110 38q72 0 115 -52t43 -141q0 -76 -25 -140t-72 -102t-110 -38q-72 0 -115 52t-43 141zM318 268q0 61 -23.5 95t-63.5 34q-38 0 -66 -31t-43 -79.5t-15 -99.5q0 -61 23.5 -95t63.5 -34q38 0 66 31t43 79.5t15 99.5z" />
    <glyph glyph-name="one.dnom" horiz-adv-x="308" 
d="M273 455l-81 -455h-74l66 373l-111 -74l-34 55l157 101h77z" />
    <glyph glyph-name="two.dnom" horiz-adv-x="387" 
d="M30 66l170 172q35 36 50 58t15 45q0 26 -17 41t-43 15q-27 0 -52 -17t-43 -49l-61 37q27 46 69.5 71t90.5 25q58 0 96 -33t38 -84q0 -38 -21 -72.5t-66 -80.5l-124 -128h192l-11 -66h-294z" />
    <glyph glyph-name="three.dnom" horiz-adv-x="374" 
d="M326 389l-120 -115q53 -10 84.5 -45t31.5 -86q0 -42 -21 -77t-58.5 -55t-85.5 -20q-53 0 -93 25.5t-61 74.5l60 35q30 -71 94 -71q37 0 63.5 24t26.5 61q0 34 -21.5 54.5t-55.5 20.5q-19 0 -32 -6l-36 46l144 134h-194l12 66h274z" />
    <glyph glyph-name="four.dnom" horiz-adv-x="396" 
d="M355 105h-77l-18 -105h-75l19 105h-212l12 65l252 285h84l-50 -285h76zM215 170l32 181l-156 -181h124z" />
    <glyph glyph-name="five.dnom" horiz-adv-x="376" 
d="M5 96l67 30q10 -33 32 -51t55 -18q38 0 61.5 24.5t23.5 58.5q0 33 -21.5 52.5t-57.5 19.5h-118l43 243h264l-12 -66h-190l-20 -111h55q58 0 96 -36.5t38 -95.5q0 -43 -21.5 -78.5t-59 -56t-84.5 -20.5q-55 0 -94.5 27.5t-56.5 77.5z" />
    <glyph glyph-name="six.dnom" horiz-adv-x="378" 
d="M327 147q0 -69 -46.5 -112.5t-120.5 -43.5q-65 0 -107 38.5t-42 98.5q0 57 35 107l162 220h83l-121 -171q14 2 23 2q57 0 95.5 -39t38.5 -100zM253 145q0 36 -21 59t-54 23q-39 0 -64 -28t-25 -67q0 -35 20.5 -56t55.5 -21q38 0 63 26t25 64z" />
    <glyph glyph-name="seven.dnom" horiz-adv-x="339" 
d="M270 389h-225l11 66h301l-12 -66l-201 -389h-79z" />
    <glyph glyph-name="eight.dnom" horiz-adv-x="378" 
d="M328 128q0 -60 -46.5 -98.5t-117.5 -38.5q-69 0 -112.5 35.5t-43.5 89.5q0 42 25 74t67 45q-23 15 -36.5 40.5t-13.5 56.5q0 57 44 94.5t110 37.5q61 0 100.5 -35t39.5 -87q0 -36 -21 -67t-57 -47q29 -14 45.5 -40t16.5 -60zM121 328q0 -29 19 -46.5t50 -17.5
q36 0 59.5 20.5t23.5 51.5q0 30 -19.5 48t-51.5 18q-35 0 -58 -21.5t-23 -52.5zM253 129q0 31 -22 51t-57 20q-39 0 -64.5 -22t-25.5 -56q0 -30 23 -49.5t58 -19.5q39 0 63.5 21.5t24.5 54.5z" />
    <glyph glyph-name="nine.dnom" horiz-adv-x="378" 
d="M359 327q0 -57 -35 -107l-162 -220h-83l121 171q-14 -2 -23 -2q-57 0 -95.5 39t-38.5 100q0 69 46.5 112.5t120.5 43.5q65 0 107 -38.5t42 -98.5zM281 323q0 35 -20.5 56t-55.5 21q-38 0 -63 -26t-25 -64q0 -36 21 -59t54 -23q39 0 64 28t25 67z" />
    <glyph glyph-name="zero.numr" horiz-adv-x="433" 
d="M73 429q0 76 25 140t72 102t110 38q72 0 115 -52t43 -141q0 -76 -25 -140t-72 -102t-110 -38q-72 0 -115 52t-43 141zM361 513q0 61 -23.5 95t-63.5 34q-38 0 -66 -31t-43 -79.5t-15 -99.5q0 -61 23.5 -95t63.5 -34q38 0 66 31t43 79.5t15 99.5z" />
    <glyph glyph-name="one.numr" horiz-adv-x="309" 
d="M317 700l-81 -455h-74l66 373l-111 -74l-34 55l157 101h77z" />
    <glyph glyph-name="two.numr" horiz-adv-x="387" 
d="M73 311l170 172q35 36 50 58t15 45q0 26 -17 41t-43 15q-27 0 -52 -17t-43 -49l-61 37q27 46 69.5 71t90.5 25q58 0 96 -33t38 -84q0 -38 -21 -72.5t-66 -80.5l-124 -128h192l-11 -66h-294z" />
    <glyph glyph-name="three.numr" horiz-adv-x="374" 
d="M369 634l-120 -115q53 -10 84.5 -45t31.5 -86q0 -42 -21 -77t-58.5 -55t-85.5 -20q-53 0 -93 25.5t-61 74.5l60 35q30 -71 94 -71q37 0 63.5 24t26.5 61q0 34 -21.5 54.5t-55.5 20.5q-18 0 -32 -6l-36 46l144 134h-194l12 66h274z" />
    <glyph glyph-name="four.numr" horiz-adv-x="397" 
d="M398 350h-77l-18 -105h-75l19 105h-212l12 65l252 285h84l-50 -285h76zM258 415l32 181l-156 -181h124z" />
    <glyph glyph-name="five.numr" horiz-adv-x="376" 
d="M49 341l67 30q10 -33 32 -51t55 -18q38 0 61.5 24.5t23.5 58.5q0 33 -21.5 52.5t-57.5 19.5h-118l43 243h264l-12 -66h-190l-20 -111h55q58 0 96 -36.5t38 -95.5q0 -43 -21.5 -78.5t-59 -56t-84.5 -20.5q-55 0 -94.5 27.5t-56.5 77.5z" />
    <glyph glyph-name="six.numr" horiz-adv-x="378" 
d="M370 392q0 -69 -46.5 -112.5t-120.5 -43.5q-65 0 -107 38.5t-42 98.5q0 57 35 107l162 220h83l-121 -171q14 2 23 2q57 0 95.5 -39t38.5 -100zM296 390q0 36 -21 59t-54 23q-39 0 -64 -28t-25 -67q0 -35 20.5 -56t55.5 -21q38 0 63 26t25 64z" />
    <glyph glyph-name="seven.numr" horiz-adv-x="339" 
d="M313 634h-225l11 66h301l-12 -66l-201 -389h-79z" />
    <glyph glyph-name="eight.numr" horiz-adv-x="378" 
d="M372 373q0 -60 -46.5 -98.5t-117.5 -38.5q-69 0 -112.5 35.5t-43.5 89.5q0 42 25 74t67 45q-23 15 -36.5 40.5t-13.5 56.5q0 57 44 94.5t110 37.5q61 0 100.5 -35t39.5 -87q0 -36 -21 -67t-57 -47q29 -14 45.5 -40t16.5 -60zM165 573q0 -29 19 -46.5t50 -17.5
q36 0 59.5 20.5t23.5 51.5q0 30 -19.5 48t-51.5 18q-35 0 -58 -21.5t-23 -52.5zM297 374q0 31 -22 51t-57 20q-39 0 -64.5 -22t-25.5 -56q0 -30 23 -49.5t58 -19.5q39 0 63.5 21.5t24.5 54.5z" />
    <glyph glyph-name="nine.numr" horiz-adv-x="378" 
d="M402 572q0 -57 -35 -107l-162 -220h-83l121 171q-14 -2 -23 -2q-57 0 -95.5 39t-38.5 100q0 69 46.5 112.5t120.5 43.5q65 0 107 -38.5t42 -98.5zM324 568q0 35 -20.5 56t-55.5 21q-38 0 -63 -26t-25 -64q0 -36 21 -59t54 -23q39 0 64 28t25 67z" />
    <glyph glyph-name="zero.superior" horiz-adv-x="433" 
d="M95 554q0 76 25 140t72 102t110 38q72 0 115 -52t43 -141q0 -76 -25 -140t-72 -102t-110 -38q-72 0 -115 52t-43 141zM383 638q0 61 -23.5 95t-63.5 34q-38 0 -66 -31t-43 -79.5t-15 -99.5q0 -61 23.5 -95t63.5 -34q38 0 66 31t43 79.5t15 99.5z" />
    <glyph glyph-name="one.superior" horiz-adv-x="308" 
d="M338 825l-81 -455h-74l66 373l-111 -74l-34 55l157 101h77z" />
    <glyph glyph-name="two.superior" horiz-adv-x="387" 
d="M96 436l170 172q35 36 50 58t15 45q0 26 -17 41t-43 15q-27 0 -52 -17t-43 -49l-61 37q27 46 69.5 71t90.5 25q58 0 96 -33t38 -84q0 -38 -21 -72.5t-66 -80.5l-124 -128h192l-11 -66h-294z" />
    <glyph glyph-name="three.superior" horiz-adv-x="374" 
d="M391 759l-120 -115q53 -10 84.5 -45t31.5 -86q0 -42 -21 -77t-58.5 -55t-85.5 -20q-53 0 -93 25.5t-61 74.5l60 35q30 -71 94 -71q37 0 63.5 24t26.5 61q0 34 -21.5 54.5t-55.5 20.5q-19 0 -32 -6l-36 46l144 134h-194l12 66h274z" />
    <glyph glyph-name="four.superior" horiz-adv-x="397" 
d="M420 475h-77l-18 -105h-75l19 105h-212l12 65l252 285h84l-50 -285h76zM280 540l32 181l-156 -181h124z" />
    <glyph glyph-name="five.superior" horiz-adv-x="376" 
d="M70 466l67 30q10 -33 32 -51t55 -18q38 0 61.5 24.5t23.5 58.5q0 33 -21.5 52.5t-57.5 19.5h-118l43 243h264l-12 -66h-190l-20 -111h55q58 0 96 -36.5t38 -95.5q0 -43 -21.5 -78.5t-59 -56t-84.5 -20.5q-55 0 -94.5 27.5t-56.5 77.5z" />
    <glyph glyph-name="six.superior" horiz-adv-x="378" 
d="M393 517q0 -69 -46.5 -112.5t-120.5 -43.5q-65 0 -107 38.5t-42 98.5q0 57 35 107l162 220h83l-121 -171q14 2 23 2q57 0 95.5 -39t38.5 -100zM319 515q0 36 -21 59t-54 23q-39 0 -64 -28t-25 -67q0 -35 20.5 -56t55.5 -21q38 0 63 26t25 64z" />
    <glyph glyph-name="seven.superior" horiz-adv-x="339" 
d="M335 759h-225l11 66h301l-12 -66l-201 -389h-79z" />
    <glyph glyph-name="eight.superior" horiz-adv-x="378" 
d="M393 498q0 -60 -46.5 -98.5t-117.5 -38.5q-69 0 -112.5 35.5t-43.5 89.5q0 42 25 74t67 45q-23 15 -36.5 40.5t-13.5 56.5q0 57 44 94.5t110 37.5q61 0 100.5 -35t39.5 -87q0 -36 -21 -67t-57 -47q29 -14 45.5 -40t16.5 -60zM186 698q0 -29 19 -46.5t50 -17.5
q36 0 59.5 20.5t23.5 51.5q0 30 -19.5 48t-51.5 18q-35 0 -58 -21.5t-23 -52.5zM318 499q0 31 -22 51t-57 20q-39 0 -64.5 -22t-25.5 -56q0 -30 23 -49.5t58 -19.5q39 0 63.5 21.5t24.5 54.5z" />
    <glyph glyph-name="nine.superior" horiz-adv-x="378" 
d="M424 697q0 -57 -35 -107l-162 -220h-83l121 171q-14 -2 -23 -2q-57 0 -95.5 39t-38.5 100q0 69 46.5 112.5t120.5 43.5q65 0 107 -38.5t42 -98.5zM346 693q0 35 -20.5 56t-55.5 21q-38 0 -63 -26t-25 -64q0 -36 21 -59t54 -23q39 0 64 28t25 67z" />
    <glyph glyph-name="fraction" unicode="&#x2044;" horiz-adv-x="242" 
d="M341 700h85l-525 -700h-85z" />
    <glyph glyph-name="onehalf" unicode="&#xbd;" horiz-adv-x="963" 
d="M317 700l-81 -455h-74l66 373l-111 -74l-34 55l157 101h77zM675 700h85l-525 -700h-85zM606 66l170 172q35 36 50 58t15 45q0 26 -17 41t-43 15q-27 0 -52 -17t-43 -49l-61 37q27 46 69.5 71t90.5 25q58 0 96 -33t38 -84q0 -38 -21 -72.5t-66 -80.5l-124 -128h192
l-11 -66h-294z" />
    <glyph glyph-name="onethird" unicode="&#x2153;" horiz-adv-x="954" 
d="M317 700l-81 -455h-74l66 373l-111 -74l-34 55l157 101h77zM675 700h85l-525 -700h-85zM906 389l-120 -115q53 -10 84.5 -45t31.5 -86q0 -42 -21 -77t-58.5 -55t-85.5 -20q-53 0 -93 25.5t-61 74.5l60 35q30 -71 94 -71q37 0 63.5 24t26.5 61q0 34 -21.5 54.5t-55.5 20.5
q-19 0 -32 -6l-36 46l144 134h-194l12 66h274z" />
    <glyph glyph-name="twothirds" unicode="&#x2154;" horiz-adv-x="1031" 
d="M73 311l170 172q35 36 50 58t15 45q0 26 -17 41t-43 15q-27 0 -52 -17t-43 -49l-61 37q27 46 69.5 71t90.5 25q58 0 96 -33t38 -84q0 -38 -21 -72.5t-66 -80.5l-124 -128h192l-11 -66h-294zM752 700h85l-525 -700h-85zM983 389l-120 -115q53 -10 84.5 -45t31.5 -86
q0 -42 -21 -77t-58.5 -55t-85.5 -20q-53 0 -93 25.5t-61 74.5l60 35q30 -71 94 -71q37 0 63.5 24t26.5 61q0 34 -21.5 54.5t-55.5 20.5q-19 0 -32 -6l-36 46l144 134h-194l12 66h274z" />
    <glyph glyph-name="onequarter" unicode="&#xbc;" horiz-adv-x="927" 
d="M317 700l-81 -455h-74l66 373l-111 -74l-34 55l157 101h77zM675 700h85l-525 -700h-85zM886 105h-77l-18 -105h-75l19 105h-212l12 65l252 285h84l-50 -285h76zM746 170l32 181l-156 -181h124z" />
    <glyph glyph-name="threequarters" unicode="&#xbe;" horiz-adv-x="971" 
d="M369 634l-120 -115q53 -10 84.5 -45t31.5 -86q0 -42 -21 -77t-58.5 -55t-85.5 -20q-53 0 -93 25.5t-61 74.5l60 35q30 -71 94 -71q37 0 63.5 24t26.5 61q0 34 -21.5 54.5t-55.5 20.5q-18 0 -32 -6l-36 46l144 134h-194l12 66h274zM719 700h85l-525 -700h-85zM930 105h-77
l-18 -105h-75l19 105h-212l12 65l252 285h84l-50 -285h76zM790 170l32 181l-156 -181h124z" />
    <glyph glyph-name="oneeighth" unicode="&#x215b;" horiz-adv-x="949" 
d="M317 700l-81 -455h-74l66 373l-111 -74l-34 55l157 101h77zM675 700h85l-525 -700h-85zM899 128q0 -60 -46.5 -98.5t-117.5 -38.5q-69 0 -112.5 35.5t-43.5 89.5q0 42 25 74t67 45q-23 15 -36.5 40.5t-13.5 56.5q0 57 44 94.5t110 37.5q61 0 100.5 -35t39.5 -87
q0 -36 -21 -67t-57 -47q29 -14 45.5 -40t16.5 -60zM692 328q0 -29 19 -46.5t50 -17.5q36 0 59.5 20.5t23.5 51.5q0 30 -19.5 48t-51.5 18q-35 0 -58 -21.5t-23 -52.5zM824 129q0 31 -22 51t-57 20q-39 0 -64.5 -22t-25.5 -56q0 -30 23 -49.5t58 -19.5q39 0 63.5 21.5
t24.5 54.5z" />
    <glyph glyph-name="threeeighths" unicode="&#x215c;" horiz-adv-x="993" 
d="M369 634l-120 -115q53 -10 84.5 -45t31.5 -86q0 -42 -21 -77t-58.5 -55t-85.5 -20q-53 0 -93 25.5t-61 74.5l60 35q30 -71 94 -71q37 0 63.5 24t26.5 61q0 34 -21.5 54.5t-55.5 20.5q-18 0 -32 -6l-36 46l144 134h-194l12 66h274zM719 700h85l-525 -700h-85zM943 128
q0 -60 -46.5 -98.5t-117.5 -38.5q-69 0 -112.5 35.5t-43.5 89.5q0 42 25 74t67 45q-23 15 -36.5 40.5t-13.5 56.5q0 57 44 94.5t110 37.5q61 0 100.5 -35t39.5 -87q0 -36 -21 -67t-57 -47q29 -14 45.5 -40t16.5 -60zM736 328q0 -29 19 -46.5t50 -17.5q36 0 59.5 20.5
t23.5 51.5q0 30 -19.5 48t-51.5 18q-35 0 -58 -21.5t-23 -52.5zM868 129q0 31 -22 51t-57 20q-39 0 -64.5 -22t-25.5 -56q0 -30 23 -49.5t58 -19.5q39 0 63.5 21.5t24.5 54.5z" />
    <glyph glyph-name="fiveeighths" unicode="&#x215d;" horiz-adv-x="996" 
d="M49 341l67 30q10 -33 32 -51t55 -18q38 0 61.5 24.5t23.5 58.5q0 33 -21.5 52.5t-57.5 19.5h-118l43 243h264l-12 -66h-190l-20 -111h55q58 0 96 -36.5t38 -95.5q0 -43 -21.5 -78.5t-59 -56t-84.5 -20.5q-55 0 -94.5 27.5t-56.5 77.5zM722 700h85l-525 -700h-85zM946 128
q0 -60 -46.5 -98.5t-117.5 -38.5q-69 0 -112.5 35.5t-43.5 89.5q0 42 25 74t67 45q-23 15 -36.5 40.5t-13.5 56.5q0 57 44 94.5t110 37.5q61 0 100.5 -35t39.5 -87q0 -36 -21 -67t-57 -47q29 -14 45.5 -40t16.5 -60zM739 328q0 -29 19 -46.5t50 -17.5q36 0 59.5 20.5
t23.5 51.5q0 30 -19.5 48t-51.5 18q-35 0 -58 -21.5t-23 -52.5zM871 129q0 31 -22 51t-57 20q-39 0 -64.5 -22t-25.5 -56q0 -30 23 -49.5t58 -19.5q39 0 63.5 21.5t24.5 54.5z" />
    <glyph glyph-name="seveneighths" unicode="&#x215e;" horiz-adv-x="932" 
d="M313 634h-225l11 66h301l-12 -66l-201 -389h-79zM658 700h85l-525 -700h-85zM882 128q0 -60 -46.5 -98.5t-117.5 -38.5q-69 0 -112.5 35.5t-43.5 89.5q0 42 25 74t67 45q-23 15 -36.5 40.5t-13.5 56.5q0 57 44 94.5t110 37.5q61 0 100.5 -35t39.5 -87q0 -36 -21 -67
t-57 -47q29 -14 45.5 -40t16.5 -60zM675 328q0 -29 19 -46.5t50 -17.5q36 0 59.5 20.5t23.5 51.5q0 30 -19.5 48t-51.5 18q-35 0 -58 -21.5t-23 -52.5zM807 129q0 31 -22 51t-57 20q-39 0 -64.5 -22t-25.5 -56q0 -30 23 -49.5t58 -19.5q39 0 63.5 21.5t24.5 54.5z" />
    <glyph glyph-name="asterisk" unicode="*" horiz-adv-x="459" 
d="M127 451l92 86l-97 49l39 68l90 -45l21 121h80l-22 -121l103 45l22 -72l-112 -49l61 -88l-65 -49l-64 91l-93 -90z" />
    <glyph glyph-name="backslash" unicode="\" horiz-adv-x="805" 
d="M205.987 800h-84.9951l496.97 -905h83.9951z" />
    <glyph glyph-name="periodcentered" unicode="&#xb7;" horiz-adv-x="237" 
d="M101 416h93l-23 -133h-93z" />
    <glyph glyph-name="bullet" unicode="&#x2022;" horiz-adv-x="337" 
d="M89 337q0 40 27.5 67.5t67.5 27.5t67.5 -27.5t27.5 -67.5t-27.5 -67.5t-67.5 -27.5t-67.5 27.5t-27.5 67.5z" />
    <glyph glyph-name="colon" unicode=":" horiz-adv-x="237" 
d="M116 502h93l-23 -133h-93zM51 133h93l-23 -133h-93z" />
    <glyph glyph-name="comma" unicode="," horiz-adv-x="241" 
d="M56 138h93l-86 -256h-66z" />
    <glyph glyph-name="ellipsis" unicode="&#x2026;" horiz-adv-x="717" 
d="M291 133h93l-23 -133h-93zM531 133h93l-23 -133h-93zM51 133h93l-23 -133h-93z" />
    <glyph glyph-name="exclam" unicode="!" horiz-adv-x="236" 
d="M152 700h91l-88 -496h-91zM52 138h91l-24 -138h-91z" />
    <glyph glyph-name="exclamdown" unicode="&#xa1;" horiz-adv-x="236" 
d="M184 364h-91l24 138h91zM84 -198h-91l88 496h91z" />
    <glyph glyph-name="numbersign" unicode="#" horiz-adv-x="612" 
d="M522 424l-47 -163h88l-13 -78h-97l-53 -183h-94l53 183h-167l-53 -183h-94l53 183h-88l13 78h97l47 163h-86l14 78h94l57 198h96l-57 -198h166l57 198h94l-57 -198h90l-14 -78h-99zM428 424h-166l-47 -163h166z" />
    <glyph glyph-name="period" unicode="." horiz-adv-x="237" 
d="M51 133h93l-23 -133h-93z" />
    <glyph glyph-name="question" unicode="?" horiz-adv-x="519" 
d="M223 354l75 30q62 26 96 63t34 82t-31 73t-80 28q-43 0 -81 -22t-67 -63l-67 54q41 56 97.5 84.5t123.5 28.5q58 0 102.5 -22.5t69.5 -63t25 -92.5q0 -133 -156 -204l-61 -28l-19 -104h-89zM184 133h89l-23 -133h-89z" />
    <glyph glyph-name="questiondown" unicode="&#xbf;" horiz-adv-x="519" 
d="M335 369h-89l23 133h89zM296 148l-75 -30q-62 -26 -96 -63t-34 -82t31 -73t80 -28q43 0 81 22t67 63l67 -54q-41 -56 -97.5 -84.5t-123.5 -28.5q-58 0 -102.5 22.5t-69.5 63t-25 92.5q0 133 156 204l61 28l19 104h89z" />
    <glyph glyph-name="quotedbl" unicode="&#x22;" horiz-adv-x="398" 
d="M332 730h79l-44 -251h-80zM149 730h79l-44 -251h-80z" />
    <glyph glyph-name="quotesingle" unicode="'" horiz-adv-x="224" 
d="M157 730h79l-44 -251h-80z" />
    <glyph glyph-name="semicolon" unicode=";" horiz-adv-x="241" 
d="M120 502h93l-23 -133h-93zM56 138h93l-86 -256h-66z" />
    <glyph glyph-name="slash" unicode="/" horiz-adv-x="485" 
d="M473 800h85l-497 -905h-84z" />
    <glyph glyph-name="underscore" unicode="_" horiz-adv-x="486" 
d="M23 78h379l-14 -78h-378z" />
    <glyph glyph-name="bullet.case" horiz-adv-x="336" 
d="M91 350q0 40 27.5 67.5t67.5 27.5t67.5 -27.5t27.5 -67.5t-27.5 -67.5t-67.5 -27.5t-67.5 27.5t-27.5 67.5z" />
    <glyph glyph-name="exclamdown.aalt" horiz-adv-x="236" 
d="M219 562h-91l24 138h91zM119 0h-91l88 496h91z" />
    <glyph glyph-name="questiondown.aalt" horiz-adv-x="518" 
d="M370 567h-89l23 133h89zM331 346l-75 -30q-62 -26 -96 -63t-34 -82t31 -73t80 -28q43 0 81 22t67 63l67 -54q-41 -56 -97.5 -84.5t-123.5 -28.5q-58 0 -102.5 22.5t-69.5 63t-25 92.5q0 133 156 204l61 28l19 104h89z" />
    <glyph glyph-name="periodcentered.aalt" horiz-adv-x="300" 
d="M132 416h93l-23 -133h-93z" />
    <glyph glyph-name="bullet.salt" horiz-adv-x="300" 
d="M78.7188 335.494q0 37.4854 25.7715 63.2559q25.7715 25.7715 63.2568 25.7715t63.2568 -25.7715q25.7705 -25.7705 25.7705 -63.2559t-25.7705 -63.2568q-25.7715 -25.7715 -63.2568 -25.7715t-63.2568 25.7715t-25.7715 63.2568z" />
    <glyph glyph-name="colon.aalt" horiz-adv-x="300" 
d="M147 502h93l-23 -133h-93zM82 133h93l-23 -133h-93z" />
    <glyph glyph-name="comma.aalt" horiz-adv-x="300" 
d="M83 138h93l-86 -256h-66z" />
    <glyph glyph-name="period.aalt" horiz-adv-x="300" 
d="M82 133h93l-23 -133h-93z" />
    <glyph glyph-name="semicolon.aalt" horiz-adv-x="300" 
d="M147 502h93l-23 -133h-93zM83 138h93l-86 -256h-66z" />
    <glyph glyph-name="braceleft" unicode="{" horiz-adv-x="357" 
d="M407 742l-13 -78h-56q-37 0 -58.5 -19.5t-27.5 -55.5l-27 -157q-13 -77 -84 -114q47 -32 47 -87q0 -13 -3 -27l-24 -138q-2 -16 -2 -23q0 -31 17.5 -47.5t50.5 -16.5h46l-13 -78h-56q-62 0 -99 35.5t-37 92.5q0 18 2 28l24 137q2 9 2 25q0 30 -16 46.5t-46 16.5h-13
l14 79h13q76 0 93 94l27 156q11 63 51 97t107 34h81z" />
    <glyph glyph-name="braceright" unicode="}" horiz-adv-x="357" 
d="M360 360l-14 -79h-13q-76 0 -93 -94l-27 -156q-11 -63 -51 -97t-107 -34h-81l13 78h56q37 0 58.5 19.5t27.5 55.5l27 157q13 77 84 114q-47 32 -47 87q0 14 3 27l24 138q2 16 2 23q0 31 -17.5 47.5t-50.5 16.5h-46l13 78h56q62 0 99 -35.5t37 -92.5q0 -18 -2 -28
l-24 -137q-2 -9 -2 -25q0 -30 16 -46.5t46 -16.5h13z" />
    <glyph glyph-name="bracketleft" unicode="[" horiz-adv-x="344" 
d="M245 664l-120 -685h135l-13 -78h-225l148 841h225l-13 -78h-137z" />
    <glyph glyph-name="bracketright" unicode="]" horiz-adv-x="344" 
d="M199 -100h-225l13 78h137l120 685h-135l13 78h225z" />
    <glyph glyph-name="parenleft" unicode="(" horiz-adv-x="313" 
d="M68 225q0 134 43.5 260.5t131.5 271.5l78 -34q-84 -141 -124.5 -258t-40.5 -240q0 -73 14.5 -145t43.5 -165l-81 -25q-33 96 -49 174.5t-16 160.5z" />
    <glyph glyph-name="parenright" unicode=")" horiz-adv-x="313" 
d="M271 423q0 -134 -43.5 -260.5t-131.5 -271.5l-78 34q84 141 124.5 258t40.5 240q0 73 -14.5 145t-43.5 165l81 25q33 -96 49 -174.5t16 -160.5z" />
    <glyph glyph-name="braceleft.case" horiz-adv-x="357" 
d="M412 771l-13 -78h-56q-37 0 -58.5 -19.5t-27.5 -55.5l-27 -157q-13 -77 -84 -114q47 -32 47 -87q0 -13 -3 -27l-24 -138q-2 -16 -2 -23q0 -31 17.5 -47.5t50.5 -16.5h46l-13 -78h-56q-62 0 -99 35.5t-37 92.5q0 18 2 28l24 137q2 9 2 25q0 30 -16 46.5t-46 16.5h-13
l14 79h13q76 0 93 94l27 156q11 63 51 97t107 34h81z" />
    <glyph glyph-name="braceright.case" horiz-adv-x="357" 
d="M365 389l-14 -79h-13q-76 0 -93 -94l-27 -156q-11 -63 -51 -97t-107 -34h-81l13 78h56q37 0 58.5 19.5t27.5 55.5l27 157q13 77 84 114q-47 32 -47 87q0 14 3 27l24 138q2 16 2 23q0 31 -17.5 47.5t-50.5 16.5h-46l13 78h56q62 0 99 -35.5t37 -92.5q0 -18 -2 -28
l-24 -137q-2 -9 -2 -25q0 -30 16 -46.5t46 -16.5h13z" />
    <glyph glyph-name="bracketleft.case" horiz-adv-x="345" 
d="M250 693l-120 -685h135l-13 -78h-225l148 841h225l-13 -78h-137z" />
    <glyph glyph-name="bracketright.case" horiz-adv-x="344" 
d="M204 -71h-225l13 78h137l120 685h-135l13 78h225z" />
    <glyph glyph-name="parenleft.case" horiz-adv-x="313" 
d="M72 254q0 134 43.5 260.5t131.5 271.5l78 -34q-84 -141 -124.5 -258t-40.5 -240q0 -73 14.5 -145t43.5 -165l-81 -25q-33 96 -49 174.5t-16 160.5z" />
    <glyph glyph-name="parenright.case" horiz-adv-x="313" 
d="M276 452q0 -134 -43.5 -260.5t-131.5 -271.5l-78 34q84 141 124.5 258t40.5 240q0 73 -14.5 145t-43.5 165l81 25q33 -96 49 -174.5t16 -160.5z" />
    <glyph glyph-name="braceleft.salt" horiz-adv-x="300" 
d="M360 742l-13 -78h-38q-31 0 -48.5 -17.5t-24.5 -55.5l-28 -159q-15 -78 -85 -113q47 -33 47 -89q0 -17 -2 -26l-26 -147q-2 -14 -2 -20q0 -28 15 -43t43 -15h28l-14 -78h-42q-54 0 -87.5 33t-33.5 86q0 14 3 29l27 155q2 14 2 20q0 27 -15 42.5t-42 15.5h-13l13 79h17
q30 0 52 23t29 62l31 174q11 60 48.5 91t100.5 31h58z" />
    <glyph glyph-name="braceright.salt" horiz-adv-x="300" 
d="M-34.998 -99.9941l12.999 77.9951h37.998q30.998 0 48.4971 17.499t24.498 55.4971l27.999 158.99q14.999 77.9951 84.9941 112.993q-46.9971 32.998 -46.9971 88.9941q0 16.999 2 25.999l25.999 146.99q1.99902 14 1.99902 19.999q0 27.998 -14.999 42.998
q-14.999 14.999 -42.9971 14.999h-27.998l13.999 77.9951h41.9971q53.9971 0 87.4951 -32.998t33.498 -85.9951q0 -13.999 -3 -28.998l-26.998 -154.99q-2 -13.999 -2 -19.999q0 -26.998 14.999 -42.4971t41.9971 -15.499h12.999l-12.999 -78.9961h-16.999
q-29.998 0 -51.9961 -22.998q-21.999 -22.999 -28.999 -61.9961l-30.998 -173.989q-10.999 -59.9971 -48.4971 -90.9951q-37.4971 -30.998 -100.493 -30.998h-57.9971z" />
    <glyph glyph-name="bracketleft.salt" horiz-adv-x="300" 
d="M217 664l-120 -685h117l-13 -78h-207l148 841h207l-13 -78h-119z" />
    <glyph glyph-name="bracketright.salt" horiz-adv-x="300" 
d="M107.993 -21.999l119.993 684.959h-116.993l12.999 77.9951h206.987l-147.99 -840.949h-206.987l12.999 77.9951h118.992z" />
    <glyph glyph-name="parenleft.salt" horiz-adv-x="300" 
d="M61 225q0 134 43.5 260.5t131.5 271.5l78 -34q-84 -141 -124.5 -258t-40.5 -240q0 -73 14.5 -145t43.5 -165l-81 -25q-33 96 -49 174.5t-16 160.5z" />
    <glyph glyph-name="parenright.salt" horiz-adv-x="300" 
d="M265.983 422.975q0 -133.992 -43.4971 -260.484t-131.492 -271.483l-77.9951 33.998q83.9951 140.991 124.492 257.984q40.498 116.992 40.498 239.985q0 72.9951 -14.499 144.99q-14.499 71.9961 -43.498 164.99l80.9951 24.999q32.998 -95.9941 48.9971 -174.489
q15.999 -78.4961 15.999 -160.49z" />
    <glyph glyph-name="emdash" unicode="&#x2014;" horiz-adv-x="750" 
d="M68 328h641l-14 -78h-640z" />
    <glyph glyph-name="endash" unicode="&#x2013;" horiz-adv-x="506" 
d="M68 328h397l-13 -78h-397z" />
    <glyph glyph-name="hyphen" unicode="-" horiz-adv-x="375" 
d="M68 328h266l-13 -78h-266z" />
    <glyph glyph-name="uni2011" unicode="&#x2011;" horiz-adv-x="375" 
d="M68 328h266l-13 -78h-266z" />
    <glyph glyph-name="uni00AD" unicode="&#xad;" horiz-adv-x="375" 
d="M68 328h266l-13 -78h-266z" />
    <glyph glyph-name="emdash.aalt" horiz-adv-x="750" 
d="M79 389h641l-14 -78h-640z" />
    <glyph glyph-name="endash.aalt" horiz-adv-x="506" 
d="M79 389h397l-13 -78h-397z" />
    <glyph glyph-name="hyphen.aalt" horiz-adv-x="375" 
d="M79 389h266l-13 -78h-266z" />
    <glyph glyph-name="uni2011.aalt" horiz-adv-x="375" 
d="M79 389h266l-13 -78h-266z" />
    <glyph glyph-name="uni00AD.aalt" horiz-adv-x="375" 
d="M79 389h266l-13 -78h-266z" />
    <glyph glyph-name="guillemotleft" unicode="&#xab;" horiz-adv-x="511" 
d="M140 252l69 -172l-78 -21l-77 203l134 199l70 -36zM337 252l69 -172l-78 -21l-77 203l134 199l70 -36z" />
    <glyph glyph-name="guillemotright" unicode="&#xbb;" horiz-adv-x="510" 
d="M374 268l-69 172l78 21l77 -203l-134 -199l-70 36zM177 268l-69 172l78 21l77 -203l-134 -199l-70 36z" />
    <glyph glyph-name="guilsinglleft" unicode="&#x2039;" horiz-adv-x="314" 
d="M140 252l69 -172l-78 -21l-77 203l134 199l70 -36z" />
    <glyph glyph-name="guilsinglright" unicode="&#x203a;" horiz-adv-x="314" 
d="M177 268l-69 172l78 21l77 -203l-134 -199l-70 36z" />
    <glyph glyph-name="quotedblbase" unicode="&#x201e;" horiz-adv-x="423" 
d="M238 138h93l-86 -256h-66zM56 138h93l-86 -256h-66z" />
    <glyph glyph-name="quotedblleft" unicode="&#x201c;" horiz-adv-x="423" 
d="M204 474h-93l86 256h66zM386 474h-93l86 256h66z" />
    <glyph glyph-name="quotedblright" unicode="&#x201d;" horiz-adv-x="423" 
d="M342 730h93l-86 -256h-66zM160 730h93l-86 -256h-66z" />
    <glyph glyph-name="quoteleft" unicode="&#x2018;" horiz-adv-x="241" 
d="M204 474h-93l86 256h66z" />
    <glyph glyph-name="quoteright" unicode="&#x2019;" horiz-adv-x="241" 
d="M160 729h93l-86 -256h-66z" />
    <glyph glyph-name="quotesinglbase" unicode="&#x201a;" horiz-adv-x="241" 
d="M56 138h93l-86 -256h-66z" />
    <glyph glyph-name="uni2034" unicode="&#x2034;" horiz-adv-x="607" 
d="M206 730h77l-93 -251h-78zM374 730h77l-93 -251h-78zM542 730h77l-93 -251h-78z" />
    <glyph glyph-name="guillemotleft.aalt" horiz-adv-x="511" 
d="M156 342l69 -172l-78 -21l-77 203l134 199l70 -36zM353 342l69 -172l-78 -21l-77 203l134 199l70 -36z" />
    <glyph glyph-name="guillemotright.aalt" horiz-adv-x="510" 
d="M390 358l-69 172l78 21l77 -203l-134 -199l-70 36zM193 358l-69 172l78 21l77 -203l-134 -199l-70 36z" />
    <glyph glyph-name="guilsinglleft.aalt" horiz-adv-x="315" 
d="M156 342l69 -172l-78 -21l-77 203l134 199l70 -36z" />
    <glyph glyph-name="guilsinglright.aalt" horiz-adv-x="314" 
d="M193 358l-69 172l78 21l77 -203l-134 -199l-70 36z" />
    <glyph glyph-name="uni00A0" unicode="&#xa0;" horiz-adv-x="234" 
 />
    <glyph glyph-name="uniFEFF" unicode="&#xfeff;" horiz-adv-x="0" 
 />
    <glyph glyph-name="uni0E3F" unicode="&#xe3f;" horiz-adv-x="630" 
d="M572 201q0 -55 -27 -101t-73.5 -73t-100.5 -27h-74l-16 -90h-66l16 90h-191l124 700h191l16 90h66l-16 -90h17q47 0 84 -23.5t58 -63t21 -85.5q0 -55 -29.5 -105t-72.5 -73q32 -20 52.5 -61t20.5 -88zM242 613l-40 -223h98l40 223h-98zM406 613l-40 -223h12
q54 0 90.5 37.5t36.5 91.5q0 42 -25 68t-67 26h-7zM246 87l40 224h-98l-40 -224h98zM477 211q0 41 -23.5 70.5t-59.5 29.5h-42l-40 -224h43q54 0 88 35.5t34 88.5z" />
    <glyph glyph-name="cent" unicode="&#xa2;" horiz-adv-x="533" 
d="M415 243l74 -48q-36 -54 -89 -82t-118 -28h-7l-15 -85h-66l17 96q-71 22 -113 83t-42 145q0 79 32 143.5t88.5 103t126.5 43.5l15 86h66l-16 -90q49 -10 87 -40.5t60 -75.5l-80 -41q-30 58 -82 74l-63 -360q36 1 68.5 21.5t56.5 54.5zM226 181l62 349q-60 -12 -99.5 -68
t-39.5 -131q0 -52 20.5 -91.5t56.5 -58.5z" />
    <glyph glyph-name="currency" unicode="&#xa4;" horiz-adv-x="637" 
d="M582 364q0 -49 -16.5 -92.5t-47.5 -77.5l59 -68l-59 -53l-62 71q-60 -37 -135 -37q-85 0 -147 49l-81 -73l-52 58l82 74q-31 54 -31 120q0 49 16.5 92.5t47.5 77.5l-61 71l59 53l63 -73q64 37 135 37q81 0 143 -46l80 73l52 -58l-80 -72q35 -55 35 -126zM327 185
q46 0 84 23.5t60 64t22 89.5q0 66 -41.5 109.5t-105.5 43.5q-45 0 -83 -23.5t-60 -64t-22 -89.5q0 -66 41 -109.5t105 -43.5z" />
    <glyph glyph-name="dollar" unicode="$" horiz-adv-x="612" 
d="M558 194q0 -102 -77 -155t-195 -53h-3l-13 -76h-66l14 81q-63 10 -113.5 37t-83.5 65l62 60q57 -65 150 -81l43 244q-80 21 -130 64.5t-50 126.5q0 97 69 151t182 56l13 76h66l-14 -80q111 -16 173 -88l-59 -57q-51 52 -128 65l-43 -243q89 -18 146 -62.5t57 -130.5z
M291 401l41 231q-66 -4 -106 -35.5t-40 -84.5q0 -79 105 -111zM469 190q0 46 -34.5 71.5t-94.5 40.5l-42 -235q76 2 123.5 34.5t47.5 88.5z" />
    <glyph glyph-name="Euro" unicode="&#x20ac;" horiz-adv-x="665" 
d="M545 142l60 -59q-45 -50 -95.5 -73.5t-117.5 -23.5q-106 0 -180.5 68.5t-96.5 181.5h-95l11 60h78q-1 7 -1 22q0 47 7 86h-66l11 60h69q34 114 117 182t198 68q71 0 121.5 -28t92.5 -87l-70 -46q-29 42 -64 61t-83 19q-73 0 -129.5 -46t-85.5 -123h248l-11 -60h-254
q-8 -43 -8 -84q0 -16 1 -24h242l-11 -60h-223q18 -77 67.5 -123t118.5 -46q46 0 81.5 18.5t67.5 56.5z" />
    <glyph glyph-name="florin" unicode="&#x192;" horiz-adv-x="447" 
d="M515 692l-37 -72q-19 12 -51 12q-77 0 -96 -94l-30 -145h111l-11 -60h-112l-40 -191q-16 -74 -62 -115t-113 -41q-55 0 -96 22l36 72q21 -12 52 -12q76 0 95 94l36 171h-98l10 60h100l35 165q16 74 61.5 115t113.5 41q28 0 53 -6t43 -16z" />
    <glyph glyph-name="uni20B4" unicode="&#x20b4;" horiz-adv-x="628" 
d="M616 464l-11 -60h-538l11 60h389q30 35 30 80q0 42 -30 65.5t-84 23.5q-49 0 -100 -19.5t-89 -52.5l-48 67q44 41 107.5 63.5t129.5 22.5q96 0 150 -43.5t54 -118.5q0 -49 -20 -88h49zM48 296h538l-10 -60h-387q-32 -34 -32 -76q0 -48 37.5 -70.5t102.5 -22.5
q125 0 203 76l50 -67q-46 -44 -112 -67t-146 -23q-104 0 -164.5 42.5t-60.5 123.5q0 46 20 84h-49z" />
    <glyph glyph-name="uni20BA" unicode="&#x20ba;" horiz-adv-x="563" 
d="M530 227q-52 -114 -143.5 -170.5t-216.5 -56.5h-90l47 266l-98 -32l10 62l99 32l19 108l-98 -32l10 62l99 32l36 202h90l-30 -170l197 64l-10 -62l-198 -65l-19 -107l197 64l-10 -62l-198 -65l-39 -219q92 1 161 47.5t108 134.5z" />
    <glyph glyph-name="uni20BC" unicode="&#x20bc;" horiz-adv-x="698" 
d="M659 321q0 -28 -7 -72l-44 -249h-89l44 248q6 33 6 63q0 78 -38 129t-104 63l-89 -503h-66l90 506q-90 -8 -148 -75t-80 -189l-43 -242h-89l45 255q28 159 112.5 243.5t216.5 89.5l20 112h66l-20 -116q100 -14 158.5 -84.5t58.5 -178.5z" />
    <glyph glyph-name="uni20BD" unicode="&#x20bd;" horiz-adv-x="596" 
d="M210 261l-15 -87h199l-10 -60h-200l-20 -114h-90l20 114h-96l10 60h97l15 87h-96l12 68h96l66 371h200q104 0 162 -51.5t58 -145.5q0 -73 -33 -127.5t-94 -84.5t-142 -30h-139zM222 329h125q82 0 130.5 48.5t48.5 123.5q0 62 -37 94t-105 32h-109z" />
    <glyph glyph-name="uni20B9" unicode="&#x20b9;" horiz-adv-x="578" 
d="M620 640h-173q29 -23 46.5 -56.5t20.5 -73.5h83l-10 -60h-75q-13 -85 -81 -134t-172 -49h-80l226 -205l-62 -69l-295 274l1 1l13 72h191q65 0 108.5 30t56.5 80h-337l11 60h330q-5 50 -36.5 81t-85.5 31h-189l8 44l6 34h506z" />
    <glyph glyph-name="sterling" unicode="&#xa3;" horiz-adv-x="598" 
d="M618 613l-65 -52q-25 37 -55 54.5t-74 17.5q-59 0 -96 -35.5t-50 -105.5l-17 -99h238l-11 -60h-238l-45 -255h322l-15 -78h-504l15 78h92l45 255h-93l11 60h92l21 118q17 98 78.5 150.5t156.5 52.5q64 0 109.5 -25.5t82.5 -75.5z" />
    <glyph glyph-name="uni20B8" unicode="&#x20b8;" horiz-adv-x="602" 
d="M636 700l-11 -60h-510l11 60h510zM101 559h510l-13 -69h-209l-87 -490h-89l87 490h-212z" />
    <glyph glyph-name="uni20A9" unicode="&#x20a9;" horiz-adv-x="857" 
d="M803 493h50l-11 -60h-61l-39 -108h81l-11 -60h-91l-96 -265h-99l-45 265h-90l-118 -265h-101l-16 265h-100l11 60h86l-6 108h-61l11 60h46l-12 207h96l11 -207h167l23 54h95l8 -54h177l71 207h99zM246 325h88l46 108h-139zM688 433h-147l17 -108h93zM470 325l-14 86
l-39 -86h53zM309 265h-60l7 -125zM630 265h-63l20 -127z" />
    <glyph glyph-name="yen" unicode="&#xa5;" horiz-adv-x="616" 
d="M400 341h147l-11 -60h-167l-20 -108h169l-11 -60h-169l-20 -113h-88l20 113h-167l11 60h167l19 108h-167l10 60h147l-158 359h91l135 -309l221 309h103z" />
    <glyph glyph-name="uni0E3F.aalt" 
d="M550 201q0 -55 -27 -101t-73.5 -73t-100.5 -27h-74l-16 -90h-66l16 90h-191l124 700h191l16 90h66l-16 -90h17q47 0 84 -23.5t58 -63t21 -85.5q0 -55 -29.5 -105t-72.5 -73q32 -20 52.5 -61t20.5 -88zM220 613l-40 -223h98l40 223h-98zM384 613l-40 -223h12
q54 0 90.5 37.5t36.5 91.5q0 42 -25 68t-67 26h-7zM224 87l40 224h-98l-40 -224h98zM455 211q0 41 -23.5 70.5t-59.5 29.5h-42l-40 -224h43q54 0 88 35.5t34 88.5z" />
    <glyph glyph-name="cent.aalt" 
d="M451 243l74 -48q-36 -54 -89 -82t-118 -28h-7l-15 -85h-66l17 96q-71 22 -113 83t-42 145q0 79 32 143.5t88.5 103t126.5 43.5l15 86h66l-16 -90q49 -10 87 -40.5t60 -75.5l-80 -41q-30 58 -82 74l-63 -360q36 1 68.5 21.5t56.5 54.5zM262 181l62 349q-60 -12 -99.5 -68
t-39.5 -131q0 -52 20.5 -91.5t56.5 -58.5z" />
    <glyph glyph-name="currency.aalt" 
d="M569 364q0 -49 -16.5 -92.5t-47.5 -77.5l59 -68l-59 -53l-62 71q-60 -37 -135 -37q-85 0 -147 49l-81 -73l-52 58l82 74q-31 54 -31 120q0 49 16.5 92.5t47.5 77.5l-61 71l59 53l63 -73q64 37 135 37q81 0 143 -46l80 73l52 -58l-80 -72q35 -55 35 -126zM314 185
q46 0 84 23.5t60 64t22 89.5q0 66 -41.5 109.5t-105.5 43.5q-45 0 -83 -23.5t-60 -64t-22 -89.5q0 -66 41 -109.5t105 -43.5z" />
    <glyph glyph-name="dollar.aalt" 
d="M544 194q0 -102 -77 -155t-195 -53h-3l-13 -76h-66l14 81q-63 10 -113.5 37t-83.5 65l62 60q57 -65 150 -81l43 244q-80 21 -130 64.5t-50 126.5q0 97 69 151t182 56l13 76h66l-14 -80q111 -16 173 -88l-59 -57q-51 52 -128 65l-43 -243q89 -18 146 -62.5t57 -130.5z
M277 401l41 231q-66 -4 -106 -35.5t-40 -84.5q0 -79 105 -111zM455 190q0 46 -34.5 71.5t-94.5 40.5l-42 -235q76 2 123.5 34.5t47.5 88.5z" />
    <glyph glyph-name="Euro.aalt" 
d="M486 127l57 -60q-85 -81 -202 -81q-106 0 -167.5 68t-73.5 182h-88l11 60h74q0 50 10 108h-65l10 60h69q34 113 109 181.5t183 68.5q57 0 108.5 -24t83.5 -67l-67 -52q-20 29 -54 45.5t-75 16.5q-72 0 -121 -45.5t-74 -123.5h262l-10 -60h-267q-8 -49 -10 -108h258
l-11 -60h-244q9 -78 46 -123.5t105 -45.5q43 0 77 14.5t66 45.5z" />
    <glyph glyph-name="florin.aalt" 
d="M551 692l-37 -72q-19 12 -51 12q-77 0 -96 -94l-30 -145h111l-11 -60h-112l-40 -191q-16 -74 -62 -115t-113 -41q-55 0 -96 22l36 72q21 -12 52 -12q76 0 95 94l36 171h-98l10 60h100l35 165q16 74 61.5 115t113.5 41q28 0 53 -6t43 -16z" />
    <glyph glyph-name="uni20B4.aalt" 
d="M601 464l-10 -60h-528l10 60h380q30 36 30 80q0 42 -30.5 65.5t-83.5 23.5q-50 0 -95.5 -18.5t-83.5 -52.5l-49 68q44 40 103 62t124 22q96 0 150.5 -43.5t54.5 -118.5q0 -47 -21 -88h49zM43 296h529l-11 -60h-378q-31 -34 -31 -76q0 -47 37 -70t98 -23q63 0 111.5 18
t88.5 55l49 -67q-46 -43 -111 -65t-143 -22q-99 0 -159 43t-60 123q0 46 20 84h-50z" />
    <glyph glyph-name="uni20BA.aalt" 
d="M534 227q-52 -114 -143.5 -170.5t-216.5 -56.5h-90l47 266l-98 -32l10 62l99 32l19 108l-98 -32l10 62l99 32l36 202h90l-30 -170l197 64l-10 -62l-198 -65l-19 -107l197 64l-10 -62l-198 -65l-39 -219q92 1 161 47.5t108 134.5z" />
    <glyph glyph-name="uni20BC.aalt" 
d="M574 321q0 -34 -6 -72l-44 -249h-89l44 248q6 44 6 63q0 71 -29.5 114.5t-81.5 56.5l-85 -482h-66l86 486q-72 -9 -121 -71.5t-68 -172.5l-43 -242h-89l46 255q26 147 101 227.5t189 85.5l23 132h66l-24 -137q85 -15 135 -79.5t50 -162.5z" />
    <glyph glyph-name="uni20BD.aalt" 
d="M212 261l-15 -87h187l-10 -60h-188l-20 -114h-89l20 114h-96l10 60h97l15 87h-96l11 68h97l66 371h187q104 0 162 -51.5t58 -145.5q0 -73 -33 -127.5t-94 -84.5t-143 -30h-126zM224 329h112q82 0 131 48.5t49 123.5q0 62 -37 94t-106 32h-96z" />
    <glyph glyph-name="uni20B9.aalt" 
d="M617 640h-173q29 -23 46 -56.5t20 -73.5h84l-11 -60h-75q-13 -85 -81 -134t-172 -49h-75l226 -205l-62 -69l-294 274l13 73h187q65 0 108.5 30t56.5 80h-333l11 60h326q-5 50 -36.5 81t-85.5 31h-185l8 44l6 34h501z" />
    <glyph glyph-name="sterling.aalt" 
d="M617 613l-65 -52q-25 37 -55 54.5t-74 17.5q-59 0 -96 -35.5t-50 -105.5l-17 -99h238l-11 -60h-238l-45 -255h322l-15 -78h-504l15 78h92l45 255h-93l11 60h92l21 118q17 98 78.5 150.5t156.5 52.5q64 0 109.5 -25.5t82.5 -75.5z" />
    <glyph glyph-name="uni20B8.aalt" 
d="M624 700l-11 -60h-510l11 60h510zM89 559h510l-13 -69h-209l-87 -490h-89l87 490h-212z" />
    <glyph glyph-name="uni20A9.aalt" 
d="M577 468h38l-10 -54h-43l-35 -129h55l-9 -54h-61l-64 -231h-95l-15 231h-74l-82 -231h-96l6 231h-69l9 54h61l4 129h-42l10 54h33l6 232h86l-8 -232h100l23 67h77l5 -67h107l60 232h87zM175 285h43l45 129h-83zM480 414h-89l9 -129h47zM334 285l-8 122l-43 -122h51z
M200 231h-27l-3 -85zM433 231h-29l6 -88z" />
    <glyph glyph-name="yen.aalt" 
d="M380 341h147l-11 -60h-168l-19 -108h169l-11 -60h-168l-20 -113h-89l20 113h-167l11 60h166l19 108h-166l10 60h144l-150 359h94l127 -313l217 313h103z" />
    <glyph glyph-name="uni2219" unicode="&#x2219;" 
d="M227 289q0 33 23 56.5t57 23.5q33 0 56.5 -23.5t23.5 -56.5t-23.5 -56t-56.5 -23q-34 0 -57 22.5t-23 56.5z" />
    <glyph glyph-name="plus" unicode="+" 
d="M498 250h-155l-28 -159h-89l28 159h-153l13 78h154l29 160h89l-29 -160h154z" />
    <glyph glyph-name="minus" unicode="&#x2212;" 
d="M115 328h397l-14 -78h-397z" />
    <glyph glyph-name="multiply" unicode="&#xd7;" 
d="M366 284l105 -124l-66 -60l-106 125l-143 -125l-55 64l143 125l-105 123l66 60l106 -124l146 127l55 -63z" />
    <glyph glyph-name="divide" unicode="&#xf7;" 
d="M300 513h91l-21 -119h-91zM115 328h397l-14 -78h-397zM237 154h91l-21 -118h-91z" />
    <glyph glyph-name="equal" unicode="=" 
d="M131 416h397l-14 -78h-397zM98 224h397l-14 -78h-397z" />
    <glyph glyph-name="notequal" unicode="&#x2260;" 
d="M367 338l-53 -115h180l-14 -78h-203l-45 -97h-81l45 97h-113l14 78h136l53 115h-169l14 78h192l45 97h81l-45 -97h124l-14 -78h-147z" />
    <glyph glyph-name="greater" unicode="&#x3e;" 
d="M505 319l-13 -77l-428 -174l16 89l326 127l-280 135l15 84z" />
    <glyph glyph-name="less" unicode="&#x3c;" 
d="M94.9941 241.985l12.999 76.9951l427.974 173.989l-15.998 -88.9941l-325.98 -126.992l279.982 -134.992l-14.999 -83.9951z" />
    <glyph glyph-name="greaterequal" unicode="&#x2265;" 
d="M522 391l-13 -76l-424 -151l15 82l319 111l-279 113l14 81zM71 78h396l-13 -78h-397z" />
    <glyph glyph-name="lessequal" unicode="&#x2264;" 
d="M537 470l-319 -111l279 -113l-14 -82l-369 161l14 76l424 150zM70 78h397l-14 -78h-396z" />
    <glyph glyph-name="plusminus" unicode="&#xb1;" 
d="M518 360l-14 -78h-154l-22 -125h-89l22 125h-154l14 78h154l26 151h89l-26 -151h154zM71 78h397l-13 -78h-397z" />
    <glyph glyph-name="approxequal" unicode="&#x2248;" 
d="M297 346q-18 13 -29.5 19.5t-26.5 6.5q-40 0 -65 -58l-68 21q19 53 56.5 82t83.5 29q27 0 46 -9.5t40 -26.5q18 -13 29 -19.5t26 -6.5q39 0 66 58l67 -21q-19 -53 -56 -82t-83 -29q-28 0 -46 9t-40 27zM278 153q-18 13 -29.5 19.5t-26.5 6.5q-40 0 -65 -58l-68 21
q19 53 56.5 82t83.5 29q27 0 46 -9.5t40 -26.5q18 -13 29 -19.5t26 -6.5q39 0 66 58l67 -21q-19 -53 -56 -82t-83 -29q-28 0 -46 9t-40 27z" />
    <glyph glyph-name="asciitilde" unicode="~" 
d="M288 255q-18 13 -29.5 19.5t-26.5 6.5q-40 0 -65 -58l-68 21q19 53 56.5 82t83.5 29q27 0 46 -9.5t40 -26.5q18 -13 29 -19.5t26 -6.5q39 0 66 58l67 -21q-19 -53 -56 -82t-83 -29q-28 0 -46 9t-40 27z" />
    <glyph glyph-name="logicalnot" unicode="&#xac;" 
d="M475 161h-88l33 188h-308l13 78h397z" />
    <glyph glyph-name="emptyset" unicode="&#x2205;" horiz-adv-x="579" 
d="M489 399q50 -65 50 -148q0 -68 -33 -123.5t-89.5 -87.5t-125.5 -32q-82 0 -148 45l-71 -71l-50 50l70 70q-50 64 -50 149q0 68 33 123.5t90 87.5t126 32q82 0 147 -46l72 72l50 -50zM154 164l225 225q-40 27 -88 27q-44 0 -80.5 -21.5t-57.5 -59t-21 -84.5q0 -48 22 -87z
M427 337l-224 -224q40 -27 88 -27q44 0 80 21.5t57 59t21 84.5t-22 86z" />
    <glyph glyph-name="infinity" unicode="&#x221e;" horiz-adv-x="817" 
d="M779 270q0 -54 -23.5 -96.5t-64.5 -66.5t-92 -24q-57 0 -101 32.5t-88 90.5q-44 -58 -88 -90.5t-101 -32.5q-50 0 -90.5 24t-63.5 66.5t-23 96.5t23 96.5t63.5 66.5t90.5 24q57 0 101 -32.5t88 -90.5q44 58 88 90.5t101 32.5q51 0 92 -24t64.5 -66.5t23.5 -96.5zM363 270
q-38 52 -69.5 79.5t-68.5 27.5q-39 0 -65 -30.5t-26 -76.5t26 -76t65 -30q37 0 68.5 27t69.5 79zM690 270q0 46 -27.5 76.5t-68.5 30.5q-37 0 -68 -27t-70 -80q40 -52 70.5 -79t67.5 -27q41 0 68.5 30t27.5 76z" />
    <glyph glyph-name="integral" unicode="&#x222b;" horiz-adv-x="491" 
d="M-22 -88l35 72q26 -14 58 -14q43 0 66 26t34 83l89 504q14 82 59.5 125t118.5 43q54 0 100 -22l-35 -73q-25 13 -59 13q-43 0 -66 -25.5t-33 -82.5l-89 -504q-15 -82 -61 -125t-118 -43q-58 0 -99 23z" />
    <glyph glyph-name="Omega" unicode="&#x2126;" horiz-adv-x="783" 
d="M563 78h143l-15 -78h-282l13 79q95 37 153 124t58 190q0 68 -26.5 121.5t-74 84t-107.5 30.5q-73 0 -134.5 -41t-97.5 -112.5t-36 -157.5q0 -83 36.5 -148.5t98.5 -92.5l-13 -77h-278l15 78h152q-49 39 -76.5 104t-27.5 141q0 107 49 196.5t133 142t184 52.5
q85 0 152.5 -41.5t106 -114.5t38.5 -164q0 -98 -43.5 -181.5t-120.5 -134.5z" />
    <glyph glyph-name="Delta" unicode="&#x2206;" horiz-adv-x="657" 
d="M7 78l340 622h94l148 -622l-13 -78h-582zM498 78l-116 524l-277 -524h393z" />
    <glyph glyph-name="product" unicode="&#x220f;" horiz-adv-x="683" 
d="M711 664h-103l-134 -763h-89l134 763h-209l-134 -763h-89l134 763h-102l13 78h592z" />
    <glyph glyph-name="summation" unicode="&#x2211;" horiz-adv-x="606" 
d="M641 664h-422l222 -310l-11 -65l-326 -310h416l-14 -78h-530l16 87l356 340l-237 336l13 78h530z" />
    <glyph glyph-name="radical" unicode="&#x221a;" horiz-adv-x="741" 
d="M777 664h-152l-346 -763h-90l-127 490h85l97 -379l328 730h218z" />
    <glyph glyph-name="partialdiff" unicode="&#x2202;" horiz-adv-x="572" 
d="M536 315q0 -153 -67.5 -241.5t-195.5 -88.5q-69 0 -123 29.5t-83.5 83t-29.5 124.5q0 75 32 138t90 100.5t132 37.5q39 0 73.5 -13t61.5 -37q-25 90 -88.5 144t-172.5 76l25 73q105 -14 183.5 -73t120.5 -151t42 -202zM441 261q0 71 -39 114.5t-104 43.5q-51 0 -89.5 -27
t-59 -71.5t-20.5 -95.5q0 -71 41 -115t106 -44q51 0 88.5 26.5t57 71t19.5 97.5z" />
    <glyph glyph-name="mu" unicode="&#xb5;" horiz-adv-x="581" 
d="M553 502l-88 -502h-89l9 52q-32 -32 -76.5 -48.5t-92.5 -16.5q-60 0 -96 30l-36 -201h-89l121 686h89l-54 -307q-2 -16 -2 -26q0 -48 26.5 -75.5t73.5 -27.5q63 0 110 50.5t61 132.5l44 253h89z" />
    <glyph glyph-name="percent" unicode="%" horiz-adv-x="962" 
d="M95 512q0 56 26.5 102t72 72.5t100.5 26.5q49 0 88 -22.5t61.5 -62t22.5 -87.5q0 -56 -26.5 -102.5t-72 -73t-99.5 -26.5q-49 0 -88.5 22.5t-62 62t-22.5 88.5zM719 700h85l-525 -700h-85zM393 540q0 47 -29 77t-74 30q-52 0 -87 -39t-35 -96q0 -47 28.5 -76.5
t74.5 -29.5q52 0 87 38.5t35 95.5zM531 159q0 56 26.5 102t72 72.5t100.5 26.5q49 0 88 -22.5t61.5 -62t22.5 -87.5q0 -56 -26.5 -102.5t-72 -73t-99.5 -26.5q-49 0 -88.5 22.5t-62 62t-22.5 88.5zM829 187q0 47 -29 77t-74 30q-52 0 -87 -39t-35 -96q0 -47 28.5 -76.5
t74.5 -29.5q52 0 87 38.5t35 95.5z" />
    <glyph glyph-name="perthousand" unicode="&#x2030;" horiz-adv-x="1378" 
d="M95 512q0 56 26.5 102t72 72.5t100.5 26.5q49 0 88 -22.5t61.5 -62t22.5 -87.5q0 -56 -26.5 -102.5t-72 -73t-99.5 -26.5q-49 0 -88.5 22.5t-62 62t-22.5 88.5zM719 700h85l-525 -700h-85zM393 540q0 47 -29 77t-74 30q-52 0 -87 -39t-35 -96q0 -47 28.5 -76.5
t74.5 -29.5q52 0 87 38.5t35 95.5zM531 159q0 56 26.5 102t72 72.5t100.5 26.5q49 0 88 -22.5t61.5 -62t22.5 -87.5q0 -56 -26.5 -102.5t-72 -73t-99.5 -26.5q-49 0 -88.5 22.5t-62 62t-22.5 88.5zM947 159q0 56 26.5 102t72 72.5t100.5 26.5q49 0 88 -22.5t61.5 -62
t22.5 -87.5q0 -56 -26.5 -102.5t-72 -73t-99.5 -26.5q-49 0 -88.5 22.5t-62 62t-22.5 88.5zM829 187q0 47 -29 77t-74 30q-52 0 -87 -39t-35 -96q0 -47 28.5 -76.5t74.5 -29.5q52 0 87 38.5t35 95.5zM1245 187q0 47 -29 77t-74 30q-52 0 -87 -39t-35 -96q0 -47 28.5 -76.5
t74.5 -29.5q52 0 87 38.5t35 95.5z" />
    <glyph glyph-name="percent.aalt" 
d="M91 547q0 44 21.5 81t58.5 59t81 22q59 0 97 -38.5t38 -97.5q0 -44 -21.5 -81t-58.5 -59t-81 -22q-59 0 -97 38.5t-38 97.5zM320 571q0 34 -20 56t-51 22q-38 0 -64.5 -29.5t-26.5 -71.5q0 -34 20 -55.5t51 -21.5q38 0 64.5 29.5t26.5 70.5zM82 168l457 397l25 -29
l-457 -397zM248 126q0 44 21.5 81t58.5 59t81 22q59 0 97 -38.5t38 -97.5q0 -44 -21.5 -81t-58.5 -59t-81 -22q-59 0 -97 38.5t-38 97.5zM477 150q0 34 -20 56t-51 22q-38 0 -64.5 -29.5t-26.5 -71.5q0 -34 20 -55.5t51 -21.5q38 0 64.5 29.5t26.5 70.5z" />
    <glyph glyph-name="perthousand.aalt" 
d="M75 548q0 44 21.5 81t58.5 59t81 22q59 0 97 -38.5t38 -97.5q0 -44 -21.5 -81t-58.5 -59t-81 -22q-59 0 -97 38.5t-38 97.5zM142 549q0 -34 20 -55.5t51 -21.5q38 0 64.5 29.5t26.5 70.5q0 34 -20 56t-51 22q-38 0 -64.5 -29.5t-26.5 -71.5zM42 276l-11 39l529 168
l13 -38zM559 149q0 -44 -21.5 -81t-58.5 -59t-81 -22q-36 0 -64 17t-44 47q-20 -30 -51.5 -47t-70.5 -17q-59 0 -97 38.5t-38 97.5q0 44 21.5 81t57.5 59t79 22q38 0 66.5 -17t45.5 -48q21 30 53 47.5t69 17.5q58 0 96 -38.5t38 -97.5zM262 148q0 34 -20 55.5t-51 21.5
q-38 0 -64.5 -29.5t-26.5 -71.5q0 -34 20 -55.5t51 -21.5q38 0 64.5 29.5t26.5 71.5zM492 148q0 34 -20 55.5t-51 21.5q-38 0 -65 -29.5t-27 -71.5q0 -34 20 -55.5t51 -21.5q38 0 65 29.5t27 71.5z" />
    <glyph glyph-name="arrowup" unicode="&#x2191;" horiz-adv-x="699" 
d="M362 681l256 -255l-53 -55l-163 169v-482h-79v483l-163 -170l-54 54z" />
    <glyph glyph-name="uni2197" unicode="&#x2197;" horiz-adv-x="700" 
d="M506 224l4 235l-341 -341l-56 56l343 342l-237 -6v77h362l1 -362z" />
    <glyph glyph-name="arrowright" unicode="&#x2192;" horiz-adv-x="700" 
d="M685 351l-255 -256l-55 53l169 163h-482v79h483l-170 163l54 54z" />
    <glyph glyph-name="uni2198" unicode="&#x2198;" horiz-adv-x="700" 
d="M588 478v-362l-362 -1l-1 76l235 -4l-341 341l56 56l342 -343l-6 237h77z" />
    <glyph glyph-name="arrowdown" unicode="&#x2193;" horiz-adv-x="700" 
d="M351 12l-256 255l53 55l163 -169v482h79v-483l163 170l54 -54z" />
    <glyph glyph-name="uni2199" unicode="&#x2199;" horiz-adv-x="700" 
d="M250 187l235 4l-1 -76l-362 1v362h77l-6 -237l342 343l56 -56z" />
    <glyph glyph-name="arrowleft" unicode="&#x2190;" horiz-adv-x="700" 
d="M49.9971 351l254.984 -256l54.9971 53l-168.99 163h481.971v79h-482.971l169.99 163l-53.9971 54z" />
    <glyph glyph-name="uni2196" unicode="&#x2196;" horiz-adv-x="700" 
d="M522 118l-341 341l4 -235l-76 1l1 362h362v-77l-237 6l343 -342z" />
    <glyph glyph-name="H18533" unicode="&#x25cf;" horiz-adv-x="933" 
d="M884 377q0 -119 -57.5 -215.5t-156 -152t-217.5 -55.5q-107 0 -191 47.5t-131 130.5t-47 187q0 120 57 218t155.5 153.5t217.5 55.5q107 0 191.5 -48t131.5 -132.5t47 -188.5z" />
    <glyph glyph-name="circle" unicode="&#x25cb;" horiz-adv-x="933" 
d="M84 319q0 120 57 218t155.5 153.5t217.5 55.5q107 0 191.5 -48t131.5 -132.5t47 -188.5q0 -119 -57.5 -215.5t-156 -152t-217.5 -55.5q-107 0 -191 47.5t-131 130.5t-47 187zM818 378q0 86 -39 156t-108.5 110.5t-156.5 40.5q-99 0 -182.5 -48t-132.5 -131t-49 -184
q0 -86 38.5 -156.5t108 -110.5t156.5 -40q99 0 183 48t133 131t49 184z" />
    <glyph glyph-name="uniF8FF" unicode="&#xf8ff;" horiz-adv-x="900" 
d="M136 87q0 42 6.5 67t8.5 32q-88 0 -88 72q0 41 20 75.5t50 67.5l13 16q-86 62 -86 127q0 46 34.5 78t82.5 32q38 0 67 -19t77 -64q28 71 72 107t96 36q76 0 120.5 -56t55.5 -163q17 4 39 4q58 0 97 -34t39 -84q0 -59 -44 -106t-114 -96q-30 -22 -41.5 -32t-11.5 -17
q0 -3 6.5 -17.5t6.5 -31.5q0 -41 -36 -69.5t-88 -28.5q-29 0 -52.5 11t-52.5 30q-16 11 -26 16.5t-19 5.5q-7 0 -13 -5.5t-15 -17.5q-19 -26 -41 -41t-61 -15q-45 0 -73.5 33.5t-28.5 86.5zM303 90q14 24 26 37t31 13q16 0 29.5 -8t34.5 -25q22 -19 39.5 -29t39.5 -10
q13 0 26 8t13 16q0 6 -12 18q-9 10 -14.5 17.5t-5.5 17.5q0 22 25 42t80 52q62 36 95 63.5t33 60.5q0 20 -13.5 33t-33.5 13q-10 0 -21 -3.5t-21 -7.5q-22 -10 -34 -10q-75 0 -75 62q0 9 0.5 21.5t0.5 37.5q0 92 -65 92q-26 0 -35 -13t-14 -40q-6 -29 -16 -43t-41 -14
q-16 0 -26 3.5t-18 13.5q-9 -15 -30 -15q-11 0 -21 8.5t-27 27.5q-21 25 -38 38t-38 13q-17 0 -27.5 -11t-10.5 -29q0 -19 14 -36t44 -37q16 -2 25 -12t9 -24q0 -17 -10 -35t-31 -47q-21 -30 -29.5 -45.5t-8.5 -30.5q0 -4 1 -6l32 1q26 0 42 -15t16 -38q0 -14 -3 -23t-9 -23
q-9 -15 -13.5 -32t-4.5 -45q0 -27 7.5 -39.5t24.5 -12.5q19 0 31 12.5t27 37.5zM422 430q0 21 11.5 34t30.5 13q17 0 31.5 -14t14.5 -38q0 -20 -11.5 -33.5t-31.5 -13.5t-32.5 14.5t-12.5 37.5zM258 392q0 25 11 38.5t31 13.5q24 0 41 -17.5t17 -41.5q0 -21 -13.5 -33.5
t-35.5 -12.5q-25 0 -38 13.5t-13 39.5zM526 275q0 -28 -43 -48t-102 -20q-56 0 -77 10.5t-21 38.5q0 16 14.5 31t30.5 15q17 0 43 -7q6 -1 16 -3t16 -2q13 0 31 11q24 14 41 14q20 0 35.5 -12t15.5 -28z" />
    <glyph glyph-name="at" unicode="@" horiz-adv-x="992" 
d="M934 331q0 -79 -24.5 -143t-70 -101t-106.5 -37q-43 0 -75.5 19t-47.5 50q-25 -31 -63.5 -50t-82.5 -19q-53 0 -95.5 25.5t-67 71.5t-24.5 104q0 71 32 128.5t89 90.5t130 33q67 0 113 -12h81l-50 -281q-2 -16 -2 -23q0 -29 18 -47t48 -18q57 0 89.5 59.5t32.5 149.5
q0 89 -40.5 159.5t-112.5 110t-163 39.5q-111 0 -202 -55.5t-143 -150t-52 -207.5q0 -90 40.5 -162.5t111.5 -113.5t159 -41q64 0 116.5 20t101.5 59l40 -65q-64 -44 -127 -65.5t-132 -21.5q-109 0 -197.5 51.5t-139 141.5t-50.5 200q0 130 64 241t173 176.5t238 65.5
q110 0 199.5 -50t140.5 -137t51 -195zM604 275l25 140q-34 15 -93 15q-52 0 -92.5 -23t-62.5 -63t-22 -91q0 -56 31.5 -93t79.5 -37q52 0 87 40.5t47 111.5z" />
    <glyph glyph-name="ampersand" unicode="&#x26;" horiz-adv-x="630" 
d="M491 -13l-51 74q-80 -75 -202 -75q-62 0 -109.5 25t-73.5 69t-26 98q0 77 48 136t128 87q-41 66 -41 126q0 51 24.5 94t68.5 68t101 25q56 0 103.5 -25t76.5 -72l-69 -51q-44 65 -111 65q-46 0 -73 -30t-27 -72q0 -25 11 -50.5t33 -57.5l261 -383zM391 131l-139 200
q-56 -14 -93 -54.5t-37 -92.5q0 -50 35.5 -82.5t90.5 -32.5q44 0 80.5 16t62.5 46z" />
    <glyph glyph-name="paragraph" unicode="&#xb6;" horiz-adv-x="526" 
d="M397 0h-75l111 627h-61l-111 -627h-75l58 329h-16q-46 0 -83.5 21t-59 58.5t-21.5 86.5q0 56 27.5 103t75.5 74.5t108 27.5h246z" />
    <glyph glyph-name="section" unicode="&#xa7;" horiz-adv-x="586" 
d="M544 258q0 -86 -81 -146q21 -32 21 -77q0 -64 -32 -108.5t-87 -66.5t-122 -22q-81 0 -147 26t-105 69l59 61q33 -35 84 -55t112 -20q66 0 107.5 27t41.5 75q0 42 -35.5 63t-98.5 34q-58 11 -100 27.5t-70.5 51t-28.5 91.5q0 88 86 145q-27 38 -27 92q0 85 62.5 133.5
t169.5 48.5q69 0 126 -22.5t91 -60.5l-58 -60q-27 29 -69.5 45.5t-92.5 16.5q-63 0 -101.5 -25.5t-38.5 -72.5q0 -45 37.5 -69.5t101.5 -35.5q89 -15 142 -50t53 -115zM289 199q71 -13 109 -33q27 15 42 36.5t15 47.5q0 42 -33.5 61t-99.5 32q-67 13 -112 37
q-58 -30 -58 -84q0 -43 35.5 -63.5t101.5 -33.5z" />
    <glyph glyph-name="copyright" unicode="&#xa9;" horiz-adv-x="872" 
d="M84 324q0 107 53 197t144 142.5t199 52.5q96 0 174.5 -44.5t123.5 -122.5t45 -173q0 -107 -53.5 -197t-144.5 -142.5t-199 -52.5q-96 0 -174 44.5t-123 122.5t-45 173zM752 376q0 77 -36 139.5t-98 98.5t-138 36q-89 0 -164 -43.5t-118.5 -118.5t-43.5 -164
q0 -77 36 -139.5t98.5 -98.5t138.5 -36q89 0 163.5 43.5t118 118.5t43.5 164zM267 329q0 60 26.5 109.5t72 77.5t99.5 28q40 0 74 -18.5t57 -52.5l-59 -42q-25 43 -76 43q-33 0 -60.5 -19t-43 -51.5t-15.5 -71.5q0 -46 25 -75t66 -29q25 0 48 11.5t41 33.5l50 -48
q-29 -31 -67 -48.5t-78 -17.5q-46 0 -82.5 22t-57 60.5t-20.5 87.5z" />
    <glyph glyph-name="registered" unicode="&#xae;" horiz-adv-x="668" 
d="M636 461q0 -78 -38 -142t-103 -101.5t-143 -37.5q-71 0 -128.5 33t-90.5 90t-33 126q0 78 38 142.5t103 101.5t143 37q71 0 128.5 -33t90.5 -90t33 -126zM587 459q0 58 -26.5 105.5t-73 74.5t-104.5 27q-64 0 -117.5 -31t-84.5 -84.5t-31 -118.5q0 -58 26 -105.5t73 -75
t105 -27.5q64 0 117.5 31t84.5 85t31 119zM493 512q0 -30 -20 -54t-52 -35l44 -99l-50 -18l-45 105l-50 -11l-16 -90h-55l48 273h121q35 0 55 -20t20 -51zM434 505q0 13 -9 21.5t-26 8.5h-55l-16 -87l63 13q19 3 31 15.5t12 28.5z" />
    <glyph glyph-name="uni2117" unicode="&#x2117;" horiz-adv-x="872" 
d="M823 376q0 -107 -53.5 -197t-144.5 -142.5t-199 -52.5q-96 0 -174 44.5t-123 122.5t-45 173q0 107 53 197t144 142.5t199 52.5q96 0 174.5 -44.5t123.5 -122.5t45 -173zM752 376q0 77 -36 139.5t-98 98.5t-138 36q-89 0 -164 -43.5t-118.5 -118.5t-43.5 -164
q0 -77 36 -139.5t98.5 -98.5t138.5 -36q89 0 163.5 43.5t118 118.5t43.5 164zM623 416q0 -62 -42 -103t-110 -41h-90l-19 -106h-73l65 369h149q54 0 87 -32.5t33 -86.5zM549 410q0 28 -16.5 44t-45.5 16h-71l-24 -136h71q41 0 63.5 21.5t22.5 54.5z" />
    <glyph glyph-name="trademark" unicode="&#x2122;" horiz-adv-x="986" 
d="M328 626l-67 -381h-79l67 381h-142l13 74h363l-13 -74h-142zM1000 700l-80 -455h-79l55 317l-154 -208h-64l-82 212l-56 -321h-80l80 455h84l97 -261l190 261h89z" />
    <glyph glyph-name="degree" unicode="&#xb0;" horiz-adv-x="426" 
d="M130 566q0 40 20 74t55 54t76 20q56 0 93 -36.5t37 -90.5q0 -40 -20.5 -74t-55 -54t-75.5 -20q-56 0 -93 36.5t-37 90.5zM350 585q0 32 -20.5 52t-52.5 20q-35 0 -60.5 -26t-25.5 -63q0 -32 20.5 -52.5t51.5 -20.5q36 0 61.5 26.5t25.5 63.5z" />
    <glyph glyph-name="uni2300" unicode="&#x2300;" horiz-adv-x="594" 
d="M495 399q50 -65 50 -148q0 -68 -33 -123.5t-89.5 -87.5t-125.5 -32q-82 0 -148 45l-71 -71l-50 50l70 70q-50 64 -50 149q0 68 33 123.5t90 87.5t126 32q82 0 147 -46l72 72l50 -50zM160 164l225 225q-40 27 -88 27q-44 0 -80.5 -21.5t-57.5 -59t-21 -84.5q0 -48 22 -87z
M433 337l-224 -224q40 -27 88 -27q44 0 80 21.5t57 59t21 84.5t-22 86z" />
    <glyph glyph-name="bar" unicode="|" horiz-adv-x="256" 
d="M170 742h89l-148 -841h-89z" />
    <glyph glyph-name="brokenbar" unicode="&#xa6;" horiz-adv-x="257" 
d="M170 742h89l-65 -374h-89zM88 275h88l-65 -374h-89z" />
    <glyph glyph-name="uni2113" unicode="&#x2113;" horiz-adv-x="449" 
d="M346 88l23 -76q-57 -25 -115 -25q-70 0 -108 33t-38 89q0 18 3 34l1 6q-18 -11 -73 -41l-31 69q62 33 123 78l55 311q12 69 53 108.5t103 39.5q60 0 96.5 -35.5t36.5 -97.5q0 -88 -72.5 -183t-189.5 -181l-13 -75q-3 -10 -3 -22q0 -52 67 -52q39 0 82 20zM235 339
q69 65 110.5 126t41.5 111q0 28 -13.5 42t-34.5 14q-52 0 -66 -75z" />
    <glyph glyph-name="dagger" unicode="&#x2020;" horiz-adv-x="514" 
d="M489 468h-149l-58 -326h-89l58 326h-150l14 78h150l27 154h89l-27 -154h149z" />
    <glyph glyph-name="daggerdbl" unicode="&#x2021;" horiz-adv-x="514" 
d="M343 486l-23 -130h150l-14 -78h-150l-24 -136h-89l24 136h-150l15 78h149l23 130h-150l14 78h150l24 136h89l-24 -136h150l-15 -78h-149z" />
    <glyph glyph-name="estimated" unicode="&#x212e;" horiz-adv-x="901" 
d="M161 85q-111 105 -111 264q0 160 112 264q57 53 125 77.5t164 24.5q86 0 151.5 -22t124.5 -69q57 -45 88 -119t36 -167h-637q-8 0 -12 -3t-4 -15v-179q0 -21 33.5 -52.5t91.5 -54.5t128 -23q72 0 140 32.5t113 83.5h75q-39 -43 -75 -70.5t-75 -43.5q-42 -17 -79 -23.5
t-99 -6.5q-96 0 -165.5 24.5t-124.5 77.5zM684 361q12 0 15 3.5t3 13.5v176q0 28 -39.5 60t-99 53.5t-114.5 21.5q-66 0 -123.5 -24t-92.5 -55t-35 -49v-191q0 -9 16 -9h470z" />
    <glyph glyph-name="uni2116" unicode="&#x2116;" horiz-adv-x="1086" 
d="M751 518q0 53 25 96.5t68.5 68.5t95.5 25q70 0 114 -45t44 -116q0 -53 -24.5 -96.5t-67.5 -68t-95 -24.5q-70 0 -115 45t-45 115zM608 700h94l-124 -700h-95l-254 545l-96 -545h-93l124 700h95l253 -543zM830 521q0 -41 23.5 -67.5t60.5 -26.5q43 0 74 34.5t31 82.5
q0 42 -23.5 68.5t-59.5 26.5q-43 0 -74.5 -35t-31.5 -83zM733 309h318l-10 -63h-318z" />
    <glyph glyph-name="asciicircum" unicode="^" horiz-adv-x="493" 
d="M375 449l-69 181l-114 -181h-86l169 251h78l102 -251h-80z" />
    <glyph glyph-name="minute" unicode="&#x2032;" horiz-adv-x="271" 
d="M206 730h77l-93 -251h-78z" />
    <glyph glyph-name="second" unicode="&#x2033;" horiz-adv-x="439" 
d="M374 730h77l-93 -251h-78zM206 730h77l-93 -251h-78z" />
    <glyph glyph-name="uni2120" unicode="&#x2120;" horiz-adv-x="994" 
d="M183 570q0 -30 25 -43.5t71 -21.5q66 -12 106.5 -38.5t40.5 -88.5q0 -71 -52 -106.5t-132 -35.5q-59 0 -109 21.5t-77 53.5l52 52q22 -25 58.5 -42t78.5 -17q46 0 74.5 17t28.5 52q0 28 -24.5 42t-67.5 22q-69 13 -110.5 39.5t-41.5 88.5q0 68 52 106t132 38
q52 0 92.5 -17.5t64.5 -45.5l-47 -50q-20 19 -48.5 32t-63.5 13q-44 0 -73.5 -19t-29.5 -52zM1009 700l-80 -455h-80l55 317l-154 -208h-63l-82 212l-56 -321h-80l80 455h83l97 -261l191 261h89z" />
    <glyph glyph-name="at.aalt" horiz-adv-x="992" 
d="M947 407q0 -79 -24.5 -143t-70 -101t-106.5 -37q-43 0 -75.5 19t-47.5 50q-25 -31 -63.5 -50t-82.5 -19q-53 0 -95.5 25.5t-67 71.5t-24.5 104q0 71 32 128.5t89 90.5t130 33q67 0 113 -12h81l-50 -281q-2 -16 -2 -23q0 -29 18 -47t48 -18q57 0 89.5 59.5t32.5 149.5
q0 89 -40.5 159.5t-112.5 110t-163 39.5q-111 0 -202 -55.5t-143 -150t-52 -207.5q0 -90 40.5 -162.5t111.5 -113.5t159 -41q64 0 116.5 20t101.5 59l40 -65q-64 -44 -127 -65.5t-132 -21.5q-109 0 -197.5 51.5t-139 141.5t-50.5 200q0 130 64 241t173 176.5t238 65.5
q110 0 199.5 -50t140.5 -137t51 -195zM617 351l25 140q-34 15 -93 15q-52 0 -92.5 -23t-62.5 -63t-22 -91q0 -56 31.5 -93t79.5 -37q52 0 87 40.5t47 111.5z" />
    <glyph glyph-name="uni2113.aalt" 
d="M388 88l23 -76q-57 -25 -115 -25q-70 0 -108 33t-38 89q0 18 3 34l1 6q-18 -11 -73 -41l-31 69q62 33 123 78l55 311q12 69 53 108.5t103 39.5q60 0 96.5 -35.5t36.5 -97.5q0 -88 -72.5 -183t-189.5 -181l-13 -75q-3 -10 -3 -22q0 -52 67 -52q39 0 82 20zM277 339
q69 65 110.5 126t41.5 111q0 28 -13.5 42t-34.5 14q-52 0 -66 -75z" />
    <glyph glyph-name="uni0308" unicode="&#x308;" horiz-adv-x="0" 
d="M-254 714h87l-23 -127h-86zM-25 714h86l-22 -127h-86z" />
    <glyph glyph-name="uni0307" unicode="&#x307;" horiz-adv-x="0" 
d="M-28 714h89l-22 -127h-89z" />
    <glyph glyph-name="glyph685" horiz-adv-x="0" 
d="M-67 492h89l-22 -127h-89z" />
    <glyph glyph-name="gravecomb" unicode="&#x300;" horiz-adv-x="0" 
d="M-44 560l-108 154h98l88 -154h-78z" />
    <glyph glyph-name="acutecomb" unicode="&#x301;" horiz-adv-x="0" 
d="M-39 714h101l-133 -154h-80z" />
    <glyph glyph-name="uni030B" unicode="&#x30b;" horiz-adv-x="0" 
d="M-39 714h101l-133 -154h-80zM-246 714h101l-133 -154h-80z" />
    <glyph glyph-name="glyph689" horiz-adv-x="0" 
d="M-15 730h79l-58 -233h-63z" />
    <glyph glyph-name="uni0302" unicode="&#x302;" horiz-adv-x="0" 
d="M-44 560l-69 98l-96 -98h-88l141 154h94l97 -154h-79z" />
    <glyph glyph-name="uni030C" unicode="&#x30c;" horiz-adv-x="0" 
d="M62 714l-141 -154h-94l-97 154h79l69 -98l96 98h88z" />
    <glyph glyph-name="uni0306" unicode="&#x306;" horiz-adv-x="0" 
d="M-266 714h64q3 -39 30 -64t64 -25t65.5 25t37.5 64h66q-12 -67 -59 -109t-113 -42t-109 42.5t-46 108.5z" />
    <glyph glyph-name="uni030A" unicode="&#x30a;" horiz-adv-x="0" 
d="M-178 652q0 48 36 82.5t86 34.5q46 0 77 -29.5t31 -73.5q0 -49 -36 -83.5t-86 -34.5q-46 0 -77 30t-31 74zM-3 664q0 23 -16 39.5t-39 16.5q-26 0 -45.5 -20t-19.5 -47q0 -24 15.5 -40t39.5 -16q26 0 45.5 20t19.5 47z" />
    <glyph glyph-name="tildecomb" unicode="&#x303;" horiz-adv-x="0" 
d="M-134 626q-13 12 -23 18t-23 6q-20 0 -34 -14t-19 -37h-65q10 57 41.5 86t76.5 29q28 0 44 -8.5t34 -25.5q13 -13 22 -18.5t22 -5.5q20 0 34 14t20 37h64q-10 -56 -41.5 -85.5t-76.5 -29.5q-27 0 -43.5 9t-32.5 25z" />
    <glyph glyph-name="uni0304" unicode="&#x304;" horiz-adv-x="0" 
d="M-262 686h318l-10 -63h-319z" />
    <glyph glyph-name="uni0313" unicode="&#x313;" horiz-adv-x="0" 
d="M-28 730h93l-86 -256h-66z" />
    <glyph glyph-name="uni0326" unicode="&#x326;" horiz-adv-x="0" 
d="M-158 -48h85l-65 -173h-67z" />
    <glyph glyph-name="uni0327" unicode="&#x327;" horiz-adv-x="0" 
d="M-85 -110q0 -38 -32 -61.5t-84 -23.5q-55 0 -92 31l27 34q11 -10 27.5 -15.5t31.5 -5.5q23 0 38.5 12.5t15.5 31.5q0 13 -8 21t-21 8q-24 0 -43 -21l-1 1l-40 12l53 101h45l-30 -60q18 5 34 5q36 0 57.5 -19t21.5 -51z" />
    <glyph glyph-name="uni0328" unicode="&#x328;" horiz-adv-x="0" 
d="M-302 -120q0 78 156 150l53 -10q-65 -38 -96 -67t-31 -56q0 -15 10 -23.5t29 -8.5q35 0 70 28l18 -57q-22 -15 -51.5 -24t-56.5 -9q-45 0 -73 21t-28 56z" />
    <glyph glyph-name="uni0335" unicode="&#x335;" horiz-adv-x="0" 
d="M-266 646h316l-11 -59h-316z" />
    <glyph glyph-name="glyph701" horiz-adv-x="0" 
d="M-282 646h331l-11 -64h-331z" />
    <glyph glyph-name="uni0336" unicode="&#x336;" horiz-adv-x="0" 
d="M-653 646h703l-11 -59h-703z" />
    <glyph glyph-name="uni0337" unicode="&#x337;" horiz-adv-x="0" 
d="M-592 26l572 484l38 -46l-572 -484z" />
    <glyph glyph-name="glyph704" horiz-adv-x="0" 
d="M13 439l-14 -81l-139 -40l2 16l-1 -9l-139 -40l13 81l140 39l-1 -6z" />
    <glyph glyph-name="uni0338" unicode="&#x338;" horiz-adv-x="0" 
d="M-772 42l781 666l43 -50l-781 -666z" />
    </font>
</defs>
</svg>
